<svg width="1728" height="1625" viewBox="0 0 1728 1625" fill="none" xmlns="http://www.w3.org/2000/svg">
<g clip-path="url(#clip0_81_12302)">
<line x1="738.307" y1="490.643" x2="577.418" y2="778.766" stroke="black" stroke-width="3"/>
<line x1="596.151" y1="451.984" x2="421.819" y2="732.177" stroke="black" stroke-width="3"/>
<path d="M458.068 767.191L482.332 780.234L516.114 785.945" stroke="black" stroke-width="3"/>
<circle cx="385.819" cy="1283.83" r="48" transform="rotate(-11.2538 385.819 1283.83)" stroke="black" stroke-width="3"/>
<path d="M1759.06 1300.34C1769.84 1331.67 1758.47 1375.19 1733.63 1397.56C1708.79 1419.92 1679.92 1412.63 1669.14 1381.31C1658.35 1349.99 1669.72 1306.46 1694.56 1284.1C1719.4 1261.73 1748.27 1269.02 1759.06 1300.34Z" stroke="black" stroke-width="3"/>
<path d="M218.795 155.141C230.594 183.812 216.916 216.62 188.244 228.419C159.572 240.218 126.764 226.54 114.965 197.869C103.166 169.197 116.844 136.389 145.516 124.59C174.188 112.791 206.996 126.469 218.795 155.141Z" stroke="black" stroke-width="3"/>
<path d="M473.784 402.677L478.515 387.91L495.722 388.724L465.056 366.749L473.784 402.677Z" fill="black" stroke="black"/>
</g>
<defs>
<clipPath id="clip0_81_12302">
<rect width="1728" height="1624" fill="white" transform="translate(0.000610352 0.191406)"/>
</clipPath>
</defs>
</svg>
