<svg width="1728" height="1830" viewBox="0 0 1728 1830" fill="none" xmlns="http://www.w3.org/2000/svg">
<g clip-path="url(#clip0_28_4168)">
<rect x="758.999" y="146" width="651" height="138" fill="#3D3D3D"/>
<rect x="813.998" y="306.75" width="702" height="138" fill="#3D3D3D"/>
<rect x="919.998" y="467.25" width="702" height="138" fill="#3D3D3D"/>
<rect width="702" height="138.501" transform="matrix(-1 0 0 1 1728 628.75)" fill="#3D3D3D"/>
<rect width="702" height="138" transform="matrix(-1 0 0 1 1622 790.75)" fill="#3D3D3D"/>
<rect width="702" height="138" transform="matrix(-1 0 0 1 1516 952)" fill="#3D3D3D"/>
<rect width="702" height="138" transform="matrix(-1 0 0 1 1410 1113.5)" fill="#3D3D3D"/>
<rect width="702" height="138" transform="matrix(-1 0 0 1 1304.41 1275)" fill="#3D3D3D"/>
<rect width="702" height="138" transform="matrix(-1 0 0 1 1198.48 1436.5)" fill="#3D3D3D"/>
<path d="M1093 1598H391V1736H1093V1598Z" fill="#3D3D3D"/>
<path d="M987 1759.5H285V1828.56H987V1759.5Z" fill="#3D3D3D"/>
<path d="M759 283L1410 283.25L1516 306.75H813.999L759 283Z" fill="black"/>
<path d="M707.999 129H1364L1410 146H758.999L707.999 129Z" fill="black"/>
<path d="M813.998 444.25H1516L1622 467.75H919.998L813.998 444.25Z" fill="black"/>
<path d="M919.998 605.25H1622L1728 628.75H1026L919.998 605.25Z" fill="black"/>
<path d="M1728 767.25H1026L919.998 790.75H1622L1728 767.25Z" fill="black"/>
<path d="M1622.14 928.75H920.138L814.138 952.25H1516.14L1622.14 928.75Z" fill="black"/>
<path d="M1516.27 1090H814.266L708.266 1113.5H1410.27L1516.27 1090Z" fill="black"/>
<path d="M1410.41 1251.5H708.406L602.406 1275H1304.41L1410.41 1251.5Z" fill="black"/>
<path d="M1304.48 1413H602.477L496.477 1436.5H1198.48L1304.48 1413Z" fill="black"/>
<path d="M1199 1574.5H497L391 1598H1093L1199 1574.5Z" fill="black"/>
<path d="M1093 1736H391L285 1759.5H987L1093 1736Z" fill="black"/>
<path d="M684 -5L1385 -5L1364 129H708L684 -5Z" fill="#3D3D3D"/>
<path d="M104.812 765L156.011 743.234L185.651 816.511L158.718 822.479L145.252 825.463C145.252 825.463 139.397 825.767 134.408 823.79C128.125 821.301 125.042 812.585 125.042 812.585L118.299 796.723L104.812 765Z" fill="black"/>
<path d="M-59.6621 256.449L316.759 211.979L598.707 723.944L161.202 821.928L-59.6621 256.449Z" fill="black"/>
<path d="M157.467 748.47L563.107 655.896L550.129 720.665L167.164 805.989C167.164 805.989 157.546 808.643 150.015 804.929C142.484 801.214 137.591 791.219 136.269 785.309C134.948 779.398 136.941 767.962 139.876 762.455C142.811 756.948 157.467 748.47 157.467 748.47Z" fill="white"/>
<path d="M-20.6013 244.381L324.142 205.335L471.356 425.117L544.963 535.009L581.767 589.954L600.168 617.427L609.369 631.163L613.97 638.032C613.97 638.032 616.564 641.326 616.33 644.546C616.039 648.544 614.159 649.969 610.27 650.937C606.23 651.943 603.897 649.042 599.74 649.276C596.99 649.43 592.821 650.652 592.821 650.652L567.072 656.404L515.575 667.908L412.579 690.916L206.588 736.932L-20.6013 244.381Z" fill="#3D3D3D"/>
<path d="M-80.5094 252.736C-76.3105 246.697 -64.3028 242.184 -64.3028 242.184L-46.0403 234.951L-36.4611 231.76C-36.4611 231.76 -29.887 229.822 -27.1361 232.495C-24.8108 234.754 -23.9071 236.976 -23.9071 236.976L-20.2477 244.912L-12.9288 260.785L1.70909 292.531L30.9848 356.023L89.5362 483.006L206.639 736.973L182.78 742.869C182.78 742.869 168.333 745.855 158.634 749.425C155.863 750.445 151.218 752.412 151.218 752.412L144.913 757.049C144.913 757.049 141.654 759.554 140.28 761.727C139.005 763.745 137.917 767.407 137.917 767.407L110.618 778.558L2.05275 518.532L-52.2299 388.519L-78.2622 323.082C-78.2622 323.082 -85.0159 303.909 -87.6869 290.784C-89.2479 283.114 -89.6659 279.056 -88.9693 271.552C-88.2896 264.229 -84.7079 258.774 -80.5094 252.736Z" fill="black"/>
<path d="M756.373 1135.19L705.174 1113.43L675.534 1186.7L702.467 1192.67L715.934 1195.65C715.934 1195.65 721.788 1195.96 726.778 1193.98C733.06 1191.49 736.144 1182.78 736.144 1182.78L742.887 1166.91L756.373 1135.19Z" fill="black"/>
<path d="M920.848 626.64L544.427 582.171L262.479 1094.14L699.984 1192.12L920.848 626.64Z" fill="black"/>
<path d="M703.719 1118.66L298.079 1026.09L311.056 1090.86L694.021 1176.18C694.021 1176.18 703.639 1178.83 711.17 1175.12C718.701 1171.41 723.595 1161.41 724.916 1155.5C726.238 1149.59 724.244 1138.15 721.309 1132.65C718.374 1127.14 703.719 1118.66 703.719 1118.66Z" fill="white"/>
<path d="M881.787 614.572L537.044 575.526L389.83 795.309L316.222 905.2L279.419 960.146L261.017 987.618L251.816 1001.35L247.216 1008.22C247.216 1008.22 244.622 1011.52 244.856 1014.74C245.146 1018.74 247.026 1020.16 250.916 1021.13C254.955 1022.13 257.289 1019.23 261.445 1019.47C264.196 1019.62 268.364 1020.84 268.364 1020.84L294.113 1026.6L345.611 1038.1L448.607 1061.11L654.598 1107.12L881.787 614.572Z" fill="#3D3D3D"/>
<path d="M941.695 622.927C937.496 616.888 925.488 612.376 925.488 612.376L907.226 605.142L897.647 601.951C897.647 601.951 891.073 600.014 888.322 602.687C885.996 604.946 885.093 607.167 885.093 607.167L881.433 615.103L874.114 630.976L859.476 662.722L830.201 726.214L771.649 853.197L654.547 1107.16L678.405 1113.06C678.405 1113.06 692.852 1116.05 702.552 1119.62C705.323 1120.64 709.967 1122.6 709.967 1122.6L716.272 1127.24C716.272 1127.24 719.531 1129.75 720.905 1131.92C722.181 1133.94 723.268 1137.6 723.268 1137.6L750.568 1148.75L859.133 888.723L913.415 758.71L939.448 693.273C939.448 693.273 946.201 674.1 948.872 660.976C950.433 653.305 950.851 649.248 950.155 641.743C949.475 634.421 945.893 628.965 941.695 622.927Z" fill="black"/>
<path d="M118.987 1758.45L446.907 1568.35L365.595 989.561L-43.2973 1173.46L118.987 1758.45Z" fill="black"/>
<path d="M-2.2429 1234.49L377.903 1065.37L328.684 1021.31L-28.9687 1182.64C-28.9687 1182.64 -38.2578 1186.28 -42.0579 1193.77C-45.8581 1201.26 -43.7816 1212.19 -41.2954 1217.72C-38.8093 1223.24 -30.3569 1231.2 -24.7063 1233.84C-19.0557 1236.49 -2.2429 1234.49 -2.2429 1234.49Z" fill="white"/>
<path d="M157.483 1744.69L456.799 1569.24L442.841 1305.07L435.863 1172.99L432.373 1106.95L430.629 1073.93L429.756 1057.42L429.32 1049.17C429.32 1049.17 429.421 1044.98 427.303 1042.54C424.673 1039.51 422.314 1039.5 418.621 1041.06C414.785 1042.67 414.657 1046.4 411.19 1048.7C408.896 1050.23 404.828 1051.75 404.828 1051.75L380.772 1062.58L332.659 1084.25L236.435 1127.59L43.9859 1214.27L157.483 1744.69Z" fill="#3D3D3D"/>
<path d="M104.529 1773.92C111.51 1776.23 123.825 1772.65 123.825 1772.65L142.778 1767.49L152.358 1764.3C152.358 1764.3 158.781 1761.9 159.38 1758.12C159.887 1754.91 159.278 1752.59 159.278 1752.59L157.448 1744.05L153.789 1726.96L146.47 1692.77L131.832 1624.41L102.556 1487.67L44.0034 1214.21L21.3734 1223.79C21.3734 1223.79 8.02115 1230.07 -1.88211 1233.02C-4.71159 1233.87 -9.60743 1235.08 -9.60743 1235.08L-17.4339 1235.15C-17.4339 1235.15 -21.5443 1235.1 -23.9472 1234.18C-26.1773 1233.33 -29.2438 1231.05 -29.2438 1231.05L-57.7777 1238.5L11.2404 1511.69L45.7494 1648.29L64.1494 1716.27C64.1494 1716.27 70.2399 1735.67 75.9716 1747.77C79.3213 1754.85 81.4194 1758.34 86.4763 1763.93C91.4109 1769.38 97.5484 1771.6 104.529 1773.92Z" fill="black"/>
<path d="M1272.93 1443.38L1314.34 1406.23L1260.53 1348.33L1243.71 1370.19L1235.3 1381.13C1235.3 1381.13 1232.55 1386.3 1232.22 1391.66C1231.81 1398.4 1238.4 1404.89 1238.4 1404.89L1249.91 1417.72L1272.93 1443.38Z" fill="black"/>
<path d="M1663.86 1807.86L1863.66 1485.75L1519.41 1013.42L1245.26 1368.18L1663.86 1807.86Z" fill="black"/>
<path d="M1310.22 1402.69L1565.96 1074.5L1501.8 1058.81L1262.23 1369.53C1262.23 1369.53 1255.75 1377.12 1255.92 1385.51C1256.09 1393.91 1263.07 1402.58 1267.87 1406.28C1272.66 1409.98 1283.86 1413.02 1290.09 1412.69C1296.33 1412.37 1310.22 1402.69 1310.22 1402.69Z" fill="white"/>
<path d="M1691.35 1777.59L1872.8 1481.88L1736.12 1255.4L1667.77 1142.16L1633.6 1085.54L1616.51 1057.23L1607.97 1043.08L1603.7 1036C1603.7 1036 1601.81 1032.25 1598.8 1031.1C1595.05 1029.67 1592.97 1030.77 1590.44 1033.88C1587.82 1037.12 1589.46 1040.46 1587.48 1044.12C1586.18 1046.55 1583.3 1049.81 1583.3 1049.81L1567.18 1070.69L1534.94 1112.46L1470.45 1196L1341.48 1363.09L1691.35 1777.59Z" fill="#3D3D3D"/>
<path d="M1658.39 1828.31C1665.64 1827.07 1674.82 1818.11 1674.82 1818.11L1689.11 1804.63L1696.06 1797.31C1696.06 1797.31 1700.6 1792.17 1699.35 1788.55C1698.28 1785.48 1696.66 1783.72 1696.66 1783.72L1691.02 1777.05L1679.74 1763.69L1657.19 1736.98L1612.09 1683.56L1521.88 1576.71L1341.47 1363.02L1326.02 1382.13C1326.02 1382.13 1317.19 1393.95 1309.85 1401.23C1307.75 1403.3 1304 1406.68 1304 1406.68L1297.13 1410.42C1297.13 1410.42 1293.48 1412.31 1290.93 1412.64C1288.56 1412.94 1284.78 1412.37 1284.78 1412.37L1263.11 1432.37L1452.63 1640.9L1547.39 1745.16L1595.63 1796.47C1595.63 1796.47 1610.13 1810.71 1620.89 1818.69C1627.18 1823.36 1630.67 1825.45 1637.77 1828C1644.69 1830.49 1651.15 1829.56 1658.39 1828.31Z" fill="black"/>
</g>
<defs>
<clipPath id="clip0_28_4168">
<rect width="1728" height="1830" fill="white" transform="translate(0.000976562)"/>
</clipPath>
</defs>
</svg>
