<svg width="1728" height="1255" viewBox="0 0 1728 1255" fill="none" xmlns="http://www.w3.org/2000/svg">
<g clip-path="url(#clip0_28_4414)">
<rect x="922" y="156" width="792" height="150" fill="#3D3D3D"/>
<rect width="1136" height="150" transform="matrix(-1 0 0 1 1085 263)" fill="black"/>
<rect width="1136" height="150" transform="matrix(-1 0 0 1 1577 433)" fill="#848484"/>
<rect width="792" height="150" transform="matrix(1 0 0 -1 922 1093)" fill="black"/>
<rect x="1684" y="1255" width="1100" height="142" transform="rotate(180 1684 1255)" fill="#3D3D3D"/>
<rect x="1331" y="923" width="1136" height="150" transform="rotate(180 1331 923)" fill="#3D3D3D"/>
<rect x="1670" y="753" width="1340" height="150" transform="rotate(180 1670 753)" fill="black"/>
<path d="M97.0684 1090L533.667 1165.04L527.599 1200.34L91.0005 1125.3L97.0684 1090Z" fill="black"/>
<path d="M437 766.117L472.583 762L520.05 1172.27L484.468 1176.39L437 766.117Z" fill="black"/>
<path d="M87 518L523.599 593.038L413.075 1236.11L-23.5238 1161.07L87 518Z" fill="#848484" stroke="#3D3D3D" stroke-width="40"/>
<rect x="423.621" y="1102" width="23.4286" height="109.714" transform="rotate(9.99137 423.621 1102)" fill="black"/>
<path d="M417.381 1219.72C416.16 1222 412.698 1221.39 412.329 1218.83L411.91 1215.93C411.745 1214.78 410.855 1213.87 409.704 1213.67L406.783 1213.15C404.21 1212.7 403.714 1209.26 406.058 1208.13L408.721 1206.85C409.769 1206.35 410.367 1205.23 410.202 1204.08L409.783 1201.18C409.414 1198.62 412.569 1197.1 414.387 1198.97L416.452 1201.08C417.265 1201.91 418.525 1202.13 419.574 1201.63L422.236 1200.35C424.581 1199.22 427.027 1201.72 425.806 1204L424.42 1206.59C423.874 1207.61 424.054 1208.86 424.867 1209.69L426.932 1211.81C428.75 1213.67 427.107 1216.73 424.534 1216.28L421.613 1215.77C420.462 1215.56 419.314 1216.12 418.768 1217.14L417.381 1219.72Z" fill="black"/>
<path d="M438.95 1097.29C438.581 1094.73 435.119 1094.12 433.898 1096.4L432.512 1098.99C431.966 1100.01 430.817 1100.56 429.666 1100.36L426.745 1099.84C424.172 1099.39 422.529 1102.45 424.348 1104.32L426.412 1106.43C427.225 1107.26 427.406 1108.52 426.86 1109.53L425.473 1112.12C424.252 1114.4 426.698 1116.9 429.043 1115.78L431.705 1114.49C432.754 1113.99 434.014 1114.21 434.828 1115.04L436.892 1117.16C438.71 1119.02 441.865 1117.5 441.496 1114.94L441.077 1112.04C440.912 1110.89 441.51 1109.78 442.559 1109.27L445.221 1107.99C447.566 1106.87 447.069 1103.42 444.497 1102.97L441.575 1102.45C440.425 1102.25 439.534 1101.34 439.369 1100.2L438.95 1097.29Z" fill="black"/>
<rect x="-13.3779" y="1024" width="23.4286" height="109.714" transform="rotate(9.99137 -13.3779 1024)" fill="black"/>
<path d="M1.95095 1019.29C1.58196 1016.73 -1.87969 1016.12 -3.10077 1018.4L-4.48724 1020.99C-5.03333 1022.01 -6.18205 1022.56 -7.33263 1022.36L-10.2539 1021.84C-12.8267 1021.39 -14.4696 1024.45 -12.6515 1026.32L-10.5871 1028.43C-9.77406 1029.26 -9.59329 1030.52 -10.1394 1031.53L-11.5258 1034.12C-12.7469 1036.4 -10.3007 1038.9 -7.95594 1037.78L-5.29362 1036.49C-4.24502 1035.99 -2.98457 1036.21 -2.17149 1037.04L-0.107117 1039.16C1.71099 1041.02 4.86581 1039.5 4.49683 1036.94L4.07786 1034.04C3.91285 1032.89 4.51108 1031.78 5.55968 1031.27L8.222 1029.99C10.5667 1028.87 10.0703 1025.42 7.49749 1024.97L4.57623 1024.45C3.42565 1024.25 2.53493 1023.34 2.36991 1022.2L1.95095 1019.29Z" fill="black"/>
<rect x="450.621" y="941.004" width="23.4286" height="109.714" transform="rotate(9.99137 450.621 941.004)" fill="black"/>
<path d="M444.381 1058.72C443.16 1061 439.698 1060.39 439.329 1057.83L438.91 1054.93C438.745 1053.78 437.855 1052.87 436.704 1052.67L433.783 1052.15C431.21 1051.7 430.714 1048.26 433.058 1047.13L435.721 1045.85C436.769 1045.35 437.367 1044.23 437.202 1043.08L436.783 1040.18C436.414 1037.62 439.569 1036.1 441.387 1037.97L443.452 1040.08C444.265 1040.91 445.525 1041.13 446.574 1040.63L449.236 1039.35C451.581 1038.22 454.027 1040.72 452.806 1043L451.42 1045.59C450.874 1046.61 451.054 1047.86 451.867 1048.69L453.932 1050.81C455.75 1052.67 454.107 1055.73 451.534 1055.28L448.613 1054.77C447.462 1054.56 446.314 1055.12 445.768 1056.14L444.381 1058.72Z" fill="black"/>
<path d="M465.95 936.291C465.581 933.733 462.119 933.123 460.898 935.401L459.512 937.988C458.966 939.007 457.817 939.56 456.666 939.357L453.745 938.842C451.172 938.389 449.529 941.455 451.348 943.316L453.412 945.429C454.225 946.262 454.406 947.515 453.86 948.534L452.473 951.121C451.252 953.399 453.698 955.904 456.043 954.776L458.705 953.495C459.754 952.991 461.014 953.213 461.828 954.045L463.892 956.158C465.71 958.02 468.865 956.502 468.496 953.944L468.077 951.039C467.912 949.895 468.51 948.778 469.559 948.274L472.221 946.993C474.566 945.865 474.069 942.423 471.497 941.97L468.575 941.455C467.425 941.252 466.534 940.34 466.369 939.196L465.95 936.291Z" fill="black"/>
<rect x="13.6221" y="863.004" width="23.4286" height="109.714" transform="rotate(9.99137 13.6221 863.004)" fill="black"/>
<path d="M7.38201 980.722C6.16093 983.001 2.69928 982.391 2.3303 979.832L1.91133 976.927C1.74632 975.783 0.855591 974.871 -0.29499 974.669L-3.21625 974.154C-5.78902 973.701 -6.28549 970.258 -3.94076 969.13L-1.27844 967.85C-0.22984 967.345 0.368391 966.229 0.203376 965.085L-0.215586 962.18C-0.58457 959.622 2.57025 958.104 4.38836 959.965L6.45273 962.079C7.26581 962.911 8.52626 963.133 9.57486 962.629L12.2372 961.348C14.5819 960.22 17.0282 962.724 15.8071 965.003L14.4206 967.59C13.8745 968.609 14.0553 969.862 14.8684 970.694L16.9328 972.808C18.7509 974.669 17.1079 977.735 14.5351 977.281L11.6139 976.767C10.4633 976.564 9.31457 977.117 8.76848 978.135L7.38201 980.722Z" fill="black"/>
<path d="M28.9509 858.291C28.582 855.733 25.1203 855.123 23.8992 857.401L22.5128 859.988C21.9667 861.007 20.8179 861.56 19.6674 861.357L16.7461 860.842C14.1733 860.389 12.5304 863.455 14.3485 865.316L16.4129 867.429C17.2259 868.262 17.4067 869.515 16.8606 870.534L15.4742 873.121C14.2531 875.399 16.6993 877.904 19.0441 876.776L21.7064 875.495C22.755 874.991 24.0154 875.213 24.8285 876.045L26.8929 878.158C28.711 880.02 31.8658 878.502 31.4968 875.944L31.0779 873.039C30.9128 871.895 31.5111 870.778 32.5597 870.274L35.222 868.993C37.5667 867.865 37.0703 864.423 34.4975 863.97L31.5762 863.455C30.4257 863.252 29.5349 862.34 29.3699 861.196L28.9509 858.291Z" fill="black"/>
<rect x="479.621" y="780.004" width="23.4286" height="109.714" transform="rotate(9.99137 479.621 780.004)" fill="black"/>
<path d="M473.381 897.722C472.16 900.001 468.698 899.391 468.329 896.832L467.91 893.927C467.745 892.783 466.855 891.871 465.704 891.669L462.783 891.154C460.21 890.701 459.714 887.258 462.058 886.13L464.721 884.85C465.769 884.345 466.367 883.229 466.202 882.085L465.783 879.18C465.414 876.622 468.569 875.104 470.387 876.965L472.452 879.079C473.265 879.911 474.525 880.133 475.574 879.629L478.236 878.348C480.581 877.22 483.027 879.724 481.806 882.003L480.42 884.59C479.874 885.609 480.054 886.862 480.867 887.694L482.932 889.808C484.75 891.669 483.107 894.735 480.534 894.281L477.613 893.767C476.462 893.564 475.314 894.117 474.768 895.135L473.381 897.722Z" fill="black"/>
<path d="M494.95 775.291C494.581 772.733 491.119 772.123 489.898 774.401L488.512 776.988C487.966 778.007 486.817 778.56 485.666 778.357L482.745 777.842C480.172 777.389 478.529 780.455 480.348 782.316L482.412 784.429C483.225 785.262 483.406 786.515 482.86 787.534L481.473 790.121C480.252 792.399 482.698 794.904 485.043 793.776L487.705 792.495C488.754 791.991 490.014 792.213 490.828 793.045L492.892 795.158C494.71 797.02 497.865 795.502 497.496 792.944L497.077 790.039C496.912 788.895 497.51 787.778 498.559 787.274L501.221 785.993C503.566 784.865 503.069 781.423 500.497 780.97L497.575 780.455C496.425 780.252 495.534 779.34 495.369 778.196L494.95 775.291Z" fill="black"/>
<rect x="42.6221" y="702.004" width="23.4286" height="109.714" transform="rotate(9.99137 42.6221 702.004)" fill="black"/>
<path d="M36.382 819.722C35.1609 822.001 31.6993 821.391 31.3303 818.832L30.9113 815.927C30.7463 814.783 29.8556 813.871 28.705 813.669L25.7838 813.154C23.211 812.701 22.7145 809.258 25.0592 808.13L27.7216 806.85C28.7702 806.345 29.3684 805.229 29.2034 804.085L28.7844 801.18C28.4154 798.622 31.5702 797.104 33.3884 798.965L35.4527 801.079C36.2658 801.911 37.5263 802.133 38.5749 801.629L41.2372 800.348C43.5819 799.22 46.0282 801.724 44.8071 804.003L43.4206 806.59C42.8745 807.609 43.0553 808.862 43.8684 809.694L45.9328 811.808C47.7509 813.669 46.1079 816.735 43.5351 816.281L40.6139 815.767C39.4633 815.564 38.3146 816.117 37.7685 817.135L36.382 819.722Z" fill="black"/>
<path d="M57.9509 697.291C57.582 694.733 54.1203 694.123 52.8992 696.401L51.5128 698.988C50.9667 700.007 49.8179 700.56 48.6674 700.357L45.7461 699.842C43.1733 699.389 41.5304 702.455 43.3485 704.316L45.4129 706.429C46.2259 707.262 46.4067 708.515 45.8606 709.534L44.4742 712.121C43.2531 714.399 45.6993 716.904 48.0441 715.776L50.7064 714.495C51.755 713.991 53.0154 714.213 53.8285 715.045L55.8929 717.158C57.711 719.02 60.8658 717.502 60.4968 714.944L60.0779 712.039C59.9128 710.895 60.5111 709.778 61.5597 709.274L64.222 707.993C66.5667 706.865 66.0703 703.423 63.4975 702.97L60.5762 702.455C59.4257 702.252 58.5349 701.34 58.3699 700.196L57.9509 697.291Z" fill="black"/>
<rect x="507.621" y="619.004" width="23.4286" height="109.714" transform="rotate(9.99137 507.621 619.004)" fill="black"/>
<path d="M501.381 736.722C500.16 739.001 496.698 738.391 496.329 735.832L495.91 732.927C495.745 731.783 494.855 730.871 493.704 730.669L490.783 730.154C488.21 729.701 487.714 726.258 490.058 725.13L492.721 723.85C493.769 723.345 494.367 722.229 494.202 721.085L493.783 718.18C493.414 715.622 496.569 714.104 498.387 715.965L500.452 718.079C501.265 718.911 502.525 719.133 503.574 718.629L506.236 717.348C508.581 716.22 511.027 718.724 509.806 721.003L508.42 723.59C507.874 724.609 508.054 725.862 508.867 726.694L510.932 728.808C512.75 730.669 511.107 733.735 508.534 733.281L505.613 732.767C504.462 732.564 503.314 733.117 502.768 734.135L501.381 736.722Z" fill="black"/>
<path d="M522.95 614.291C522.581 611.733 519.119 611.123 517.898 613.401L516.512 615.988C515.966 617.007 514.817 617.56 513.666 617.357L510.745 616.842C508.172 616.389 506.529 619.455 508.348 621.316L510.412 623.429C511.225 624.262 511.406 625.515 510.86 626.534L509.473 629.121C508.252 631.399 510.698 633.904 513.043 632.776L515.705 631.495C516.754 630.991 518.014 631.213 518.828 632.045L520.892 634.158C522.71 636.02 525.865 634.502 525.496 631.944L525.077 629.039C524.912 627.895 525.51 626.778 526.559 626.274L529.221 624.993C531.566 623.865 531.069 620.423 528.497 619.97L525.575 619.455C524.425 619.252 523.534 618.34 523.369 617.196L522.95 614.291Z" fill="black"/>
<rect x="70.6221" y="541.004" width="23.4286" height="109.714" transform="rotate(9.99137 70.6221 541.004)" fill="black"/>
<path d="M64.382 658.722C63.1609 661.001 59.6993 660.391 59.3303 657.832L58.9113 654.927C58.7463 653.783 57.8556 652.871 56.705 652.669L53.7838 652.154C51.211 651.701 50.7145 648.258 53.0592 647.13L55.7216 645.85C56.7702 645.345 57.3684 644.229 57.2034 643.085L56.7844 640.18C56.4154 637.622 59.5702 636.104 61.3884 637.965L63.4527 640.079C64.2658 640.911 65.5263 641.133 66.5749 640.629L69.2372 639.348C71.5819 638.22 74.0282 640.724 72.8071 643.003L71.4206 645.59C70.8745 646.609 71.0553 647.862 71.8684 648.694L73.9328 650.808C75.7509 652.669 74.1079 655.735 71.5351 655.281L68.6139 654.767C67.4633 654.564 66.3146 655.117 65.7685 656.135L64.382 658.722Z" fill="black"/>
<path d="M85.9509 536.291C85.582 533.733 82.1203 533.123 80.8992 535.401L79.5128 537.988C78.9667 539.007 77.8179 539.56 76.6674 539.357L73.7461 538.842C71.1733 538.389 69.5304 541.455 71.3485 543.316L73.4129 545.429C74.2259 546.262 74.4067 547.515 73.8606 548.534L72.4742 551.121C71.2531 553.399 73.6993 555.904 76.0441 554.776L78.7064 553.495C79.755 552.991 81.0154 553.213 81.8285 554.045L83.8929 556.158C85.711 558.02 88.8658 556.502 88.4968 553.944L88.0779 551.039C87.9128 549.895 88.5111 548.778 89.5597 548.274L92.222 546.993C94.5667 545.865 94.0703 542.423 91.4975 541.97L88.5762 541.455C87.4257 541.252 86.5349 540.34 86.3699 539.196L85.9509 536.291Z" fill="black"/>
<path d="M684 100.25H1385V1260H684V100.25Z" fill="black"/>
<rect x="1385" width="100" height="1260" fill="#848484"/>
<rect x="584" width="100" height="1260" fill="#848484"/>
<rect width="100" height="901" transform="matrix(0 -1 -1 0 1485 100)" fill="#848484"/>
<path d="M684 0L534 0L584 150H684V0Z" fill="#3D3D3D"/>
<rect x="1123" y="70" width="41" height="192" transform="rotate(-90 1123 70)" fill="#3D3D3D"/>
<path d="M1327.78 45.0117C1332.07 46.4244 1332.07 52.5756 1327.78 53.9883L1322.9 55.5924C1320.98 56.2242 1319.67 58.0362 1319.67 60.0807L1319.67 65.2717C1319.67 69.8433 1313.89 71.7442 1311.24 68.0456L1308.22 63.846C1307.03 62.192 1304.93 61.4999 1303.01 62.1317L1298.13 63.7357C1293.83 65.1485 1290.26 60.1721 1292.91 56.4735L1295.93 52.2739C1297.12 50.6199 1297.12 48.3801 1295.93 46.7261L1292.91 42.5265C1290.26 38.8279 1293.83 33.8515 1298.13 35.2643L1303.01 36.8683C1304.93 37.5001 1307.03 36.808 1308.22 35.154L1311.24 30.9544C1313.89 27.2558 1319.67 29.1566 1319.67 33.7283L1319.67 38.9193C1319.67 40.9638 1320.98 42.7758 1322.9 43.4076L1327.78 45.0117Z" fill="#3D3D3D"/>
<path d="M1110.22 45.0117C1105.93 46.4244 1105.93 52.5756 1110.22 53.9883L1115.1 55.5924C1117.02 56.2242 1118.33 58.0362 1118.33 60.0807L1118.33 65.2717C1118.33 69.8433 1124.11 71.7442 1126.76 68.0456L1129.78 63.846C1130.97 62.192 1133.07 61.4999 1134.99 62.1317L1139.87 63.7357C1144.17 65.1485 1147.74 60.1721 1145.09 56.4735L1142.07 52.2739C1140.88 50.6199 1140.88 48.3801 1142.07 46.7261L1145.09 42.5265C1147.74 38.8279 1144.17 33.8515 1139.87 35.2643L1134.99 36.8683C1133.07 37.5001 1130.97 36.808 1129.78 35.154L1126.76 30.9544C1124.11 27.2558 1118.33 29.1566 1118.33 33.7283L1118.33 38.9193C1118.33 40.9638 1117.02 42.7758 1115.1 43.4076L1110.22 45.0117Z" fill="#3D3D3D"/>
<rect x="754" y="70" width="41" height="192" transform="rotate(-90 754 70)" fill="#3D3D3D"/>
<path d="M958.777 45.0117C963.074 46.4244 963.074 52.5756 958.777 53.9883L953.898 55.5924C951.976 56.2242 950.675 58.0362 950.675 60.0807L950.675 65.2717C950.675 69.8433 944.893 71.7442 942.237 68.0456L939.221 63.846C938.033 62.192 935.928 61.4999 934.006 62.1317L929.127 63.7357C924.83 65.1485 921.256 60.1721 923.912 56.4735L926.928 52.2739C928.115 50.6199 928.115 48.3801 926.928 46.7261L923.912 42.5265C921.256 38.8279 924.83 33.8515 929.127 35.2643L934.006 36.8683C935.928 37.5001 938.033 36.808 939.221 35.154L942.237 30.9544C944.893 27.2558 950.675 29.1566 950.675 33.7283L950.675 38.9193C950.675 40.9638 951.976 42.7758 953.898 43.4076L958.777 45.0117Z" fill="#3D3D3D"/>
<path d="M741.223 45.0117C736.926 46.4244 736.926 52.5756 741.223 53.9883L746.102 55.5924C748.024 56.2242 749.325 58.0362 749.325 60.0807L749.325 65.2717C749.325 69.8433 755.107 71.7442 757.763 68.0456L760.779 63.846C761.967 62.192 764.072 61.4999 765.994 62.1317L770.873 63.7357C775.17 65.1485 778.744 60.1721 776.088 56.4735L773.072 52.2739C771.885 50.6199 771.885 48.3801 773.072 46.7261L776.088 42.5265C778.744 38.8279 775.17 33.8515 770.873 35.2643L765.994 36.8683C764.072 37.5001 761.967 36.808 760.779 35.154L757.763 30.9544C755.107 27.2558 749.325 29.1566 749.325 33.7283L749.325 38.9193C749.325 40.9638 748.024 42.7758 746.102 43.4076L741.223 45.0117Z" fill="#3D3D3D"/>
<rect x="615" y="208" width="41" height="192" fill="#3D3D3D"/>
<path d="M639.988 412.777C638.576 417.074 632.424 417.074 631.012 412.777L629.408 407.898C628.776 405.976 626.964 404.675 624.919 404.675H619.728C615.157 404.675 613.256 398.893 616.954 396.237L621.154 393.221C622.808 392.033 623.5 389.928 622.868 388.006L621.264 383.127C619.852 378.83 624.828 375.256 628.527 377.912L632.726 380.928C634.38 382.115 636.62 382.115 638.274 380.928L642.473 377.912C646.172 375.256 651.148 378.83 649.736 383.127L648.132 388.006C647.5 389.928 648.192 392.033 649.846 393.221L654.046 396.237C657.744 398.893 655.843 404.675 651.272 404.675H646.081C644.036 404.675 642.224 405.976 641.592 407.898L639.988 412.777Z" fill="#3D3D3D"/>
<path d="M639.988 195.223C638.576 190.926 632.424 190.926 631.012 195.223L629.408 200.102C628.776 202.024 626.964 203.325 624.919 203.325H619.728C615.157 203.325 613.256 209.107 616.954 211.763L621.154 214.779C622.808 215.967 623.5 218.072 622.868 219.994L621.264 224.873C619.852 229.17 624.828 232.744 628.527 230.088L632.726 227.072C634.38 225.885 636.62 225.885 638.274 227.072L642.473 230.088C646.172 232.744 651.148 229.17 649.736 224.873L648.132 219.994C647.5 218.072 648.192 215.967 649.846 214.779L654.046 211.763C657.744 209.107 655.843 203.325 651.272 203.325H646.081C644.036 203.325 642.224 202.024 641.592 200.102L639.988 195.223Z" fill="#3D3D3D"/>
<path d="M1385 0L1535 0L1485 150H1385V0Z" fill="#3D3D3D"/>
<rect x="1414" y="208" width="41" height="192" fill="#3D3D3D"/>
<path d="M1438.99 412.777C1437.58 417.074 1431.42 417.074 1430.01 412.777L1428.41 407.898C1427.78 405.976 1425.96 404.675 1423.92 404.675H1418.73C1414.16 404.675 1412.26 398.893 1415.95 396.237L1420.15 393.221C1421.81 392.033 1422.5 389.928 1421.87 388.006L1420.26 383.127C1418.85 378.83 1423.83 375.256 1427.53 377.912L1431.73 380.928C1433.38 382.115 1435.62 382.115 1437.27 380.928L1441.47 377.912C1445.17 375.256 1450.15 378.83 1448.74 383.127L1447.13 388.006C1446.5 389.928 1447.19 392.033 1448.85 393.221L1453.05 396.237C1456.74 398.893 1454.84 404.675 1450.27 404.675H1445.08C1443.04 404.675 1441.22 405.976 1440.59 407.898L1438.99 412.777Z" fill="#3D3D3D"/>
<path d="M1438.99 195.223C1437.58 190.926 1431.42 190.926 1430.01 195.223L1428.41 200.102C1427.78 202.024 1425.96 203.325 1423.92 203.325H1418.73C1414.16 203.325 1412.26 209.107 1415.95 211.763L1420.15 214.779C1421.81 215.967 1422.5 218.072 1421.87 219.994L1420.26 224.873C1418.85 229.17 1423.83 232.744 1427.53 230.088L1431.73 227.072C1433.38 225.885 1435.62 225.885 1437.27 227.072L1441.47 230.088C1445.17 232.744 1450.15 229.17 1448.74 224.873L1447.13 219.994C1446.5 218.072 1447.19 215.967 1448.85 214.779L1453.05 211.763C1456.74 209.107 1454.84 203.325 1450.27 203.325H1445.08C1443.04 203.325 1441.22 202.024 1440.59 200.102L1438.99 195.223Z" fill="#3D3D3D"/>
<rect x="1414" y="474" width="41" height="192" fill="#3D3D3D"/>
<path d="M1438.99 678.777C1437.58 683.074 1431.42 683.074 1430.01 678.777L1428.41 673.898C1427.78 671.976 1425.96 670.675 1423.92 670.675H1418.73C1414.16 670.675 1412.26 664.893 1415.95 662.237L1420.15 659.221C1421.81 658.033 1422.5 655.928 1421.87 654.006L1420.26 649.127C1418.85 644.83 1423.83 641.256 1427.53 643.912L1431.73 646.928C1433.38 648.115 1435.62 648.115 1437.27 646.928L1441.47 643.912C1445.17 641.256 1450.15 644.83 1448.74 649.127L1447.13 654.006C1446.5 655.928 1447.19 658.033 1448.85 659.221L1453.05 662.237C1456.74 664.893 1454.84 670.675 1450.27 670.675H1445.08C1443.04 670.675 1441.22 671.976 1440.59 673.898L1438.99 678.777Z" fill="#3D3D3D"/>
<path d="M1438.99 461.223C1437.58 456.926 1431.42 456.926 1430.01 461.223L1428.41 466.102C1427.78 468.024 1425.96 469.325 1423.92 469.325H1418.73C1414.16 469.325 1412.26 475.107 1415.95 477.763L1420.15 480.779C1421.81 481.967 1422.5 484.072 1421.87 485.994L1420.26 490.873C1418.85 495.17 1423.83 498.744 1427.53 496.088L1431.73 493.072C1433.38 491.885 1435.62 491.885 1437.27 493.072L1441.47 496.088C1445.17 498.744 1450.15 495.17 1448.74 490.873L1447.13 485.994C1446.5 484.072 1447.19 481.967 1448.85 480.779L1453.05 477.763C1456.74 475.107 1454.84 469.325 1450.27 469.325H1445.08C1443.04 469.325 1441.22 468.024 1440.59 466.102L1438.99 461.223Z" fill="#3D3D3D"/>
<rect x="615" y="474" width="41" height="192" fill="#3D3D3D"/>
<path d="M639.988 678.777C638.576 683.074 632.424 683.074 631.012 678.777L629.408 673.898C628.776 671.976 626.964 670.675 624.919 670.675H619.728C615.157 670.675 613.256 664.893 616.954 662.237L621.154 659.221C622.808 658.033 623.5 655.928 622.868 654.006L621.264 649.127C619.852 644.83 624.828 641.256 628.527 643.912L632.726 646.928C634.38 648.115 636.62 648.115 638.274 646.928L642.473 643.912C646.172 641.256 651.148 644.83 649.736 649.127L648.132 654.006C647.5 655.928 648.192 658.033 649.846 659.221L654.046 662.237C657.744 664.893 655.843 670.675 651.272 670.675H646.081C644.036 670.675 642.224 671.976 641.592 673.898L639.988 678.777Z" fill="#3D3D3D"/>
<path d="M639.988 461.223C638.576 456.926 632.424 456.926 631.012 461.223L629.408 466.102C628.776 468.024 626.964 469.325 624.919 469.325H619.728C615.157 469.325 613.256 475.107 616.954 477.763L621.154 480.779C622.808 481.967 623.5 484.072 622.868 485.994L621.264 490.873C619.852 495.17 624.828 498.744 628.527 496.088L632.726 493.072C634.38 491.885 636.62 491.885 638.274 493.072L642.473 496.088C646.172 498.744 651.148 495.17 649.736 490.873L648.132 485.994C647.5 484.072 648.192 481.967 649.846 480.779L654.046 477.763C657.744 475.107 655.843 469.325 651.272 469.325H646.081C644.036 469.325 642.224 468.024 641.592 466.102L639.988 461.223Z" fill="#3D3D3D"/>
<rect x="1414" y="740" width="41" height="192" fill="#3D3D3D"/>
<path d="M1438.99 944.777C1437.58 949.074 1431.42 949.074 1430.01 944.777L1428.41 939.898C1427.78 937.976 1425.96 936.675 1423.92 936.675H1418.73C1414.16 936.675 1412.26 930.893 1415.95 928.237L1420.15 925.221C1421.81 924.033 1422.5 921.928 1421.87 920.006L1420.26 915.127C1418.85 910.83 1423.83 907.256 1427.53 909.912L1431.73 912.928C1433.38 914.115 1435.62 914.115 1437.27 912.928L1441.47 909.912C1445.17 907.256 1450.15 910.83 1448.74 915.127L1447.13 920.006C1446.5 921.928 1447.19 924.033 1448.85 925.221L1453.05 928.237C1456.74 930.893 1454.84 936.675 1450.27 936.675H1445.08C1443.04 936.675 1441.22 937.976 1440.59 939.898L1438.99 944.777Z" fill="#3D3D3D"/>
<path d="M1438.99 727.223C1437.58 722.926 1431.42 722.926 1430.01 727.223L1428.41 732.102C1427.78 734.024 1425.96 735.325 1423.92 735.325H1418.73C1414.16 735.325 1412.26 741.107 1415.95 743.763L1420.15 746.779C1421.81 747.967 1422.5 750.072 1421.87 751.994L1420.26 756.873C1418.85 761.17 1423.83 764.744 1427.53 762.088L1431.73 759.072C1433.38 757.885 1435.62 757.885 1437.27 759.072L1441.47 762.088C1445.17 764.744 1450.15 761.17 1448.74 756.873L1447.13 751.994C1446.5 750.072 1447.19 747.967 1448.85 746.779L1453.05 743.763C1456.74 741.107 1454.84 735.325 1450.27 735.325H1445.08C1443.04 735.325 1441.22 734.024 1440.59 732.102L1438.99 727.223Z" fill="#3D3D3D"/>
<rect x="615" y="740" width="41" height="192" fill="#3D3D3D"/>
<path d="M639.988 944.777C638.576 949.074 632.424 949.074 631.012 944.777L629.408 939.898C628.776 937.976 626.964 936.675 624.919 936.675H619.728C615.157 936.675 613.256 930.893 616.954 928.237L621.154 925.221C622.808 924.033 623.5 921.928 622.868 920.006L621.264 915.127C619.852 910.83 624.828 907.256 628.527 909.912L632.726 912.928C634.38 914.115 636.62 914.115 638.274 912.928L642.473 909.912C646.172 907.256 651.148 910.83 649.736 915.127L648.132 920.006C647.5 921.928 648.192 924.033 649.846 925.221L654.046 928.237C657.744 930.893 655.843 936.675 651.272 936.675H646.081C644.036 936.675 642.224 937.976 641.592 939.898L639.988 944.777Z" fill="#3D3D3D"/>
<path d="M639.988 727.223C638.576 722.926 632.424 722.926 631.012 727.223L629.408 732.102C628.776 734.024 626.964 735.325 624.919 735.325H619.728C615.157 735.325 613.256 741.107 616.954 743.763L621.154 746.779C622.808 747.967 623.5 750.072 622.868 751.994L621.264 756.873C619.852 761.17 624.828 764.744 628.527 762.088L632.726 759.072C634.38 757.885 636.62 757.885 638.274 759.072L642.473 762.088C646.172 764.744 651.148 761.17 649.736 756.873L648.132 751.994C647.5 750.072 648.192 747.967 649.846 746.779L654.046 743.763C657.744 741.107 655.843 735.325 651.272 735.325H646.081C644.036 735.325 642.224 734.024 641.592 732.102L639.988 727.223Z" fill="#3D3D3D"/>
<rect x="1414" y="1006" width="41" height="192" fill="#3D3D3D"/>
<path d="M1438.99 1210.78C1437.58 1215.07 1431.42 1215.07 1430.01 1210.78L1428.41 1205.9C1427.78 1203.98 1425.96 1202.67 1423.92 1202.67H1418.73C1414.16 1202.67 1412.26 1196.89 1415.95 1194.24L1420.15 1191.22C1421.81 1190.03 1422.5 1187.93 1421.87 1186.01L1420.26 1181.13C1418.85 1176.83 1423.83 1173.26 1427.53 1175.91L1431.73 1178.93C1433.38 1180.12 1435.62 1180.12 1437.27 1178.93L1441.47 1175.91C1445.17 1173.26 1450.15 1176.83 1448.74 1181.13L1447.13 1186.01C1446.5 1187.93 1447.19 1190.03 1448.85 1191.22L1453.05 1194.24C1456.74 1196.89 1454.84 1202.67 1450.27 1202.67H1445.08C1443.04 1202.67 1441.22 1203.98 1440.59 1205.9L1438.99 1210.78Z" fill="#3D3D3D"/>
<path d="M1438.99 993.223C1437.58 988.926 1431.42 988.926 1430.01 993.223L1428.41 998.102C1427.78 1000.02 1425.96 1001.33 1423.92 1001.33H1418.73C1414.16 1001.33 1412.26 1007.11 1415.95 1009.76L1420.15 1012.78C1421.81 1013.97 1422.5 1016.07 1421.87 1017.99L1420.26 1022.87C1418.85 1027.17 1423.83 1030.74 1427.53 1028.09L1431.73 1025.07C1433.38 1023.88 1435.62 1023.88 1437.27 1025.07L1441.47 1028.09C1445.17 1030.74 1450.15 1027.17 1448.74 1022.87L1447.13 1017.99C1446.5 1016.07 1447.19 1013.97 1448.85 1012.78L1453.05 1009.76C1456.74 1007.11 1454.84 1001.33 1450.27 1001.33H1445.08C1443.04 1001.33 1441.22 1000.02 1440.59 998.102L1438.99 993.223Z" fill="#3D3D3D"/>
<rect x="615" y="1006" width="41" height="192" fill="#3D3D3D"/>
<path d="M639.988 1210.78C638.576 1215.07 632.424 1215.07 631.012 1210.78L629.408 1205.9C628.776 1203.98 626.964 1202.67 624.919 1202.67H619.728C615.157 1202.67 613.256 1196.89 616.954 1194.24L621.154 1191.22C622.808 1190.03 623.5 1187.93 622.868 1186.01L621.264 1181.13C619.852 1176.83 624.828 1173.26 628.527 1175.91L632.726 1178.93C634.38 1180.12 636.62 1180.12 638.274 1178.93L642.473 1175.91C646.172 1173.26 651.148 1176.83 649.736 1181.13L648.132 1186.01C647.5 1187.93 648.192 1190.03 649.846 1191.22L654.046 1194.24C657.744 1196.89 655.843 1202.67 651.272 1202.67H646.081C644.036 1202.67 642.224 1203.98 641.592 1205.9L639.988 1210.78Z" fill="#3D3D3D"/>
<path d="M639.988 993.223C638.576 988.926 632.424 988.926 631.012 993.223L629.408 998.102C628.776 1000.02 626.964 1001.33 624.919 1001.33H619.728C615.157 1001.33 613.256 1007.11 616.954 1009.76L621.154 1012.78C622.808 1013.97 623.5 1016.07 622.868 1017.99L621.264 1022.87C619.852 1027.17 624.828 1030.74 628.527 1028.09L632.726 1025.07C634.38 1023.88 636.62 1023.88 638.274 1025.07L642.473 1028.09C646.172 1030.74 651.148 1027.17 649.736 1022.87L648.132 1017.99C647.5 1016.07 648.192 1013.97 649.846 1012.78L654.046 1009.76C657.744 1007.11 655.843 1001.33 651.272 1001.33H646.081C644.036 1001.33 642.224 1000.02 641.592 998.102L639.988 993.223Z" fill="#3D3D3D"/>
</g>
<defs>
<clipPath id="clip0_28_4414">
<rect width="1728" height="1255" fill="white"/>
</clipPath>
</defs>
</svg>
