<svg width="1728" height="1255" viewBox="0 0 1728 1255" fill="none" xmlns="http://www.w3.org/2000/svg">
<g clip-path="url(#clip0_28_4414)">
<rect x="922" y="156" width="792" height="150" fill="#3D3D3D"/>
<rect width="1136" height="150" transform="matrix(-1 0 0 1 1085 263)" fill="black"/>
<rect width="1136" height="150" transform="matrix(-1 0 0 1 1577 433)" fill="#848484"/>
<rect width="792" height="150" transform="matrix(1 0 0 -1 922 1093)" fill="black"/>
<rect x="1684" y="1255" width="1100" height="142" transform="rotate(180 1684 1255)" fill="#3D3D3D"/>
<rect x="1331" y="923" width="1136" height="150" transform="rotate(180 1331 923)" fill="#3D3D3D"/>
<rect x="1670" y="753" width="1340" height="150" transform="rotate(180 1670 753)" fill="black"/>
<path d="M97.0684 1090L533.667 1165.04L527.599 1200.34L91.0005 1125.3L97.0684 1090Z" fill="black"/>
<path d="M437 766.117L472.583 762L520.05 1172.27L484.468 1176.39L437 766.117Z" fill="black"/>
<path d="M87 518L523.599 593.038L413.075 1236.11L-23.5238 1161.07L87 518Z" fill="#848484" stroke="#3D3D3D" stroke-width="40"/>
<path d="M131.034 610.624C134.344 611.202 136.77 612.538 138.313 614.634C139.856 616.73 140.346 619.394 139.783 622.625C139.013 627.039 136.74 630.764 132.962 633.8C129.191 636.797 125.139 637.917 120.804 637.162C117.612 636.605 115.192 635.351 113.542 633.399C111.933 631.453 111.399 628.924 111.942 625.811C112.766 621.082 115.012 617.17 118.678 614.073C122.344 610.977 126.463 609.827 131.034 610.624ZM117.438 628.17C117.122 629.983 117.164 631.492 117.562 632.699C117.945 634.227 119.063 635.153 120.915 635.476C122.925 635.826 124.969 635.046 127.048 633.134C129.128 631.223 130.815 629 132.109 626.464C133.411 623.89 134.244 621.558 134.608 619.47C135.102 616.632 134.654 614.545 133.264 613.206C132.767 612.794 132.105 612.516 131.277 612.372C129.149 612.001 127.03 612.748 124.918 614.613C122.846 616.485 121.166 618.669 119.878 621.165C118.629 623.668 117.816 626.003 117.438 628.17ZM160.334 615.733C162.343 616.083 164.047 616.908 165.445 618.207C166.842 619.507 167.376 621.102 167.046 622.994C166.875 623.979 166.451 624.778 165.776 625.391C165.107 625.965 164.3 626.169 163.354 626.004C162.566 625.867 161.98 625.501 161.597 624.906C161.174 624.304 161.028 623.629 161.158 622.881C161.302 622.053 161.679 621.408 162.287 620.946C162.903 620.444 163.638 620.186 164.493 620.173C164.115 618.848 163.059 618.035 161.325 617.733C159.197 617.362 157.111 618.033 155.066 619.748C153.06 621.469 151.467 623.505 150.285 625.857C149.104 628.209 148.324 630.469 147.946 632.636C147.616 634.528 147.779 636.16 148.433 637.533C149.093 638.866 150.33 639.691 152.143 640.007C153.916 640.316 155.662 639.849 157.381 638.606C159.14 637.369 160.499 635.86 161.459 634.079L162.525 635.3C161.344 637.652 159.499 639.503 156.99 640.852C154.527 642.168 152.015 642.603 149.453 642.157C146.695 641.676 144.675 640.451 143.395 638.481C142.121 636.473 141.721 634.109 142.195 631.39C142.71 628.435 143.776 625.697 145.393 623.177C147.017 620.618 149.152 618.615 151.8 617.168C154.494 615.689 157.339 615.211 160.334 615.733ZM186.275 620.256C189.585 620.833 192.011 622.169 193.554 624.265C195.097 626.362 195.587 629.025 195.024 632.257C194.254 636.67 191.981 640.395 188.203 643.431C184.432 646.428 180.379 647.549 176.045 646.793C172.853 646.236 170.432 644.982 168.783 643.03C167.173 641.084 166.64 638.555 167.183 635.442C168.007 630.713 170.253 626.801 173.919 623.705C177.585 620.608 181.704 619.459 186.275 620.256ZM172.679 637.801C172.363 639.614 172.405 641.123 172.803 642.33C173.186 643.858 174.304 644.784 176.156 645.107C178.166 645.457 180.21 644.677 182.289 642.766C184.369 640.854 186.055 638.631 187.35 636.096C188.652 633.521 189.485 631.189 189.849 629.101C190.343 626.264 189.895 624.176 188.505 622.837C188.008 622.425 187.346 622.148 186.518 622.003C184.39 621.632 182.271 622.379 180.159 624.244C178.087 626.116 176.406 628.3 175.119 630.796C173.87 633.299 173.057 635.634 172.679 637.801ZM198.13 640.533C198.858 636.356 200.969 631.933 204.463 627.264C207.996 622.601 211.702 619.512 215.58 617.995C217.217 617.225 219.791 616.781 223.304 616.662C225.06 616.603 226.06 616.574 226.303 616.576C227.205 616.53 227.925 616.473 228.465 616.405C229.584 616.275 230.474 615.943 231.136 615.409C231.797 614.874 232.514 614.025 233.285 612.86L234.501 613.925C233.072 617.695 231.44 620.07 229.604 621.049C227.769 622.029 224.79 622.464 220.667 622.354C220.338 622.378 219.907 622.404 219.374 622.433C218.848 622.423 218.546 622.41 218.467 622.397C211.903 622.552 206.76 626.081 203.039 632.984C206.72 627.941 211.319 625.901 216.836 626.863C219.831 627.385 222.058 628.585 223.517 630.464C225.015 632.349 225.507 634.77 224.991 637.725C224.524 640.405 223.331 642.937 221.413 645.323C219.541 647.677 217.213 649.504 214.428 650.805C211.689 652.073 208.96 652.471 206.242 651.997C203.168 651.461 200.912 650.194 199.473 648.198C198.042 646.162 197.594 643.607 198.13 640.533ZM216.262 628.407C214.41 628.084 212.487 628.866 210.494 630.751C208.507 632.598 206.893 634.752 205.651 637.216C204.41 639.679 203.617 641.896 203.274 643.866C202.896 646.033 203.065 647.626 203.781 648.644C204.378 649.642 205.308 650.25 206.569 650.47C207.672 650.663 208.808 650.434 209.977 649.785C211.192 649.104 212.287 648.178 213.263 647.008C214.277 645.845 215.151 644.678 215.883 643.506C216.655 642.342 217.274 641.232 217.743 640.176C218.665 638.145 219.285 636.223 219.601 634.41C219.869 632.873 219.734 631.55 219.196 630.441C218.698 629.339 217.72 628.661 216.262 628.407ZM247.768 635.24C247.913 634.413 247.825 633.748 247.507 633.246C247.149 632.737 246.537 632.407 245.67 632.255C243.621 631.898 241.416 633.016 239.055 635.609C236.695 638.202 235.094 640.745 234.254 643.238C235.667 643.281 236.706 643.259 237.371 643.172C239.628 643.038 241.821 642.222 243.949 640.726C246.124 639.197 247.397 637.368 247.768 635.24ZM246.48 630.752C248.371 631.082 249.961 631.745 251.249 632.741C252.544 633.698 253.044 635.023 252.749 636.718C252.453 638.412 251.591 639.865 250.161 641.078C248.732 642.29 247.015 643.169 245.012 643.713C243.055 644.224 241.106 644.575 239.165 644.764C237.27 644.921 235.461 644.93 233.739 644.793C233.348 646.105 233.09 647.116 232.967 647.825C232.637 649.716 232.76 651.342 233.335 652.701C233.91 654.06 235.084 654.894 236.857 655.203C238.788 655.539 240.636 655.07 242.402 653.794C244.213 652.486 245.656 650.849 246.729 648.884L247.785 650.165C246.432 652.568 244.583 654.438 242.239 655.776C239.941 657.08 237.491 657.506 234.89 657.052C231.935 656.537 229.81 655.334 228.516 653.444C227.221 651.553 226.831 649.131 227.347 646.175C228.171 641.446 230.404 637.491 234.044 634.309C237.724 631.134 241.869 629.948 246.48 630.752ZM272.116 635.039L265.169 647.288L274.449 648.906L281.026 637.384L286.641 638.363C285.942 639.581 284.292 642.522 281.693 647.184C281.453 647.63 281.103 648.239 280.643 649.011C280.23 649.751 279.937 650.269 279.764 650.563C279.524 651.009 279.177 651.598 278.724 652.331C278.311 653.071 278.071 653.517 278.004 653.667C277.651 654.296 277.204 655.111 276.664 656.113C276.237 656.932 275.994 657.397 275.934 657.509C275.56 658.256 275.318 658.944 275.208 659.575C275.009 660.718 275.461 661.385 276.564 661.577C278.692 661.948 280.926 660.084 283.264 655.985C283.825 654.865 284.166 654.072 284.288 653.606L285.483 654.788C282.223 661.61 278.406 664.639 274.032 663.877C273.007 663.698 272.223 663.419 271.68 663.04C270.615 662.164 270.047 661.111 269.978 659.881C269.903 659.381 269.92 658.815 270.03 658.185C270.181 657.318 270.48 656.416 270.928 655.479C271.376 654.542 272.106 653.146 273.12 651.293L273.58 650.399L264.3 648.781L257.762 660.431L252.146 659.452L265.261 636.28L259.705 635.311L260.515 633.808L272.116 635.039ZM307.212 641.158L300.265 653.407L309.545 655.025L316.122 643.503L321.737 644.482C321.037 645.7 319.388 648.64 316.788 653.303C316.548 653.749 316.198 654.358 315.739 655.13C315.326 655.87 315.032 656.388 314.859 656.682C314.619 657.128 314.273 657.717 313.82 658.45C313.407 659.19 313.167 659.635 313.1 659.786C312.747 660.415 312.3 661.23 311.76 662.232C311.333 663.051 311.089 663.516 311.029 663.628C310.655 664.374 310.414 665.063 310.304 665.694C310.104 666.836 310.556 667.504 311.66 667.696C313.788 668.067 316.021 666.203 318.36 662.104C318.921 660.984 319.262 660.191 319.384 659.725L320.578 660.907C317.318 667.729 313.501 670.758 309.127 669.996C308.103 669.817 307.319 669.538 306.776 669.159C305.711 668.283 305.143 667.23 305.073 666C304.998 665.499 305.016 664.934 305.125 664.304C305.277 663.437 305.576 662.535 306.024 661.598C306.471 660.661 307.202 659.265 308.215 657.412L308.676 656.518L299.396 654.9L292.857 666.55L287.242 665.571L300.357 642.399L294.801 641.43L295.611 639.927L307.212 641.158ZM343.281 647.629C346.591 648.206 349.018 649.543 350.561 651.639C352.104 653.735 352.594 656.399 352.03 659.63C351.261 664.044 348.987 667.769 345.21 670.805C341.439 673.802 337.386 674.922 333.051 674.167C329.86 673.61 327.439 672.356 325.79 670.403C324.18 668.458 323.647 665.929 324.189 662.816C325.014 658.087 327.259 654.175 330.925 651.078C334.592 647.982 338.71 646.832 343.281 647.629ZM329.686 665.175C329.37 666.988 329.411 668.497 329.81 669.704C330.193 671.232 331.311 672.158 333.163 672.481C335.172 672.831 337.217 672.051 339.296 670.139C341.375 668.228 343.062 666.005 344.357 663.469C345.658 660.895 346.491 658.563 346.855 656.475C347.35 653.637 346.902 651.549 345.511 650.211C345.014 649.799 344.352 649.521 343.525 649.377C341.397 649.006 339.277 649.753 337.165 651.618C335.093 653.49 333.413 655.674 332.125 658.17C330.877 660.673 330.064 663.008 329.686 665.175ZM372.581 652.738C374.591 653.088 376.294 653.913 377.692 655.212C379.09 656.512 379.624 658.107 379.294 659.999C379.122 660.984 378.698 661.783 378.023 662.396C377.355 662.97 376.548 663.174 375.602 663.009C374.814 662.872 374.228 662.506 373.844 661.911C373.421 661.309 373.275 660.634 373.406 659.886C373.55 659.058 373.926 658.413 374.535 657.951C375.15 657.449 375.885 657.191 376.74 657.178C376.362 655.853 375.306 655.04 373.572 654.738C371.444 654.367 369.358 655.038 367.313 656.753C365.308 658.474 363.714 660.51 362.533 662.862C361.351 665.214 360.572 667.474 360.194 669.641C359.864 671.533 360.026 673.165 360.68 674.538C361.341 675.871 362.578 676.696 364.39 677.012C366.163 677.321 367.91 676.854 369.629 675.611C371.387 674.374 372.747 672.865 373.707 671.084L374.773 672.305C373.591 674.657 371.746 676.508 369.237 677.857C366.774 679.173 364.262 679.608 361.701 679.162C358.943 678.681 356.923 677.456 355.642 675.486C354.368 673.478 353.968 671.114 354.442 668.395C354.958 665.439 356.024 662.702 357.64 660.182C359.264 657.623 361.4 655.62 364.048 654.173C366.742 652.694 369.586 652.216 372.581 652.738ZM404.374 658.281C405.871 658.542 407.021 659.169 407.822 660.161C408.571 661.225 408.818 662.486 408.564 663.944C408.474 664.457 408.386 664.847 408.298 665.116C408.231 665.267 408.131 665.493 407.997 665.795C407.903 666.103 407.842 666.336 407.815 666.494L408.03 666.653C409.743 664.516 411.481 662.931 413.245 661.898C415.054 660.833 417.102 660.5 419.388 660.898C422.816 661.496 424.245 663.43 423.675 666.701C423.379 668.395 422.502 670.516 421.043 673.063L415.768 682.01C415.394 682.757 415.169 683.347 415.094 683.781C415.011 684.254 415.08 684.672 415.301 685.035C415.561 685.405 415.928 685.632 416.401 685.714C417.859 685.968 419.311 685.206 420.758 683.429C422.212 681.611 423.281 679.788 423.965 677.958L425.17 679.082C421.943 685.949 418.044 688.985 413.473 688.188C412.054 687.941 410.976 687.367 410.24 686.467C409.504 685.567 409.259 684.408 409.506 682.989C409.609 682.398 409.791 681.821 410.052 681.257C410.206 680.838 410.554 680.127 411.094 679.125L415.628 671.632C416.64 670.022 417.29 668.389 417.578 666.734C417.695 666.064 417.624 665.423 417.366 664.809C417.054 664.268 416.445 663.918 415.539 663.76C414.199 663.526 412.629 664.146 410.83 665.619C409.076 667.059 407.588 668.606 406.366 670.261C405.183 671.922 404.168 673.552 403.321 675.151L397.853 684.856L392.237 683.877L400.854 668.691C401.773 667.146 402.363 665.624 402.624 664.127C402.919 662.433 402.24 661.441 400.584 661.153C399.166 660.905 397.523 661.593 395.657 663.217C393.83 664.847 392.318 666.533 391.121 668.273C389.931 669.974 388.859 671.695 387.906 673.437L382.957 682.259L377.342 681.28L390.388 658.157L385.068 657.229L385.947 655.677L396.06 656.709C395.772 658.364 395.105 660.096 394.059 661.903L392.978 663.907L393.194 664.066C396.549 659.495 400.276 657.566 404.374 658.281ZM454.801 667.682L460.416 668.661C459.717 669.879 458.067 672.819 455.467 677.482C455.227 677.927 454.878 678.536 454.418 679.309C454.005 680.049 453.712 680.566 453.538 680.861C453.298 681.306 452.952 681.895 452.499 682.628C452.086 683.368 451.846 683.814 451.779 683.965C451.426 684.593 450.979 685.409 450.439 686.411C449.973 687.223 449.729 687.688 449.709 687.806C449.335 688.553 449.093 689.242 448.983 689.872C448.797 690.936 449.256 691.564 450.36 691.757C451.621 691.976 452.88 691.506 454.138 690.345C455.397 689.183 456.435 687.883 457.255 686.442C457.816 685.322 458.164 684.489 458.3 683.944L459.494 685.127C458.547 687.764 456.952 690.043 454.708 691.967C452.511 693.857 450.151 694.583 447.629 694.143C446.211 693.896 445.123 693.381 444.366 692.6C443.616 691.779 443.357 690.698 443.591 689.358C443.632 689.122 443.747 688.695 443.936 688.079C444.003 687.928 444.077 687.738 444.157 687.508C444.284 687.246 444.358 687.056 444.379 686.938C441.147 690.8 437.758 692.422 434.212 691.804C432.557 691.515 431.283 690.786 430.391 689.615C429.499 688.444 429.193 687.051 429.475 685.436C429.702 684.135 430.152 682.833 430.826 681.53L439.203 666.668L433.883 665.74L434.763 664.188L445.978 665.534L436.483 682.272C435.543 683.935 434.98 685.299 434.795 686.363C434.651 687.191 434.777 687.862 435.174 688.378C435.565 688.933 436.115 689.273 436.824 689.397C438.676 689.72 440.549 688.99 442.443 687.209C444.344 685.389 445.938 683.352 447.224 681.1L454.801 667.682Z" fill="white"/>
<path d="M192.14 700.536L191.81 702.428L187.377 701.655L183.45 724.175L187.883 724.948L187.554 726.84L171.594 724.057L171.924 722.166L176.062 722.887L179.102 705.45L165.649 719.732L165.422 721.032L169.56 721.753L169.23 723.645L153.271 720.862L153.601 718.971L158.034 719.744L161.96 697.224L157.527 696.451L157.857 694.559L173.816 697.342L173.486 699.233L169.349 698.512L166.236 716.362L179.689 702.081L179.988 700.367L175.851 699.645L176.18 697.754L192.14 700.536ZM215.739 724.262L217.121 725.417C215.758 727.412 214.028 728.836 211.93 729.689C209.832 730.541 207.621 730.765 205.296 730.359C201.237 729.652 198.164 727.837 196.074 724.914C193.985 721.992 193.288 718.541 193.982 714.561C194.724 710.305 196.611 707.163 199.645 705.134C202.679 703.105 206.304 702.458 210.52 703.193C212.805 703.591 214.908 704.689 216.828 706.485C218.788 708.289 219.575 710.294 219.19 712.5C218.998 713.604 218.489 714.428 217.662 714.975C216.876 715.528 215.931 715.708 214.827 715.516C213.763 715.33 212.928 714.88 212.322 714.165C211.762 713.418 211.571 712.532 211.75 711.508C211.922 710.522 212.401 709.753 213.188 709.2C213.981 708.608 214.878 708.358 215.876 708.451C214.916 706.741 213.273 705.683 210.948 705.277C209.569 705.037 208.318 705.225 207.196 705.841C206.08 706.418 205.156 707.292 204.424 708.464C203.738 709.603 203.19 710.766 202.78 711.954C202.37 713.141 202.052 714.385 201.825 715.685C201.502 717.537 201.417 719.309 201.568 721C201.766 722.659 202.393 724.189 203.448 725.591C204.503 726.993 205.976 727.859 207.867 728.189C209.404 728.457 210.885 728.228 212.311 727.502C213.744 726.736 214.886 725.657 215.739 724.262ZM229.446 732.195L233.331 709.911L226.948 708.798L223.464 716.9L221.573 716.57L223.418 705.99L251.376 710.864L249.531 721.444L247.64 721.115L247.104 712.312L240.72 711.199L236.835 733.483L241.268 734.256L240.938 736.147L224.683 733.313L225.013 731.422L229.446 732.195ZM269.579 713.49C273.716 714.211 276.945 716.073 279.263 719.076C281.582 722.079 282.391 725.59 281.69 729.609C280.989 733.629 278.997 736.672 275.713 738.738C272.469 740.812 268.837 741.498 264.818 740.798C260.72 740.083 257.495 738.201 255.144 735.152C252.832 732.11 252.023 728.599 252.717 724.619C253.431 720.521 255.404 717.474 258.634 715.479C261.872 713.445 265.52 712.782 269.579 713.49ZM265.088 738.896C266.349 739.116 267.521 738.914 268.605 738.291C269.695 737.628 270.566 736.704 271.22 735.519C271.912 734.34 272.464 733.157 272.874 731.97C273.33 730.75 273.665 729.53 273.878 728.308C274.097 727.047 274.212 725.808 274.221 724.592C274.276 723.343 274.181 722.027 273.935 720.644C273.728 719.268 273.22 718.104 272.412 717.151C271.643 716.205 270.589 715.615 269.249 715.381C267.949 715.154 266.757 715.353 265.674 715.976C264.63 716.606 263.758 717.53 263.059 718.748C262.406 719.933 261.874 721.12 261.464 722.307C261.054 723.494 260.739 724.718 260.519 725.979C260.299 727.24 260.162 728.495 260.106 729.744C260.097 730.961 260.196 732.257 260.403 733.633C260.649 735.016 261.156 736.18 261.925 737.126C262.734 738.079 263.788 738.669 265.088 738.896ZM279.612 758.847L279.942 756.955L284.375 757.728L291.001 719.722L286.568 718.949L286.898 717.057L291.39 717.84L298.864 718.291L297.802 724.379C300.012 720.785 303.383 719.383 307.915 720.173C311.816 720.854 314.578 722.594 316.201 725.394C317.824 728.195 318.299 731.526 317.626 735.387C316.939 739.328 315.212 742.478 312.446 744.838C309.719 747.205 306.464 748.059 302.681 747.399C298.622 746.691 296.037 744.515 294.927 740.87L291.763 759.016L296.492 759.841L296.162 761.732L279.612 758.847ZM296.761 730.349L295.854 735.55C295.504 737.56 295.815 739.502 296.788 741.377C297.767 743.213 299.202 744.295 301.094 744.625C302.355 744.845 303.527 744.643 304.61 744.02C305.693 743.397 306.561 742.493 307.215 741.307C307.907 740.129 308.455 738.965 308.858 737.818C309.261 736.67 309.566 735.505 309.772 734.323C309.985 733.101 310.089 731.921 310.085 730.784C310.126 729.614 310.033 728.4 309.806 727.142C309.586 725.845 309.064 724.759 308.242 723.885C307.46 723.017 306.418 722.47 305.118 722.244C303.029 721.88 301.202 722.576 299.637 724.333C298.118 726.058 297.16 728.063 296.761 730.349ZM358.266 729.5L357.937 731.392L353.504 730.619L349.577 753.139L354.01 753.912L353.68 755.803L337.721 753.021L338.051 751.13L342.189 751.851L345.229 734.414L331.776 748.696L331.549 749.996L335.687 750.717L335.357 752.609L319.398 749.826L319.727 747.935L324.161 748.708L328.087 726.187L323.654 725.415L323.984 723.523L339.943 726.306L339.613 728.197L335.475 727.476L332.363 745.326L345.816 731.045L346.115 729.331L341.977 728.609L342.307 726.718L358.266 729.5ZM392.513 735.471L392.183 737.363L387.75 736.59L383.824 759.11L388.257 759.883L387.927 761.774L371.673 758.94L372.002 757.049L376.435 757.822L378.187 747.773L375.468 747.299C372.946 746.86 371.242 747.902 370.355 750.428L368.855 754.49C368.014 756.983 366.235 757.992 363.516 757.518L356.068 756.22L356.398 754.328L358.466 754.689C359.412 754.854 360.133 754.797 360.628 754.518C361.11 754.317 361.508 753.778 361.824 752.899L363.002 749.633C364.097 746.616 366.944 745.306 371.544 745.702L371.586 745.465C369.274 744.981 367.351 744.138 365.814 742.936C364.324 741.702 363.761 740.041 364.125 737.952C364.428 736.218 365.269 734.883 366.651 733.946C368.072 733.017 369.565 732.485 371.131 732.352C372.737 732.226 374.387 732.311 376.081 732.606L392.513 735.471ZM380.362 735.301L377.938 734.879C376.244 734.584 374.861 734.83 373.79 735.617C372.726 736.366 372.046 737.587 371.75 739.282C371.469 740.897 371.698 742.257 372.44 743.361C373.181 744.464 374.36 745.157 375.975 745.439L378.517 745.882L380.362 735.301Z" fill="white"/>
<path d="M205.526 782.179L205.248 783.775L200.815 783.002L196.786 806.114L201.219 806.886L200.94 808.482L186.459 805.958L186.737 804.362L191.17 805.135L192.974 794.791L189.368 794.162C188.028 793.928 187.008 794.075 186.307 794.603C185.613 795.091 185.008 796 184.491 797.331L182.791 801.846C181.965 804.017 180.134 804.855 177.297 804.36L171.8 803.402L172.078 801.806L173.911 802.125C174.856 802.29 175.62 802.22 176.201 801.916C176.742 801.604 177.154 801.107 177.435 800.425L178.863 796.776C179.619 795 180.532 793.84 181.602 793.295C182.71 792.758 184.247 792.559 186.213 792.698L186.254 792.462C184.193 791.94 182.457 791.069 181.045 789.848C179.68 788.595 179.166 787.003 179.503 785.072C179.942 782.55 181.267 780.893 183.476 780.101C185.685 779.309 188.149 779.149 190.868 779.623L205.526 782.179ZM195.2 782.023L192.185 781.498C190.018 781.12 188.405 781.407 187.345 782.359C186.307 783.193 185.643 784.438 185.354 786.093C184.709 789.797 186.297 791.982 190.119 792.648L193.252 793.195L195.2 782.023ZM210.817 792.298L209.221 792.02L210.767 783.154L212.362 783.432L212.608 786.216C214.602 784.33 217.312 783.686 220.741 784.284C221.568 784.428 222.516 784.695 223.585 785.084C225.585 785.961 226.95 787.214 227.681 788.843C228.023 789.675 228.091 790.681 227.885 791.863C227.541 793.834 226.584 795.25 225.012 796.113C223.487 796.943 221.656 797.315 219.52 797.226L219.478 797.463C221.658 798.005 223.489 798.913 224.972 800.187C226.495 801.467 227.084 803.093 226.741 805.063C226.411 806.954 225.542 808.447 224.133 809.542C222.731 810.596 221.177 811.239 219.472 811.47C217.814 811.668 216.039 811.602 214.147 811.272C211.901 810.881 209.934 810.051 208.247 808.782C206.6 807.52 205.954 805.865 206.312 803.816C206.463 802.949 206.862 802.287 207.51 801.832C208.204 801.344 208.985 801.175 209.852 801.327C210.758 801.485 211.403 801.861 211.786 802.456C212.124 803.083 212.224 803.791 212.086 804.579C211.963 805.288 211.679 805.868 211.235 806.318C210.751 806.762 210.174 807.047 209.502 807.174C210.348 808.377 211.756 809.15 213.726 809.494C215.657 809.83 217.231 809.536 218.448 808.611C219.672 807.647 220.452 806.2 220.789 804.269C221.428 800.604 219.757 798.425 215.777 797.731L214.122 797.442L214.411 795.787L216.48 796.148C217.898 796.395 219.098 796.036 220.078 795.07C221.098 794.111 221.735 792.903 221.989 791.445C222.573 788.095 221.388 786.163 218.432 785.647C216.659 785.338 215.123 785.882 213.823 787.28C212.531 788.638 211.529 790.311 210.817 792.298ZM270.031 795.07L266.002 818.181L270.14 818.903L269.861 820.499L255.675 818.025L255.954 816.429L260.387 817.202L264.416 794.091L259.983 793.318L260.261 791.722L274.447 794.195L274.169 795.791L270.031 795.07ZM248.912 789.743L248.634 791.339L244.201 790.566L242.428 800.733C243.941 800.672 245.663 800.81 247.594 801.147C254.254 802.308 257.178 805.213 256.368 809.863C255.921 812.424 254.648 814.253 252.549 815.349C250.456 816.405 248.109 816.706 245.509 816.253L229.845 813.522L230.123 811.926L234.556 812.699L238.586 789.587L234.153 788.815L234.431 787.219L248.912 789.743ZM242.15 802.329L240.172 813.678L243.955 814.337C247.54 814.963 249.698 813.187 250.426 809.01C250.728 807.276 250.515 805.818 249.788 804.635C249.007 803.524 247.749 802.818 246.016 802.516C244.833 802.31 243.545 802.247 242.15 802.329ZM288.345 798.263L286.604 808.252L289.086 808.685C290.426 808.919 291.495 808.841 292.294 808.453C293.092 808.064 293.881 807.268 294.659 806.063C294.932 805.664 295.268 805.134 295.667 804.473C296.113 803.779 296.396 803.321 296.516 803.098C296.983 802.286 297.356 801.661 297.635 801.223C297.914 800.784 298.299 800.323 298.79 799.84C299.287 799.318 299.832 798.987 300.425 798.846C301.024 798.667 301.718 798.646 302.506 798.783C303.492 798.955 304.271 799.375 304.845 800.043C305.333 800.737 305.487 801.597 305.309 802.621C305.158 803.488 304.751 804.189 304.09 804.723C303.474 805.225 302.733 805.4 301.866 805.249C301.078 805.112 300.466 804.782 300.029 804.259C299.592 803.736 299.439 803.1 299.57 802.352C299.666 801.8 299.976 801.184 300.501 800.504C300.244 800.581 300.013 800.744 299.807 800.992C299.594 801.28 299.275 801.712 298.85 802.287L296.055 806.794C295.503 807.631 294.965 808.269 294.442 808.705C293.926 809.103 293.227 809.387 292.345 809.558L292.304 809.794C297.15 810.639 299.505 812.735 299.369 816.081C299.387 816.206 299.382 816.469 299.353 816.87C299.363 817.278 299.374 817.564 299.386 817.729C299.365 817.847 299.331 818.044 299.283 818.32C299.281 818.563 299.29 818.747 299.308 818.872L299.331 819.79L299.323 820.885C299.445 822.977 300.59 824.212 302.758 824.59L304.294 824.858L304.016 826.453L299.228 825.619C296.825 825.2 295.295 824.425 294.639 823.296C294.03 822.134 293.797 820.327 293.94 817.875C293.946 816.212 293.938 814.972 293.918 814.156C293.907 813.058 293.686 812.228 293.256 811.666C292.78 811.136 291.852 810.751 290.473 810.51L286.336 809.789L284.316 821.374L288.749 822.147L288.471 823.743L273.989 821.218L274.267 819.622L278.701 820.395L282.73 797.284L278.297 796.511L278.575 794.915L293.057 797.44L292.778 799.036L288.345 798.263ZM343.756 806.279L343.478 807.875L339.045 807.102L335.015 830.214L339.448 830.987L339.17 832.582L324.984 830.109L325.262 828.513L329.4 829.235L332.594 810.911L317.856 825.578L317.578 827.174L321.716 827.895L321.437 829.491L307.251 827.018L307.53 825.422L311.963 826.195L315.992 803.083L311.559 802.31L311.837 800.714L326.023 803.188L325.745 804.784L321.608 804.062L318.341 822.8L333.079 808.133L333.429 806.123L329.292 805.402L329.57 803.806L343.756 806.279Z" fill="white"/>
<path d="M133.365 862.532C135.808 862.958 137.747 863.601 139.18 864.46L140.458 857.13C140.726 855.593 140.58 854.451 140.02 853.704C139.46 852.957 138.412 852.449 136.875 852.181C135.89 852.009 134.943 851.966 134.035 852.052C133.074 852.209 132.263 852.433 131.603 852.724C132.482 853.04 133.166 853.544 133.654 854.239C134.142 854.933 134.307 855.733 134.149 856.639C133.956 857.743 133.467 858.571 132.68 859.124C131.894 859.677 130.929 859.854 129.786 859.655C128.564 859.442 127.723 858.909 127.263 858.058C126.749 857.278 126.585 856.356 126.771 855.292C127.039 853.755 127.873 852.581 129.273 851.769C130.719 850.925 132.222 850.456 133.781 850.363C135.347 850.23 136.899 850.297 138.436 850.565C141.194 851.046 143.521 852.02 145.418 853.488C147.36 854.923 148.118 856.862 147.692 859.305L145.044 874.496C144.748 876.19 145.231 877.147 146.492 877.367C147.083 877.47 147.673 877.35 148.26 877.006C148.763 876.687 149.189 876.335 149.541 875.95L150.28 877.297C148.391 879.282 146.009 880.024 143.132 879.522C141.595 879.254 140.382 878.759 139.493 878.035C138.486 877.291 137.852 876.389 137.59 875.328C134.855 877.044 131.891 877.623 128.699 877.067C126.335 876.655 124.494 875.684 123.177 874.155C121.9 872.633 121.464 870.71 121.869 868.385C122.329 865.744 123.651 863.985 125.834 863.107C128.057 862.236 130.567 862.044 133.365 862.532ZM129.677 869.015C129.388 870.67 129.605 871.987 130.328 872.966C131.004 873.977 131.953 874.589 133.175 874.802C134.16 874.974 135.002 874.917 135.701 874.633C136.565 874.337 137.182 874.059 137.552 873.799L138.871 866.233C138.029 865.477 136.937 864.982 135.598 864.749C134.021 864.474 132.698 864.73 131.626 865.518C130.601 866.273 129.952 867.439 129.677 869.015ZM156.163 881.794C154.705 881.54 153.572 880.936 152.764 879.983C151.962 878.991 151.685 877.785 151.932 876.367C152.138 875.185 152.638 874.297 153.432 873.705C154.272 873.08 155.283 872.87 156.465 873.076C157.568 873.269 158.403 873.719 158.97 874.427C159.444 875.2 159.599 876.059 159.434 877.005C159.283 877.872 158.943 878.543 158.413 879.019C157.844 879.489 157.273 879.734 156.701 879.756C157.554 879.986 158.327 879.979 159.019 879.734C160.807 879.031 162.336 876.313 163.608 871.581C163.973 870.183 164.384 868.529 164.838 866.619C165.123 865.45 165.341 864.554 165.49 863.931C165.545 863.615 165.62 863.182 165.717 862.63C165.859 862.046 165.974 861.619 166.062 861.35C166.116 861.035 166.195 860.582 166.299 859.991C166.448 859.367 166.57 858.901 166.664 858.593L161.517 857.026L161.836 855.193L187.726 859.707L187.396 861.599L182.963 860.826L179.036 883.346L183.47 884.119L183.14 886.01L166.885 883.176L167.215 881.285L171.648 882.058L175.574 859.537L168.777 858.352C168.6 859.134 168.342 860.266 168.002 861.75C167.703 862.997 167.476 863.952 167.32 864.615C166.782 866.998 166.175 869.43 165.499 871.911C164.853 873.991 164.492 875.126 164.418 875.316C164.043 876.306 163.721 877.103 163.454 877.706C162.553 879.376 161.535 880.559 160.399 881.254C159.309 881.916 157.897 882.096 156.163 881.794ZM199.444 904.81L199.774 902.919L204.207 903.691L207.278 886.077C204.786 888.728 201.766 889.745 198.22 889.127C194.476 888.474 191.833 886.633 190.291 883.603C188.748 880.573 188.31 877.147 188.976 873.324C189.615 869.66 191.232 866.673 193.827 864.364C196.462 862.063 199.533 861.217 203.04 861.829C206.783 862.482 209.268 864.417 210.493 867.635L213.472 850.553L209.038 849.78L209.368 847.889L213.801 848.662L221.324 849.181L217.882 868.924C219.927 866.275 222.9 865.292 226.801 865.972C230.506 866.617 233.162 868.38 234.772 871.259C236.42 874.145 236.922 877.44 236.276 881.145C235.617 884.927 233.956 888.049 231.294 890.508C228.632 892.967 225.488 893.881 221.863 893.249C220.247 892.967 218.759 892.302 217.399 891.253C216.086 890.171 215.175 888.875 214.667 887.365L211.596 904.98L216.029 905.753L215.699 907.644L199.444 904.81ZM216.82 875.012L215.512 882.518C215.36 883.385 215.354 884.237 215.493 885.073C215.585 885.942 215.832 886.736 216.234 887.456C217.077 889.146 218.306 890.131 219.921 890.413C221.182 890.633 222.334 890.428 223.378 889.798C224.461 889.175 225.33 888.27 225.983 887.085C226.676 885.906 227.224 884.743 227.627 883.595C228.03 882.448 228.334 881.283 228.541 880.1C229.468 874.781 228.7 871.033 226.237 868.858C225.446 868.273 224.637 867.909 223.809 867.764C221.957 867.441 220.407 868.064 219.159 869.633C217.957 871.17 217.178 872.963 216.82 875.012ZM201.431 887.128C202.81 887.369 204.26 886.85 205.782 885.573C207.061 884.293 207.848 882.807 208.144 881.112L209.452 873.605C209.638 872.541 209.666 871.45 209.536 870.331C209.297 868.909 208.787 867.642 208.006 866.532C207.271 865.389 206.293 864.711 205.072 864.498C203.771 864.271 202.603 864.453 201.566 865.043C200.529 865.634 199.684 866.522 199.031 867.708C198.384 868.854 197.882 869.984 197.526 871.1C197.169 872.215 196.88 873.403 196.661 874.664C196.461 875.807 196.354 877.006 196.338 878.262C196.368 879.485 196.513 880.749 196.773 882.053C197.033 883.357 197.547 884.482 198.316 885.428C199.131 886.342 200.17 886.909 201.431 887.128ZM250.081 882.881C252.524 883.307 254.463 883.95 255.896 884.809L257.174 877.479C257.442 875.943 257.296 874.801 256.736 874.053C256.176 873.306 255.128 872.798 253.591 872.53C252.606 872.359 251.659 872.315 250.751 872.401C249.79 872.558 248.979 872.782 248.319 873.073C249.198 873.389 249.882 873.894 250.37 874.588C250.858 875.282 251.023 876.082 250.865 876.988C250.672 878.092 250.183 878.92 249.396 879.473C248.609 880.026 247.645 880.203 246.502 880.004C245.28 879.791 244.439 879.259 243.979 878.407C243.465 877.627 243.301 876.705 243.486 875.641C243.754 874.104 244.589 872.93 245.989 872.119C247.435 871.274 248.938 870.806 250.497 870.712C252.063 870.579 253.615 870.647 255.152 870.914C257.91 871.395 260.237 872.37 262.133 873.837C264.076 875.272 264.834 877.211 264.408 879.654L261.76 894.845C261.464 896.54 261.947 897.497 263.208 897.717C263.799 897.82 264.389 897.699 264.976 897.355C265.479 897.036 265.905 896.684 266.257 896.299L266.996 897.646C265.107 899.631 262.725 900.373 259.848 899.871C258.311 899.603 257.098 899.108 256.209 898.384C255.202 897.64 254.568 896.738 254.306 895.677C251.571 897.393 248.607 897.973 245.415 897.416C243.051 897.004 241.21 896.033 239.893 894.504C238.616 892.982 238.18 891.059 238.585 888.734C239.045 886.094 240.367 884.335 242.55 883.456C244.773 882.585 247.283 882.394 250.081 882.881ZM246.393 889.364C246.104 891.019 246.321 892.336 247.044 893.315C247.72 894.326 248.669 894.938 249.891 895.151C250.876 895.323 251.718 895.267 252.417 894.982C253.281 894.686 253.898 894.408 254.268 894.148L255.587 886.582C254.744 885.826 253.653 885.331 252.313 885.098C250.737 884.823 249.413 885.079 248.342 885.867C247.317 886.622 246.667 887.788 246.393 889.364ZM289.844 890.423L289.803 890.66C291.982 891.202 293.837 892.094 295.366 893.335C296.935 894.583 297.548 896.192 297.204 898.162C296.943 899.66 296.326 900.872 295.352 901.798C294.386 902.685 293.188 903.268 291.758 903.547C290.336 903.786 288.954 903.911 287.613 903.92C286.317 903.898 284.98 903.766 283.601 903.525L268.292 900.856L268.622 898.965L273.055 899.738L276.981 877.218L272.548 876.445L272.878 874.553L287.359 877.078C295.595 878.514 299.356 881.281 298.641 885.379C298.298 887.349 297.285 888.736 295.602 889.539C293.926 890.302 292.006 890.597 289.844 890.423ZM287.03 878.969L284.37 878.506L282.659 888.318L285.555 888.823C288.55 889.345 290.353 887.852 290.965 884.345C291.494 881.311 290.182 879.519 287.03 878.969ZM282.329 890.209L280.443 901.026L282.985 901.469C284.798 901.785 286.259 901.553 287.37 900.772C288.487 899.952 289.204 898.635 289.52 896.823C290.125 893.355 288.654 891.312 285.107 890.694L282.329 890.209ZM338.908 886.065L338.579 887.957L334.145 887.184L330.219 909.704L334.652 910.477L334.322 912.369L318.363 909.586L318.693 907.695L322.83 908.416L325.871 890.979L312.418 905.261L312.191 906.561L316.329 907.283L315.999 909.174L300.04 906.392L300.369 904.5L304.802 905.273L308.729 882.753L304.296 881.98L304.625 880.088L320.585 882.871L320.255 884.762L316.117 884.041L313.005 901.892L326.458 887.61L326.757 885.896L322.619 885.174L322.949 883.283L338.908 886.065ZM348.566 912.903L352.451 890.619L346.067 889.506L342.584 897.608L340.692 897.279L342.537 886.698L370.495 891.573L368.651 902.153L366.759 901.823L366.223 893.02L359.839 891.907L355.954 914.191L360.387 914.964L360.058 916.856L343.803 914.022L344.133 912.13L348.566 912.903Z" fill="white"/>
<path d="M78.6731 921.031L71.726 933.28L81.006 934.898L87.5827 923.376L93.198 924.355C92.4984 925.573 90.8488 928.514 88.2493 933.176C88.0093 933.622 87.6595 934.231 87.1999 935.003C86.7867 935.743 86.4935 936.261 86.3203 936.555C86.0802 937.001 85.7339 937.59 85.2812 938.323C84.868 939.063 84.6279 939.508 84.561 939.659C84.2078 940.288 83.7611 941.103 83.221 942.105C82.794 942.924 82.5505 943.389 82.4905 943.501C82.1166 944.248 81.8748 944.936 81.7648 945.567C81.5656 946.709 82.0176 947.377 83.121 947.569C85.2489 947.94 87.4823 946.076 89.8211 941.977C90.3819 940.857 90.7232 940.064 90.845 939.598L92.0396 940.78C88.7795 947.602 84.9625 950.631 80.5885 949.869C79.5639 949.69 78.7802 949.411 78.2372 949.032C77.1718 948.156 76.6042 947.103 76.5345 945.873C76.4593 945.373 76.4767 944.807 76.5866 944.177C76.7378 943.31 77.0371 942.408 77.4847 941.471C77.9323 940.534 78.6628 939.138 79.6763 937.285L80.1367 936.391L70.8567 934.773L64.3185 946.423L58.7032 945.444L71.818 922.272L66.2618 921.303L67.0721 919.8L78.6731 921.031ZM103.974 950.84C105.669 951.135 107.539 950.304 109.586 948.346C111.679 946.356 113.272 944.32 114.366 942.237L115.367 940.34C115.628 939.777 115.946 939 116.321 938.01C116.604 937.085 116.825 936.169 116.983 935.263C117.491 932.347 116.623 930.693 114.376 930.301C112.524 929.978 110.589 930.717 108.57 932.517C106.557 934.277 104.894 936.363 103.581 938.773C102.307 941.19 101.498 943.384 101.155 945.354C100.921 946.694 101.017 947.888 101.443 948.937C101.87 949.986 102.713 950.62 103.974 950.84ZM125.973 929.46L127.23 930.289L116.944 948.411C116.298 949.557 115.916 950.465 115.799 951.135C115.593 952.317 116.081 953.011 117.263 953.217C118.209 953.382 119.218 952.949 120.291 951.918C121.371 950.848 122.231 949.759 122.871 948.653C123.556 947.514 124.107 946.452 124.522 945.469L125.717 946.652C124.974 948.35 124.098 949.882 123.088 951.249C122.078 952.616 120.758 953.786 119.126 954.76C117.541 955.702 115.901 956.025 114.206 955.73C113.064 955.531 112.153 955.047 111.475 954.279C110.711 953.537 110.456 952.437 110.71 950.979C110.896 949.915 111.248 948.941 111.768 948.057C110.275 949.867 108.545 951.291 106.577 952.329C104.61 953.366 102.582 953.703 100.493 953.339C98.4047 952.975 96.9265 951.905 96.0585 950.13C95.23 948.361 95.0047 946.393 95.3825 944.226C95.8497 941.546 96.8892 938.845 98.5009 936.121C100.159 933.365 102.343 931.086 105.052 929.285C107.769 927.444 110.526 926.767 113.324 927.255C115.373 927.612 116.843 928.498 117.733 929.912C118.67 931.293 118.96 933.009 118.602 935.058L125.973 929.46ZM144.847 932.751L139.569 942.063C139.057 942.907 138.746 943.523 138.638 943.91C138.424 944.442 138.286 944.884 138.224 945.239C138.107 945.909 138.258 946.443 138.676 946.84C139.047 947.271 139.568 947.544 140.238 947.661C141.026 947.798 141.829 947.735 142.646 947.472C143.885 947.119 145.063 946.533 146.181 945.713C147.338 944.899 148.232 943.959 148.865 942.892L153.374 934.847L158.989 935.826L149.182 953.301C148.649 954.264 148.345 954.84 148.271 955.03C147.937 955.784 147.735 956.358 147.667 956.752C147.447 958.013 147.928 958.747 149.11 958.953C150.608 959.214 152.146 958.426 153.725 956.59C155.303 954.754 156.373 952.931 156.932 951.12L158.126 952.302C156.994 955.069 155.432 957.395 153.438 959.281C151.452 961.127 149.158 961.824 146.557 961.37C145.533 961.191 144.749 960.913 144.206 960.534C143.637 960.069 143.21 959.609 142.924 959.153C142.599 958.69 142.428 958.153 142.413 957.541C142.338 957.041 142.355 956.476 142.465 955.845C142.589 955.136 142.925 954.139 143.474 952.854C143.742 952.251 144.505 950.78 145.766 948.442L146.735 946.723C143.798 949.134 140.792 950.072 137.718 949.536C136.142 949.261 134.914 948.621 134.034 947.615C133.16 946.569 132.857 945.278 133.125 943.741C133.338 942.52 133.855 941.188 134.674 939.748L138.082 933.825L132.703 932.887L133.514 931.384L144.847 932.751ZM182.124 943.514C182.268 942.686 182.181 942.021 181.862 941.519C181.505 941.01 180.892 940.68 180.025 940.529C177.976 940.171 175.771 941.289 173.411 943.883C171.05 946.476 169.45 949.019 168.609 951.511C170.023 951.555 171.062 951.533 171.727 951.446C173.983 951.311 176.176 950.496 178.305 948.999C180.48 947.47 181.753 945.641 182.124 943.514ZM180.835 939.026C182.727 939.355 184.317 940.018 185.605 941.014C186.9 941.971 187.399 943.296 187.104 944.991C186.809 946.685 185.946 948.139 184.517 949.351C183.087 950.564 181.371 951.442 179.368 951.986C177.411 952.498 175.461 952.848 173.52 953.037C171.625 953.194 169.816 953.204 168.095 953.066C167.703 954.378 167.446 955.389 167.322 956.098C166.992 957.99 167.115 959.615 167.69 960.974C168.265 962.333 169.44 963.167 171.213 963.476C173.144 963.813 174.992 963.343 176.757 962.068C178.569 960.759 180.011 959.123 181.085 957.158L182.141 958.438C180.788 960.842 178.939 962.712 176.594 964.049C174.296 965.354 171.847 965.779 169.246 965.326C166.291 964.811 164.166 963.608 162.871 961.717C161.576 959.827 161.187 957.404 161.702 954.448C162.527 949.72 164.759 945.764 168.4 942.582C172.08 939.407 176.225 938.222 180.835 939.026ZM198.528 967.568C199.946 967.816 201.518 967.298 203.244 966.016C204.977 964.694 206.405 963.257 207.528 961.707C208.697 960.125 209.679 958.57 210.473 957.044C211.454 955.144 212.102 953.288 212.418 951.475C212.892 948.756 212.144 947.225 210.174 946.881C208.322 946.558 206.303 947.425 204.118 949.48C201.932 951.535 200.104 953.754 198.633 956.137L197.704 957.619C196.79 959.368 196.196 961.031 195.921 962.607C195.708 963.829 195.825 964.905 196.272 965.835C196.633 966.792 197.385 967.369 198.528 967.568ZM213.002 944.634C215.169 945.012 216.652 945.94 217.45 947.419C218.287 948.905 218.513 950.751 218.128 952.958C217.661 955.638 216.506 958.42 214.663 961.307C212.827 964.154 210.465 966.523 207.577 968.415C204.689 970.307 201.826 971.006 198.989 970.511C197.255 970.209 196.005 969.463 195.238 968.274C194.477 967.045 194.248 965.564 194.551 963.83C194.599 963.554 194.656 963.341 194.723 963.19C194.771 962.914 194.829 962.701 194.896 962.55L184.08 981.616L188.809 982.44L187.94 983.933L172.867 981.305L173.736 979.812L178.465 980.637L198.956 944.499L193.637 943.572L194.516 942.02L204.452 943.021C204.081 945.149 202.975 947.535 201.133 950.178L201.29 950.327C204.921 945.803 208.825 943.905 213.002 944.634ZM245.045 950.22C246.543 950.481 247.692 951.108 248.493 952.101C249.242 953.165 249.489 954.426 249.235 955.884C249.145 956.396 249.057 956.787 248.969 957.056C248.902 957.207 248.802 957.433 248.668 957.734C248.574 958.043 248.513 958.276 248.486 958.433L248.701 958.593C250.414 956.455 252.152 954.87 253.916 953.838C255.725 952.773 257.773 952.44 260.059 952.838C263.487 953.436 264.916 955.37 264.346 958.641C264.05 960.335 263.173 962.456 261.714 965.003L256.439 973.95C256.065 974.697 255.84 975.287 255.765 975.72C255.682 976.193 255.751 976.611 255.972 976.975C256.233 977.345 256.599 977.571 257.072 977.654C258.53 977.908 259.982 977.146 261.429 975.368C262.883 973.551 263.952 971.727 264.637 969.898L265.841 971.021C262.614 977.889 258.715 980.925 254.144 980.128C252.725 979.88 251.647 979.307 250.911 978.407C250.175 977.507 249.93 976.348 250.177 974.929C250.281 974.338 250.462 973.761 250.723 973.197C250.877 972.777 251.225 972.066 251.765 971.064L256.299 963.572C257.311 961.962 257.961 960.329 258.249 958.674C258.366 958.004 258.295 957.362 258.037 956.749C257.725 956.207 257.116 955.857 256.21 955.699C254.87 955.466 253.3 956.085 251.501 957.558C249.747 958.998 248.259 960.546 247.037 962.201C245.854 963.862 244.839 965.492 243.992 967.09L238.524 976.795L232.908 975.816L241.525 960.63C242.444 959.085 243.034 957.564 243.295 956.067C243.59 954.372 242.911 953.381 241.256 953.092C239.837 952.845 238.194 953.533 236.328 955.156C234.501 956.787 232.989 958.472 231.792 960.213C230.602 961.913 229.53 963.635 228.577 965.377L223.628 974.198L218.013 973.219L231.059 950.096L225.739 949.169L226.618 947.617L236.731 948.649C236.443 950.304 235.776 952.035 234.73 953.842L233.649 955.847L233.865 956.006C237.22 951.434 240.947 949.506 245.045 950.22ZM278.009 981.182C279.704 981.478 281.574 980.647 283.621 978.689C285.714 976.699 287.307 974.662 288.401 972.579L289.402 970.683C289.662 970.119 289.981 969.343 290.356 968.352C290.639 967.427 290.86 966.512 291.018 965.605C291.526 962.689 290.657 961.035 288.411 960.644C286.559 960.321 284.624 961.059 282.604 962.859C280.592 964.62 278.929 966.705 277.616 969.115C276.342 971.533 275.533 973.726 275.189 975.696C274.956 977.036 275.052 978.231 275.478 979.279C275.905 980.328 276.748 980.962 278.009 981.182ZM300.008 959.803L301.264 960.631L290.979 978.754C290.332 979.9 289.951 980.808 289.834 981.478C289.628 982.66 290.116 983.354 291.298 983.56C292.244 983.725 293.253 983.292 294.326 982.261C295.406 981.191 296.266 980.102 296.905 978.995C297.591 977.856 298.142 976.795 298.557 975.812L299.751 976.994C299.009 978.692 298.133 980.224 297.123 981.591C296.113 982.958 294.792 984.129 293.161 985.103C291.576 986.045 289.936 986.368 288.241 986.072C287.098 985.873 286.188 985.39 285.51 984.622C284.746 983.88 284.491 982.779 284.745 981.321C284.931 980.257 285.283 979.284 285.803 978.4C284.31 980.21 282.579 981.634 280.612 982.672C278.645 983.709 276.617 984.046 274.528 983.682C272.44 983.317 270.961 982.248 270.093 980.472C269.265 978.704 269.04 976.736 269.417 974.568C269.885 971.889 270.924 969.187 272.536 966.464C274.194 963.707 276.378 961.429 279.087 959.627C281.804 957.786 284.561 957.11 287.359 957.598C289.408 957.955 290.878 958.841 291.768 960.255C292.705 961.636 292.994 963.351 292.637 965.4L300.008 959.803ZM321.514 963.37L314.567 975.619L323.847 977.237L330.423 965.715L336.039 966.694C335.339 967.912 333.69 970.852 331.09 975.515C330.85 975.961 330.5 976.569 330.041 977.342C329.627 978.082 329.334 978.599 329.161 978.894C328.921 979.339 328.575 979.929 328.122 980.662C327.709 981.402 327.469 981.847 327.402 981.998C327.049 982.627 326.602 983.442 326.062 984.444C325.635 985.263 325.391 985.728 325.331 985.839C324.957 986.586 324.715 987.275 324.606 987.906C324.406 989.048 324.858 989.716 325.962 989.908C328.09 990.279 330.323 988.415 332.662 984.316C333.223 983.196 333.564 982.402 333.686 981.936L334.88 983.119C331.62 989.941 327.803 992.97 323.429 992.207C322.405 992.029 321.621 991.75 321.078 991.371C320.012 990.495 319.445 989.442 319.375 988.212C319.3 987.711 319.317 987.146 319.427 986.515C319.578 985.649 319.878 984.747 320.325 983.809C320.773 982.872 321.504 981.477 322.517 979.624L322.977 978.729L313.697 977.112L307.159 988.762L301.544 987.783L314.659 964.611L309.103 963.642L309.913 962.139L321.514 963.37ZM364.278 971.617L369.893 972.596C369.193 973.814 367.544 976.755 364.944 981.418C364.704 981.863 364.354 982.472 363.895 983.244C363.482 983.984 363.188 984.502 363.015 984.796C362.775 985.242 362.429 985.831 361.976 986.564C361.563 987.304 361.323 987.75 361.256 987.9C360.903 988.529 360.456 989.344 359.916 990.347C359.45 991.159 359.206 991.624 359.185 991.742C358.812 992.489 358.57 993.177 358.46 993.808C358.274 994.872 358.733 995.5 359.837 995.692C361.098 995.912 362.357 995.442 363.615 994.28C364.873 993.119 365.912 991.818 366.732 990.378C367.293 989.257 367.641 988.425 367.776 987.88L368.971 989.063C368.024 991.699 366.429 993.979 364.185 995.902C361.988 997.793 359.628 998.519 357.106 998.079C355.688 997.832 354.6 997.317 353.843 996.535C353.093 995.714 352.834 994.634 353.068 993.294C353.109 993.058 353.224 992.631 353.413 992.014C353.48 991.864 353.554 991.674 353.634 991.444C353.761 991.182 353.835 990.992 353.855 990.873C350.624 994.736 347.235 996.358 343.689 995.74C342.034 995.451 340.76 994.721 339.868 993.551C338.976 992.38 338.67 990.987 338.952 989.371C339.179 988.071 339.629 986.769 340.303 985.465L348.68 970.603L343.36 969.676L344.24 968.124L355.455 969.47L345.959 986.208C345.02 987.871 344.457 989.235 344.272 990.299C344.127 991.126 344.254 991.798 344.651 992.314C345.042 992.869 345.592 993.209 346.301 993.332C348.153 993.655 350.026 992.926 351.92 991.145C353.821 989.325 355.414 987.288 356.7 985.035L364.278 971.617ZM389.37 991.584L389.63 991.142L386.852 990.658C385.433 990.41 384.423 990.498 383.821 990.921C383.095 991.363 382.359 992.209 381.613 993.459L379.416 996.974C377.434 999.958 374.907 1001.18 371.833 1000.65C369.626 1000.26 368.328 998.858 367.938 996.435L369.229 995.32C369.225 996.741 369.755 997.543 370.819 997.729C372.041 997.942 373.247 997.076 374.439 995.132L375.925 992.894C376.417 992.168 376.855 991.635 377.239 991.296C378.585 989.866 380.816 989.179 383.933 989.235L384.033 989.009C382.385 988.681 380.986 987.97 379.837 986.877C378.734 985.75 378.32 984.399 378.595 982.823C379.055 980.183 380.736 978.344 383.637 977.307C386.538 976.27 389.427 976.002 392.304 976.504L402.884 978.348C402.185 979.566 400.535 982.507 397.936 987.17C397.696 987.615 397.346 988.224 396.886 988.996C396.473 989.736 396.18 990.254 396.007 990.548C395.766 990.994 395.42 991.583 394.967 992.316C394.554 993.056 394.314 993.502 394.247 993.652C393.894 994.281 393.447 995.096 392.907 996.099C392.48 996.917 392.237 997.382 392.177 997.494C391.803 998.241 391.561 998.929 391.451 999.56C391.252 1000.7 391.704 1001.37 392.807 1001.56C394.935 1001.93 397.169 1000.07 399.507 995.97C400.068 994.85 400.409 994.057 400.531 993.591L401.726 994.774C398.466 1001.59 394.649 1004.62 390.275 1003.86C387.122 1003.31 385.828 1001.42 386.391 998.19C386.501 997.56 386.764 996.753 387.179 995.77C387.594 994.786 388.324 993.391 389.37 991.584ZM390.44 989.639L396.518 978.883L393.208 978.306C391.08 977.935 389.137 978.367 387.378 979.604C385.627 980.801 384.569 982.443 384.205 984.532C383.751 987.133 385.022 988.694 388.017 989.216L390.44 989.639Z" fill="white"/>
<path d="M123.454 1009.9L123.784 1008.01L147.25 1012.1L145.488 1022.2L143.596 1021.87L142.783 1013.27L135.276 1011.96L131.35 1034.48L136.078 1035.3L135.748 1037.19L119.198 1034.31L119.528 1032.42L123.961 1033.19L127.887 1010.67L123.454 1009.9ZM148.722 1039.94C147.264 1039.69 146.13 1039.09 145.322 1038.13C144.521 1037.14 144.244 1035.94 144.491 1034.52C144.697 1033.33 145.197 1032.45 145.99 1031.85C146.83 1031.23 147.841 1031.02 149.023 1031.23C150.127 1031.42 150.962 1031.87 151.529 1032.58C152.003 1033.35 152.158 1034.21 151.993 1035.15C151.842 1036.02 151.501 1036.69 150.972 1037.17C150.403 1037.64 149.832 1037.88 149.26 1037.91C150.113 1038.14 150.885 1038.13 151.578 1037.88C153.365 1037.18 154.895 1034.46 156.166 1029.73C156.532 1028.33 156.942 1026.68 157.397 1024.77C157.682 1023.6 157.899 1022.7 158.048 1022.08C158.103 1021.77 158.179 1021.33 158.275 1020.78C158.418 1020.2 158.532 1019.77 158.62 1019.5C158.675 1019.18 158.754 1018.73 158.857 1018.14C159.006 1017.52 159.128 1017.05 159.223 1016.74L154.075 1015.18L154.395 1013.34L180.284 1017.86L179.954 1019.75L175.521 1018.98L171.595 1041.5L176.028 1042.27L175.698 1044.16L159.443 1041.33L159.773 1039.43L164.206 1040.21L168.133 1017.69L161.335 1016.5C161.158 1017.28 160.9 1018.42 160.56 1019.9C160.262 1021.15 160.034 1022.1 159.878 1022.76C159.341 1025.15 158.734 1027.58 158.058 1030.06C157.411 1032.14 157.051 1033.28 156.977 1033.47C156.601 1034.46 156.28 1035.25 156.012 1035.86C155.112 1037.53 154.094 1038.71 152.957 1039.4C151.867 1040.07 150.455 1040.25 148.722 1039.94ZM218.676 1024.55L218.346 1026.44L213.913 1025.67L209.987 1048.19L214.42 1048.96L214.09 1050.85L198.131 1048.07L198.461 1046.18L202.598 1046.9L205.638 1029.46L192.185 1043.75L191.959 1045.05L196.096 1045.77L195.766 1047.66L179.807 1044.88L180.137 1042.98L184.57 1043.76L188.497 1021.24L184.063 1020.46L184.393 1018.57L200.352 1021.36L200.023 1023.25L195.885 1022.53L192.773 1040.38L206.226 1026.09L206.525 1024.38L202.387 1023.66L202.717 1021.77L218.676 1024.55ZM230.446 1069.66L230.776 1067.77L235.209 1068.54L238.28 1050.93C235.788 1053.58 232.768 1054.6 229.222 1053.98C225.478 1053.33 222.835 1051.48 221.293 1048.45C219.75 1045.42 219.312 1042 219.978 1038.18C220.617 1034.51 222.234 1031.53 224.829 1029.22C227.464 1026.91 230.535 1026.07 234.042 1026.68C237.785 1027.33 240.27 1029.27 241.495 1032.49L244.474 1015.41L240.04 1014.63L240.37 1012.74L244.803 1013.51L252.326 1014.03L248.884 1033.78C250.929 1031.13 253.902 1030.14 257.803 1030.82C261.507 1031.47 264.164 1033.23 265.774 1036.11C267.422 1039 267.924 1042.29 267.278 1046C266.619 1049.78 264.958 1052.9 262.296 1055.36C259.634 1057.82 256.49 1058.73 252.865 1058.1C251.249 1057.82 249.761 1057.15 248.401 1056.1C247.088 1055.02 246.177 1053.73 245.669 1052.22L242.597 1069.83L247.031 1070.6L246.701 1072.5L230.446 1069.66ZM247.822 1039.86L246.514 1047.37C246.362 1048.24 246.356 1049.09 246.494 1049.93C246.587 1050.79 246.834 1051.59 247.236 1052.31C248.079 1054 249.307 1054.98 250.923 1055.27C252.184 1055.49 253.336 1055.28 254.38 1054.65C255.463 1054.03 256.332 1053.12 256.985 1051.94C257.678 1050.76 258.225 1049.6 258.629 1048.45C259.032 1047.3 259.336 1046.13 259.542 1044.95C260.47 1039.63 259.702 1035.89 257.239 1033.71C256.448 1033.13 255.639 1032.76 254.811 1032.62C252.959 1032.29 251.409 1032.92 250.161 1034.49C248.959 1036.02 248.18 1037.81 247.822 1039.86ZM232.433 1051.98C233.812 1052.22 235.262 1051.7 236.784 1050.42C238.063 1049.15 238.85 1047.66 239.146 1045.96L240.454 1038.46C240.64 1037.39 240.668 1036.3 240.538 1035.18C240.299 1033.76 239.789 1032.49 239.008 1031.38C238.273 1030.24 237.295 1029.56 236.074 1029.35C234.773 1029.12 233.605 1029.3 232.568 1029.9C231.531 1030.49 230.686 1031.37 230.032 1032.56C229.386 1033.71 228.884 1034.84 228.528 1035.95C228.171 1037.07 227.882 1038.26 227.662 1039.52C227.463 1040.66 227.356 1041.86 227.34 1043.11C227.37 1044.34 227.515 1045.6 227.775 1046.91C228.035 1048.21 228.549 1049.33 229.318 1050.28C230.133 1051.19 231.172 1051.76 232.433 1051.98ZM289.548 1036.91L289.219 1038.8L284.49 1037.97L282.779 1047.79C284.482 1047.8 285.984 1047.92 287.284 1048.14C294.771 1049.45 298.106 1052.45 297.289 1057.14C296.815 1059.86 295.42 1061.68 293.105 1062.62C290.79 1063.56 288.194 1063.77 285.317 1063.27L268.412 1060.32L268.742 1058.43L273.175 1059.21L277.101 1036.69L272.668 1035.91L272.998 1034.02L289.548 1036.91ZM282.46 1049.62L280.563 1060.49L283.342 1060.98C285.036 1061.27 286.406 1060.98 287.452 1060.11C288.537 1059.24 289.227 1057.96 289.522 1056.27C289.818 1054.58 289.641 1053.14 288.992 1051.98C288.343 1050.81 287.171 1050.07 285.477 1049.78C284.492 1049.61 283.486 1049.55 282.46 1049.62ZM312.093 1042.79L308.167 1065.31L312.305 1066.03L311.975 1067.92L296.016 1065.14L296.345 1063.25L300.779 1064.02L304.705 1041.5L300.272 1040.73L300.602 1038.83L316.561 1041.62L316.231 1043.51L312.093 1042.79Z" fill="white"/>
<path d="M134.49 1125.7L132.894 1125.42L132.16 1116.7L104.202 1111.83L104.48 1110.23L108.913 1111.01L112.943 1087.9L108.51 1087.12L108.788 1085.53L122.974 1088L122.696 1089.6L118.558 1088.88L114.529 1111.99L126.055 1114L130.084 1090.88L125.947 1090.16L126.225 1088.57L140.411 1091.04L140.133 1092.64L135.699 1091.86L131.67 1114.98L136.221 1115.77L134.49 1125.7ZM177.765 1097.55L177.486 1099.15L173.053 1098.38L169.024 1121.49L173.457 1122.26L173.179 1123.86L158.993 1121.38L159.271 1119.79L163.408 1120.51L166.603 1102.19L151.865 1116.85L151.587 1118.45L155.724 1119.17L155.446 1120.76L141.26 1118.29L141.538 1116.7L145.971 1117.47L150.001 1094.36L145.568 1093.58L145.846 1091.99L160.032 1094.46L159.754 1096.06L155.616 1095.34L152.349 1114.07L167.087 1099.41L167.438 1097.4L163.3 1096.68L163.579 1095.08L177.765 1097.55ZM189.518 1142.66L189.797 1141.07L194.23 1141.84L197.352 1123.93C195.136 1126.63 192.313 1127.68 188.885 1127.08C185.26 1126.45 182.64 1124.59 181.025 1121.51C179.45 1118.43 178.989 1115.02 179.642 1111.28C180.288 1107.58 181.806 1104.57 184.197 1102.27C186.635 1099.93 189.607 1099.07 193.114 1099.68C196.858 1100.33 199.342 1102.27 200.568 1105.49L203.649 1087.81L199.216 1087.04L199.494 1085.45L203.927 1086.22L209.676 1086.43L206.183 1106.47C208.228 1103.82 211.024 1102.8 214.571 1103.42C218.275 1104.07 220.931 1105.83 222.541 1108.71C224.15 1111.59 224.632 1114.88 223.986 1118.58C223.313 1122.45 221.668 1125.59 219.053 1128.02C216.437 1130.44 213.277 1131.33 209.573 1130.69C207.997 1130.41 206.565 1129.78 205.277 1128.78C204.035 1127.75 203.258 1126.5 202.947 1125.03L199.845 1142.82L204.278 1143.59L204 1145.19L189.518 1142.66ZM205.276 1111.67L203.658 1120.95C203.473 1122.01 203.642 1123.14 204.166 1124.33C204.689 1125.51 205.406 1126.41 206.316 1127.01C206.996 1127.54 207.789 1127.88 208.695 1128.04C210.114 1128.29 211.381 1128.12 212.497 1127.54C213.658 1126.93 214.602 1126.06 215.327 1124.93C216.059 1123.76 216.634 1122.56 217.051 1121.33C217.507 1120.11 217.849 1118.85 218.075 1117.55C218.989 1112.31 218.086 1108.64 215.366 1106.55C214.496 1105.95 213.608 1105.57 212.701 1105.41C210.81 1105.08 209.185 1105.55 207.828 1106.81C206.47 1108.08 205.62 1109.7 205.276 1111.67ZM190.677 1124.84C191.899 1125.05 193.08 1124.91 194.222 1124.42C195.37 1123.89 196.336 1123.12 197.119 1122.12C197.604 1121.44 197.919 1120.68 198.063 1119.85L199.681 1110.57C199.846 1109.63 199.854 1108.65 199.703 1107.65C199.322 1105.88 198.363 1104.39 196.827 1103.19C196.061 1102.69 195.205 1102.36 194.259 1102.2C192.92 1101.96 191.712 1102.14 190.635 1102.72C189.566 1103.27 188.685 1104.13 187.992 1105.31C187.346 1106.45 186.821 1107.6 186.418 1108.75C186.061 1109.86 185.773 1111.05 185.553 1112.31C185.25 1114.04 185.139 1115.73 185.219 1117.37C185.299 1119.01 185.774 1120.59 186.643 1122.12C187.559 1123.62 188.904 1124.53 190.677 1124.84ZM221.827 1148.3L222.105 1146.7L226.538 1147.47L233.267 1108.87L228.834 1108.1L229.113 1106.51L233.605 1107.29L239.305 1107.43L238.213 1113.7C240.483 1109.99 243.864 1108.53 248.356 1109.31C252.218 1109.99 254.862 1111.71 256.288 1114.47C257.761 1117.21 258.157 1120.52 257.477 1124.42C256.824 1128.17 255.163 1131.29 252.494 1133.79C249.832 1136.25 246.708 1137.16 243.122 1136.54C239.064 1135.83 236.489 1133.6 235.4 1129.83L232.153 1148.45L236.882 1149.28L236.604 1150.87L221.827 1148.3ZM237.203 1119.49L236.296 1124.69C235.953 1126.66 236.336 1128.66 237.445 1130.68C238.601 1132.66 240.144 1133.83 242.075 1134.16C243.848 1134.47 245.426 1134.04 246.81 1132.86C248.232 1131.68 249.265 1130.3 249.908 1128.71C250.591 1127.12 251.087 1125.44 251.396 1123.67C251.63 1122.33 251.751 1121.05 251.76 1119.83C251.769 1118.62 251.621 1117.37 251.314 1116.1C251.048 1114.84 250.484 1113.76 249.622 1112.88C248.761 1112 247.621 1111.44 246.202 1111.19C244.074 1110.82 242.138 1111.56 240.395 1113.41C238.659 1115.21 237.595 1117.24 237.203 1119.49ZM300.01 1120.51L295.98 1143.62L300.118 1144.34L299.84 1145.94L285.654 1143.47L285.932 1141.87L290.365 1142.64L294.394 1119.53L289.961 1118.76L290.239 1117.16L304.425 1119.64L304.147 1121.23L300.01 1120.51ZM278.891 1115.18L278.612 1116.78L274.179 1116.01L272.407 1126.17C273.92 1126.11 275.642 1126.25 277.572 1126.59C284.232 1127.75 287.156 1130.65 286.346 1135.3C285.899 1137.87 284.626 1139.69 282.527 1140.79C280.434 1141.85 278.088 1142.15 275.487 1141.69L259.823 1138.96L260.101 1137.37L264.535 1138.14L268.564 1115.03L264.131 1114.26L264.409 1112.66L278.891 1115.18ZM272.128 1127.77L270.15 1139.12L273.933 1139.78C277.519 1140.4 279.676 1138.63 280.404 1134.45C280.706 1132.72 280.494 1131.26 279.766 1130.08C278.985 1128.97 277.728 1128.26 275.994 1127.96C274.812 1127.75 273.523 1127.69 272.128 1127.77Z" fill="white"/>
<rect x="423.621" y="1102" width="23.4286" height="109.714" transform="rotate(9.99137 423.621 1102)" fill="black"/>
<path d="M417.381 1219.72C416.16 1222 412.698 1221.39 412.329 1218.83L411.91 1215.93C411.745 1214.78 410.855 1213.87 409.704 1213.67L406.783 1213.15C404.21 1212.7 403.714 1209.26 406.058 1208.13L408.721 1206.85C409.769 1206.35 410.367 1205.23 410.202 1204.08L409.783 1201.18C409.414 1198.62 412.569 1197.1 414.387 1198.97L416.452 1201.08C417.265 1201.91 418.525 1202.13 419.574 1201.63L422.236 1200.35C424.581 1199.22 427.027 1201.72 425.806 1204L424.42 1206.59C423.874 1207.61 424.054 1208.86 424.867 1209.69L426.932 1211.81C428.75 1213.67 427.107 1216.73 424.534 1216.28L421.613 1215.77C420.462 1215.56 419.314 1216.12 418.768 1217.14L417.381 1219.72Z" fill="black"/>
<path d="M438.95 1097.29C438.581 1094.73 435.119 1094.12 433.898 1096.4L432.512 1098.99C431.966 1100.01 430.817 1100.56 429.666 1100.36L426.745 1099.84C424.172 1099.39 422.529 1102.45 424.348 1104.32L426.412 1106.43C427.225 1107.26 427.406 1108.52 426.86 1109.53L425.473 1112.12C424.252 1114.4 426.698 1116.9 429.043 1115.78L431.705 1114.49C432.754 1113.99 434.014 1114.21 434.828 1115.04L436.892 1117.16C438.71 1119.02 441.865 1117.5 441.496 1114.94L441.077 1112.04C440.912 1110.89 441.51 1109.78 442.559 1109.27L445.221 1107.99C447.566 1106.87 447.069 1103.42 444.497 1102.97L441.575 1102.45C440.425 1102.25 439.534 1101.34 439.369 1100.2L438.95 1097.29Z" fill="black"/>
<rect x="-13.3779" y="1024" width="23.4286" height="109.714" transform="rotate(9.99137 -13.3779 1024)" fill="black"/>
<path d="M1.95095 1019.29C1.58196 1016.73 -1.87969 1016.12 -3.10077 1018.4L-4.48724 1020.99C-5.03333 1022.01 -6.18205 1022.56 -7.33263 1022.36L-10.2539 1021.84C-12.8267 1021.39 -14.4696 1024.45 -12.6515 1026.32L-10.5871 1028.43C-9.77406 1029.26 -9.59329 1030.52 -10.1394 1031.53L-11.5258 1034.12C-12.7469 1036.4 -10.3007 1038.9 -7.95594 1037.78L-5.29362 1036.49C-4.24502 1035.99 -2.98457 1036.21 -2.17149 1037.04L-0.107117 1039.16C1.71099 1041.02 4.86581 1039.5 4.49683 1036.94L4.07786 1034.04C3.91285 1032.89 4.51108 1031.78 5.55968 1031.27L8.222 1029.99C10.5667 1028.87 10.0703 1025.42 7.49749 1024.97L4.57623 1024.45C3.42565 1024.25 2.53493 1023.34 2.36991 1022.2L1.95095 1019.29Z" fill="black"/>
<rect x="450.621" y="941.004" width="23.4286" height="109.714" transform="rotate(9.99137 450.621 941.004)" fill="black"/>
<path d="M444.381 1058.72C443.16 1061 439.698 1060.39 439.329 1057.83L438.91 1054.93C438.745 1053.78 437.855 1052.87 436.704 1052.67L433.783 1052.15C431.21 1051.7 430.714 1048.26 433.058 1047.13L435.721 1045.85C436.769 1045.35 437.367 1044.23 437.202 1043.08L436.783 1040.18C436.414 1037.62 439.569 1036.1 441.387 1037.97L443.452 1040.08C444.265 1040.91 445.525 1041.13 446.574 1040.63L449.236 1039.35C451.581 1038.22 454.027 1040.72 452.806 1043L451.42 1045.59C450.874 1046.61 451.054 1047.86 451.867 1048.69L453.932 1050.81C455.75 1052.67 454.107 1055.73 451.534 1055.28L448.613 1054.77C447.462 1054.56 446.314 1055.12 445.768 1056.14L444.381 1058.72Z" fill="black"/>
<path d="M465.95 936.291C465.581 933.733 462.119 933.123 460.898 935.401L459.512 937.988C458.966 939.007 457.817 939.56 456.666 939.357L453.745 938.842C451.172 938.389 449.529 941.455 451.348 943.316L453.412 945.429C454.225 946.262 454.406 947.515 453.86 948.534L452.473 951.121C451.252 953.399 453.698 955.904 456.043 954.776L458.705 953.495C459.754 952.991 461.014 953.213 461.828 954.045L463.892 956.158C465.71 958.02 468.865 956.502 468.496 953.944L468.077 951.039C467.912 949.895 468.51 948.778 469.559 948.274L472.221 946.993C474.566 945.865 474.069 942.423 471.497 941.97L468.575 941.455C467.425 941.252 466.534 940.34 466.369 939.196L465.95 936.291Z" fill="black"/>
<rect x="13.6221" y="863.004" width="23.4286" height="109.714" transform="rotate(9.99137 13.6221 863.004)" fill="black"/>
<path d="M7.38201 980.722C6.16093 983.001 2.69928 982.391 2.3303 979.832L1.91133 976.927C1.74632 975.783 0.855591 974.871 -0.29499 974.669L-3.21625 974.154C-5.78902 973.701 -6.28549 970.258 -3.94076 969.13L-1.27844 967.85C-0.22984 967.345 0.368391 966.229 0.203376 965.085L-0.215586 962.18C-0.58457 959.622 2.57025 958.104 4.38836 959.965L6.45273 962.079C7.26581 962.911 8.52626 963.133 9.57486 962.629L12.2372 961.348C14.5819 960.22 17.0282 962.724 15.8071 965.003L14.4206 967.59C13.8745 968.609 14.0553 969.862 14.8684 970.694L16.9328 972.808C18.7509 974.669 17.1079 977.735 14.5351 977.281L11.6139 976.767C10.4633 976.564 9.31457 977.117 8.76848 978.135L7.38201 980.722Z" fill="black"/>
<path d="M28.9509 858.291C28.582 855.733 25.1203 855.123 23.8992 857.401L22.5128 859.988C21.9667 861.007 20.8179 861.56 19.6674 861.357L16.7461 860.842C14.1733 860.389 12.5304 863.455 14.3485 865.316L16.4129 867.429C17.2259 868.262 17.4067 869.515 16.8606 870.534L15.4742 873.121C14.2531 875.399 16.6993 877.904 19.0441 876.776L21.7064 875.495C22.755 874.991 24.0154 875.213 24.8285 876.045L26.8929 878.158C28.711 880.02 31.8658 878.502 31.4968 875.944L31.0779 873.039C30.9128 871.895 31.5111 870.778 32.5597 870.274L35.222 868.993C37.5667 867.865 37.0703 864.423 34.4975 863.97L31.5762 863.455C30.4257 863.252 29.5349 862.34 29.3699 861.196L28.9509 858.291Z" fill="black"/>
<rect x="479.621" y="780.004" width="23.4286" height="109.714" transform="rotate(9.99137 479.621 780.004)" fill="black"/>
<path d="M473.381 897.722C472.16 900.001 468.698 899.391 468.329 896.832L467.91 893.927C467.745 892.783 466.855 891.871 465.704 891.669L462.783 891.154C460.21 890.701 459.714 887.258 462.058 886.13L464.721 884.85C465.769 884.345 466.367 883.229 466.202 882.085L465.783 879.18C465.414 876.622 468.569 875.104 470.387 876.965L472.452 879.079C473.265 879.911 474.525 880.133 475.574 879.629L478.236 878.348C480.581 877.22 483.027 879.724 481.806 882.003L480.42 884.59C479.874 885.609 480.054 886.862 480.867 887.694L482.932 889.808C484.75 891.669 483.107 894.735 480.534 894.281L477.613 893.767C476.462 893.564 475.314 894.117 474.768 895.135L473.381 897.722Z" fill="black"/>
<path d="M494.95 775.291C494.581 772.733 491.119 772.123 489.898 774.401L488.512 776.988C487.966 778.007 486.817 778.56 485.666 778.357L482.745 777.842C480.172 777.389 478.529 780.455 480.348 782.316L482.412 784.429C483.225 785.262 483.406 786.515 482.86 787.534L481.473 790.121C480.252 792.399 482.698 794.904 485.043 793.776L487.705 792.495C488.754 791.991 490.014 792.213 490.828 793.045L492.892 795.158C494.71 797.02 497.865 795.502 497.496 792.944L497.077 790.039C496.912 788.895 497.51 787.778 498.559 787.274L501.221 785.993C503.566 784.865 503.069 781.423 500.497 780.97L497.575 780.455C496.425 780.252 495.534 779.34 495.369 778.196L494.95 775.291Z" fill="black"/>
<rect x="42.6221" y="702.004" width="23.4286" height="109.714" transform="rotate(9.99137 42.6221 702.004)" fill="black"/>
<path d="M36.382 819.722C35.1609 822.001 31.6993 821.391 31.3303 818.832L30.9113 815.927C30.7463 814.783 29.8556 813.871 28.705 813.669L25.7838 813.154C23.211 812.701 22.7145 809.258 25.0592 808.13L27.7216 806.85C28.7702 806.345 29.3684 805.229 29.2034 804.085L28.7844 801.18C28.4154 798.622 31.5702 797.104 33.3884 798.965L35.4527 801.079C36.2658 801.911 37.5263 802.133 38.5749 801.629L41.2372 800.348C43.5819 799.22 46.0282 801.724 44.8071 804.003L43.4206 806.59C42.8745 807.609 43.0553 808.862 43.8684 809.694L45.9328 811.808C47.7509 813.669 46.1079 816.735 43.5351 816.281L40.6139 815.767C39.4633 815.564 38.3146 816.117 37.7685 817.135L36.382 819.722Z" fill="black"/>
<path d="M57.9509 697.291C57.582 694.733 54.1203 694.123 52.8992 696.401L51.5128 698.988C50.9667 700.007 49.8179 700.56 48.6674 700.357L45.7461 699.842C43.1733 699.389 41.5304 702.455 43.3485 704.316L45.4129 706.429C46.2259 707.262 46.4067 708.515 45.8606 709.534L44.4742 712.121C43.2531 714.399 45.6993 716.904 48.0441 715.776L50.7064 714.495C51.755 713.991 53.0154 714.213 53.8285 715.045L55.8929 717.158C57.711 719.02 60.8658 717.502 60.4968 714.944L60.0779 712.039C59.9128 710.895 60.5111 709.778 61.5597 709.274L64.222 707.993C66.5667 706.865 66.0703 703.423 63.4975 702.97L60.5762 702.455C59.4257 702.252 58.5349 701.34 58.3699 700.196L57.9509 697.291Z" fill="black"/>
<rect x="507.621" y="619.004" width="23.4286" height="109.714" transform="rotate(9.99137 507.621 619.004)" fill="black"/>
<path d="M501.381 736.722C500.16 739.001 496.698 738.391 496.329 735.832L495.91 732.927C495.745 731.783 494.855 730.871 493.704 730.669L490.783 730.154C488.21 729.701 487.714 726.258 490.058 725.13L492.721 723.85C493.769 723.345 494.367 722.229 494.202 721.085L493.783 718.18C493.414 715.622 496.569 714.104 498.387 715.965L500.452 718.079C501.265 718.911 502.525 719.133 503.574 718.629L506.236 717.348C508.581 716.22 511.027 718.724 509.806 721.003L508.42 723.59C507.874 724.609 508.054 725.862 508.867 726.694L510.932 728.808C512.75 730.669 511.107 733.735 508.534 733.281L505.613 732.767C504.462 732.564 503.314 733.117 502.768 734.135L501.381 736.722Z" fill="black"/>
<path d="M522.95 614.291C522.581 611.733 519.119 611.123 517.898 613.401L516.512 615.988C515.966 617.007 514.817 617.56 513.666 617.357L510.745 616.842C508.172 616.389 506.529 619.455 508.348 621.316L510.412 623.429C511.225 624.262 511.406 625.515 510.86 626.534L509.473 629.121C508.252 631.399 510.698 633.904 513.043 632.776L515.705 631.495C516.754 630.991 518.014 631.213 518.828 632.045L520.892 634.158C522.71 636.02 525.865 634.502 525.496 631.944L525.077 629.039C524.912 627.895 525.51 626.778 526.559 626.274L529.221 624.993C531.566 623.865 531.069 620.423 528.497 619.97L525.575 619.455C524.425 619.252 523.534 618.34 523.369 617.196L522.95 614.291Z" fill="black"/>
<rect x="70.6221" y="541.004" width="23.4286" height="109.714" transform="rotate(9.99137 70.6221 541.004)" fill="black"/>
<path d="M64.382 658.722C63.1609 661.001 59.6993 660.391 59.3303 657.832L58.9113 654.927C58.7463 653.783 57.8556 652.871 56.705 652.669L53.7838 652.154C51.211 651.701 50.7145 648.258 53.0592 647.13L55.7216 645.85C56.7702 645.345 57.3684 644.229 57.2034 643.085L56.7844 640.18C56.4154 637.622 59.5702 636.104 61.3884 637.965L63.4527 640.079C64.2658 640.911 65.5263 641.133 66.5749 640.629L69.2372 639.348C71.5819 638.22 74.0282 640.724 72.8071 643.003L71.4206 645.59C70.8745 646.609 71.0553 647.862 71.8684 648.694L73.9328 650.808C75.7509 652.669 74.1079 655.735 71.5351 655.281L68.6139 654.767C67.4633 654.564 66.3146 655.117 65.7685 656.135L64.382 658.722Z" fill="black"/>
<path d="M85.9509 536.291C85.582 533.733 82.1203 533.123 80.8992 535.401L79.5128 537.988C78.9667 539.007 77.8179 539.56 76.6674 539.357L73.7461 538.842C71.1733 538.389 69.5304 541.455 71.3485 543.316L73.4129 545.429C74.2259 546.262 74.4067 547.515 73.8606 548.534L72.4742 551.121C71.2531 553.399 73.6993 555.904 76.0441 554.776L78.7064 553.495C79.755 552.991 81.0154 553.213 81.8285 554.045L83.8929 556.158C85.711 558.02 88.8658 556.502 88.4968 553.944L88.0779 551.039C87.9128 549.895 88.5111 548.778 89.5597 548.274L92.222 546.993C94.5667 545.865 94.0703 542.423 91.4975 541.97L88.5762 541.455C87.4257 541.252 86.5349 540.34 86.3699 539.196L85.9509 536.291Z" fill="black"/>
<path d="M684 100.25H1385V1260H684V100.25Z" fill="black"/>
<rect x="1385" width="100" height="1260" fill="#848484"/>
<rect x="584" width="100" height="1260" fill="#848484"/>
<rect width="100" height="901" transform="matrix(0 -1 -1 0 1485 100)" fill="#848484"/>
<path d="M684 0L534 0L584 150H684V0Z" fill="#3D3D3D"/>
<rect x="1123" y="70" width="41" height="192" transform="rotate(-90 1123 70)" fill="#3D3D3D"/>
<path d="M1327.78 45.0117C1332.07 46.4244 1332.07 52.5756 1327.78 53.9883L1322.9 55.5924C1320.98 56.2242 1319.67 58.0362 1319.67 60.0807L1319.67 65.2717C1319.67 69.8433 1313.89 71.7442 1311.24 68.0456L1308.22 63.846C1307.03 62.192 1304.93 61.4999 1303.01 62.1317L1298.13 63.7357C1293.83 65.1485 1290.26 60.1721 1292.91 56.4735L1295.93 52.2739C1297.12 50.6199 1297.12 48.3801 1295.93 46.7261L1292.91 42.5265C1290.26 38.8279 1293.83 33.8515 1298.13 35.2643L1303.01 36.8683C1304.93 37.5001 1307.03 36.808 1308.22 35.154L1311.24 30.9544C1313.89 27.2558 1319.67 29.1566 1319.67 33.7283L1319.67 38.9193C1319.67 40.9638 1320.98 42.7758 1322.9 43.4076L1327.78 45.0117Z" fill="#3D3D3D"/>
<path d="M1110.22 45.0117C1105.93 46.4244 1105.93 52.5756 1110.22 53.9883L1115.1 55.5924C1117.02 56.2242 1118.33 58.0362 1118.33 60.0807L1118.33 65.2717C1118.33 69.8433 1124.11 71.7442 1126.76 68.0456L1129.78 63.846C1130.97 62.192 1133.07 61.4999 1134.99 62.1317L1139.87 63.7357C1144.17 65.1485 1147.74 60.1721 1145.09 56.4735L1142.07 52.2739C1140.88 50.6199 1140.88 48.3801 1142.07 46.7261L1145.09 42.5265C1147.74 38.8279 1144.17 33.8515 1139.87 35.2643L1134.99 36.8683C1133.07 37.5001 1130.97 36.808 1129.78 35.154L1126.76 30.9544C1124.11 27.2558 1118.33 29.1566 1118.33 33.7283L1118.33 38.9193C1118.33 40.9638 1117.02 42.7758 1115.1 43.4076L1110.22 45.0117Z" fill="#3D3D3D"/>
<rect x="754" y="70" width="41" height="192" transform="rotate(-90 754 70)" fill="#3D3D3D"/>
<path d="M958.777 45.0117C963.074 46.4244 963.074 52.5756 958.777 53.9883L953.898 55.5924C951.976 56.2242 950.675 58.0362 950.675 60.0807L950.675 65.2717C950.675 69.8433 944.893 71.7442 942.237 68.0456L939.221 63.846C938.033 62.192 935.928 61.4999 934.006 62.1317L929.127 63.7357C924.83 65.1485 921.256 60.1721 923.912 56.4735L926.928 52.2739C928.115 50.6199 928.115 48.3801 926.928 46.7261L923.912 42.5265C921.256 38.8279 924.83 33.8515 929.127 35.2643L934.006 36.8683C935.928 37.5001 938.033 36.808 939.221 35.154L942.237 30.9544C944.893 27.2558 950.675 29.1566 950.675 33.7283L950.675 38.9193C950.675 40.9638 951.976 42.7758 953.898 43.4076L958.777 45.0117Z" fill="#3D3D3D"/>
<path d="M741.223 45.0117C736.926 46.4244 736.926 52.5756 741.223 53.9883L746.102 55.5924C748.024 56.2242 749.325 58.0362 749.325 60.0807L749.325 65.2717C749.325 69.8433 755.107 71.7442 757.763 68.0456L760.779 63.846C761.967 62.192 764.072 61.4999 765.994 62.1317L770.873 63.7357C775.17 65.1485 778.744 60.1721 776.088 56.4735L773.072 52.2739C771.885 50.6199 771.885 48.3801 773.072 46.7261L776.088 42.5265C778.744 38.8279 775.17 33.8515 770.873 35.2643L765.994 36.8683C764.072 37.5001 761.967 36.808 760.779 35.154L757.763 30.9544C755.107 27.2558 749.325 29.1566 749.325 33.7283L749.325 38.9193C749.325 40.9638 748.024 42.7758 746.102 43.4076L741.223 45.0117Z" fill="#3D3D3D"/>
<rect x="615" y="208" width="41" height="192" fill="#3D3D3D"/>
<path d="M639.988 412.777C638.576 417.074 632.424 417.074 631.012 412.777L629.408 407.898C628.776 405.976 626.964 404.675 624.919 404.675H619.728C615.157 404.675 613.256 398.893 616.954 396.237L621.154 393.221C622.808 392.033 623.5 389.928 622.868 388.006L621.264 383.127C619.852 378.83 624.828 375.256 628.527 377.912L632.726 380.928C634.38 382.115 636.62 382.115 638.274 380.928L642.473 377.912C646.172 375.256 651.148 378.83 649.736 383.127L648.132 388.006C647.5 389.928 648.192 392.033 649.846 393.221L654.046 396.237C657.744 398.893 655.843 404.675 651.272 404.675H646.081C644.036 404.675 642.224 405.976 641.592 407.898L639.988 412.777Z" fill="#3D3D3D"/>
<path d="M639.988 195.223C638.576 190.926 632.424 190.926 631.012 195.223L629.408 200.102C628.776 202.024 626.964 203.325 624.919 203.325H619.728C615.157 203.325 613.256 209.107 616.954 211.763L621.154 214.779C622.808 215.967 623.5 218.072 622.868 219.994L621.264 224.873C619.852 229.17 624.828 232.744 628.527 230.088L632.726 227.072C634.38 225.885 636.62 225.885 638.274 227.072L642.473 230.088C646.172 232.744 651.148 229.17 649.736 224.873L648.132 219.994C647.5 218.072 648.192 215.967 649.846 214.779L654.046 211.763C657.744 209.107 655.843 203.325 651.272 203.325H646.081C644.036 203.325 642.224 202.024 641.592 200.102L639.988 195.223Z" fill="#3D3D3D"/>
<path d="M1385 0L1535 0L1485 150H1385V0Z" fill="#3D3D3D"/>
<rect x="1414" y="208" width="41" height="192" fill="#3D3D3D"/>
<path d="M1438.99 412.777C1437.58 417.074 1431.42 417.074 1430.01 412.777L1428.41 407.898C1427.78 405.976 1425.96 404.675 1423.92 404.675H1418.73C1414.16 404.675 1412.26 398.893 1415.95 396.237L1420.15 393.221C1421.81 392.033 1422.5 389.928 1421.87 388.006L1420.26 383.127C1418.85 378.83 1423.83 375.256 1427.53 377.912L1431.73 380.928C1433.38 382.115 1435.62 382.115 1437.27 380.928L1441.47 377.912C1445.17 375.256 1450.15 378.83 1448.74 383.127L1447.13 388.006C1446.5 389.928 1447.19 392.033 1448.85 393.221L1453.05 396.237C1456.74 398.893 1454.84 404.675 1450.27 404.675H1445.08C1443.04 404.675 1441.22 405.976 1440.59 407.898L1438.99 412.777Z" fill="#3D3D3D"/>
<path d="M1438.99 195.223C1437.58 190.926 1431.42 190.926 1430.01 195.223L1428.41 200.102C1427.78 202.024 1425.96 203.325 1423.92 203.325H1418.73C1414.16 203.325 1412.26 209.107 1415.95 211.763L1420.15 214.779C1421.81 215.967 1422.5 218.072 1421.87 219.994L1420.26 224.873C1418.85 229.17 1423.83 232.744 1427.53 230.088L1431.73 227.072C1433.38 225.885 1435.62 225.885 1437.27 227.072L1441.47 230.088C1445.17 232.744 1450.15 229.17 1448.74 224.873L1447.13 219.994C1446.5 218.072 1447.19 215.967 1448.85 214.779L1453.05 211.763C1456.74 209.107 1454.84 203.325 1450.27 203.325H1445.08C1443.04 203.325 1441.22 202.024 1440.59 200.102L1438.99 195.223Z" fill="#3D3D3D"/>
<rect x="1414" y="474" width="41" height="192" fill="#3D3D3D"/>
<path d="M1438.99 678.777C1437.58 683.074 1431.42 683.074 1430.01 678.777L1428.41 673.898C1427.78 671.976 1425.96 670.675 1423.92 670.675H1418.73C1414.16 670.675 1412.26 664.893 1415.95 662.237L1420.15 659.221C1421.81 658.033 1422.5 655.928 1421.87 654.006L1420.26 649.127C1418.85 644.83 1423.83 641.256 1427.53 643.912L1431.73 646.928C1433.38 648.115 1435.62 648.115 1437.27 646.928L1441.47 643.912C1445.17 641.256 1450.15 644.83 1448.74 649.127L1447.13 654.006C1446.5 655.928 1447.19 658.033 1448.85 659.221L1453.05 662.237C1456.74 664.893 1454.84 670.675 1450.27 670.675H1445.08C1443.04 670.675 1441.22 671.976 1440.59 673.898L1438.99 678.777Z" fill="#3D3D3D"/>
<path d="M1438.99 461.223C1437.58 456.926 1431.42 456.926 1430.01 461.223L1428.41 466.102C1427.78 468.024 1425.96 469.325 1423.92 469.325H1418.73C1414.16 469.325 1412.26 475.107 1415.95 477.763L1420.15 480.779C1421.81 481.967 1422.5 484.072 1421.87 485.994L1420.26 490.873C1418.85 495.17 1423.83 498.744 1427.53 496.088L1431.73 493.072C1433.38 491.885 1435.62 491.885 1437.27 493.072L1441.47 496.088C1445.17 498.744 1450.15 495.17 1448.74 490.873L1447.13 485.994C1446.5 484.072 1447.19 481.967 1448.85 480.779L1453.05 477.763C1456.74 475.107 1454.84 469.325 1450.27 469.325H1445.08C1443.04 469.325 1441.22 468.024 1440.59 466.102L1438.99 461.223Z" fill="#3D3D3D"/>
<rect x="615" y="474" width="41" height="192" fill="#3D3D3D"/>
<path d="M639.988 678.777C638.576 683.074 632.424 683.074 631.012 678.777L629.408 673.898C628.776 671.976 626.964 670.675 624.919 670.675H619.728C615.157 670.675 613.256 664.893 616.954 662.237L621.154 659.221C622.808 658.033 623.5 655.928 622.868 654.006L621.264 649.127C619.852 644.83 624.828 641.256 628.527 643.912L632.726 646.928C634.38 648.115 636.62 648.115 638.274 646.928L642.473 643.912C646.172 641.256 651.148 644.83 649.736 649.127L648.132 654.006C647.5 655.928 648.192 658.033 649.846 659.221L654.046 662.237C657.744 664.893 655.843 670.675 651.272 670.675H646.081C644.036 670.675 642.224 671.976 641.592 673.898L639.988 678.777Z" fill="#3D3D3D"/>
<path d="M639.988 461.223C638.576 456.926 632.424 456.926 631.012 461.223L629.408 466.102C628.776 468.024 626.964 469.325 624.919 469.325H619.728C615.157 469.325 613.256 475.107 616.954 477.763L621.154 480.779C622.808 481.967 623.5 484.072 622.868 485.994L621.264 490.873C619.852 495.17 624.828 498.744 628.527 496.088L632.726 493.072C634.38 491.885 636.62 491.885 638.274 493.072L642.473 496.088C646.172 498.744 651.148 495.17 649.736 490.873L648.132 485.994C647.5 484.072 648.192 481.967 649.846 480.779L654.046 477.763C657.744 475.107 655.843 469.325 651.272 469.325H646.081C644.036 469.325 642.224 468.024 641.592 466.102L639.988 461.223Z" fill="#3D3D3D"/>
<rect x="1414" y="740" width="41" height="192" fill="#3D3D3D"/>
<path d="M1438.99 944.777C1437.58 949.074 1431.42 949.074 1430.01 944.777L1428.41 939.898C1427.78 937.976 1425.96 936.675 1423.92 936.675H1418.73C1414.16 936.675 1412.26 930.893 1415.95 928.237L1420.15 925.221C1421.81 924.033 1422.5 921.928 1421.87 920.006L1420.26 915.127C1418.85 910.83 1423.83 907.256 1427.53 909.912L1431.73 912.928C1433.38 914.115 1435.62 914.115 1437.27 912.928L1441.47 909.912C1445.17 907.256 1450.15 910.83 1448.74 915.127L1447.13 920.006C1446.5 921.928 1447.19 924.033 1448.85 925.221L1453.05 928.237C1456.74 930.893 1454.84 936.675 1450.27 936.675H1445.08C1443.04 936.675 1441.22 937.976 1440.59 939.898L1438.99 944.777Z" fill="#3D3D3D"/>
<path d="M1438.99 727.223C1437.58 722.926 1431.42 722.926 1430.01 727.223L1428.41 732.102C1427.78 734.024 1425.96 735.325 1423.92 735.325H1418.73C1414.16 735.325 1412.26 741.107 1415.95 743.763L1420.15 746.779C1421.81 747.967 1422.5 750.072 1421.87 751.994L1420.26 756.873C1418.85 761.17 1423.83 764.744 1427.53 762.088L1431.73 759.072C1433.38 757.885 1435.62 757.885 1437.27 759.072L1441.47 762.088C1445.17 764.744 1450.15 761.17 1448.74 756.873L1447.13 751.994C1446.5 750.072 1447.19 747.967 1448.85 746.779L1453.05 743.763C1456.74 741.107 1454.84 735.325 1450.27 735.325H1445.08C1443.04 735.325 1441.22 734.024 1440.59 732.102L1438.99 727.223Z" fill="#3D3D3D"/>
<rect x="615" y="740" width="41" height="192" fill="#3D3D3D"/>
<path d="M639.988 944.777C638.576 949.074 632.424 949.074 631.012 944.777L629.408 939.898C628.776 937.976 626.964 936.675 624.919 936.675H619.728C615.157 936.675 613.256 930.893 616.954 928.237L621.154 925.221C622.808 924.033 623.5 921.928 622.868 920.006L621.264 915.127C619.852 910.83 624.828 907.256 628.527 909.912L632.726 912.928C634.38 914.115 636.62 914.115 638.274 912.928L642.473 909.912C646.172 907.256 651.148 910.83 649.736 915.127L648.132 920.006C647.5 921.928 648.192 924.033 649.846 925.221L654.046 928.237C657.744 930.893 655.843 936.675 651.272 936.675H646.081C644.036 936.675 642.224 937.976 641.592 939.898L639.988 944.777Z" fill="#3D3D3D"/>
<path d="M639.988 727.223C638.576 722.926 632.424 722.926 631.012 727.223L629.408 732.102C628.776 734.024 626.964 735.325 624.919 735.325H619.728C615.157 735.325 613.256 741.107 616.954 743.763L621.154 746.779C622.808 747.967 623.5 750.072 622.868 751.994L621.264 756.873C619.852 761.17 624.828 764.744 628.527 762.088L632.726 759.072C634.38 757.885 636.62 757.885 638.274 759.072L642.473 762.088C646.172 764.744 651.148 761.17 649.736 756.873L648.132 751.994C647.5 750.072 648.192 747.967 649.846 746.779L654.046 743.763C657.744 741.107 655.843 735.325 651.272 735.325H646.081C644.036 735.325 642.224 734.024 641.592 732.102L639.988 727.223Z" fill="#3D3D3D"/>
<rect x="1414" y="1006" width="41" height="192" fill="#3D3D3D"/>
<path d="M1438.99 1210.78C1437.58 1215.07 1431.42 1215.07 1430.01 1210.78L1428.41 1205.9C1427.78 1203.98 1425.96 1202.67 1423.92 1202.67H1418.73C1414.16 1202.67 1412.26 1196.89 1415.95 1194.24L1420.15 1191.22C1421.81 1190.03 1422.5 1187.93 1421.87 1186.01L1420.26 1181.13C1418.85 1176.83 1423.83 1173.26 1427.53 1175.91L1431.73 1178.93C1433.38 1180.12 1435.62 1180.12 1437.27 1178.93L1441.47 1175.91C1445.17 1173.26 1450.15 1176.83 1448.74 1181.13L1447.13 1186.01C1446.5 1187.93 1447.19 1190.03 1448.85 1191.22L1453.05 1194.24C1456.74 1196.89 1454.84 1202.67 1450.27 1202.67H1445.08C1443.04 1202.67 1441.22 1203.98 1440.59 1205.9L1438.99 1210.78Z" fill="#3D3D3D"/>
<path d="M1438.99 993.223C1437.58 988.926 1431.42 988.926 1430.01 993.223L1428.41 998.102C1427.78 1000.02 1425.96 1001.33 1423.92 1001.33H1418.73C1414.16 1001.33 1412.26 1007.11 1415.95 1009.76L1420.15 1012.78C1421.81 1013.97 1422.5 1016.07 1421.87 1017.99L1420.26 1022.87C1418.85 1027.17 1423.83 1030.74 1427.53 1028.09L1431.73 1025.07C1433.38 1023.88 1435.62 1023.88 1437.27 1025.07L1441.47 1028.09C1445.17 1030.74 1450.15 1027.17 1448.74 1022.87L1447.13 1017.99C1446.5 1016.07 1447.19 1013.97 1448.85 1012.78L1453.05 1009.76C1456.74 1007.11 1454.84 1001.33 1450.27 1001.33H1445.08C1443.04 1001.33 1441.22 1000.02 1440.59 998.102L1438.99 993.223Z" fill="#3D3D3D"/>
<rect x="615" y="1006" width="41" height="192" fill="#3D3D3D"/>
<path d="M639.988 1210.78C638.576 1215.07 632.424 1215.07 631.012 1210.78L629.408 1205.9C628.776 1203.98 626.964 1202.67 624.919 1202.67H619.728C615.157 1202.67 613.256 1196.89 616.954 1194.24L621.154 1191.22C622.808 1190.03 623.5 1187.93 622.868 1186.01L621.264 1181.13C619.852 1176.83 624.828 1173.26 628.527 1175.91L632.726 1178.93C634.38 1180.12 636.62 1180.12 638.274 1178.93L642.473 1175.91C646.172 1173.26 651.148 1176.83 649.736 1181.13L648.132 1186.01C647.5 1187.93 648.192 1190.03 649.846 1191.22L654.046 1194.24C657.744 1196.89 655.843 1202.67 651.272 1202.67H646.081C644.036 1202.67 642.224 1203.98 641.592 1205.9L639.988 1210.78Z" fill="#3D3D3D"/>
<path d="M639.988 993.223C638.576 988.926 632.424 988.926 631.012 993.223L629.408 998.102C628.776 1000.02 626.964 1001.33 624.919 1001.33H619.728C615.157 1001.33 613.256 1007.11 616.954 1009.76L621.154 1012.78C622.808 1013.97 623.5 1016.07 622.868 1017.99L621.264 1022.87C619.852 1027.17 624.828 1030.74 628.527 1028.09L632.726 1025.07C634.38 1023.88 636.62 1023.88 638.274 1025.07L642.473 1028.09C646.172 1030.74 651.148 1027.17 649.736 1022.87L648.132 1017.99C647.5 1016.07 648.192 1013.97 649.846 1012.78L654.046 1009.76C657.744 1007.11 655.843 1001.33 651.272 1001.33H646.081C644.036 1001.33 642.224 1000.02 641.592 998.102L639.988 993.223Z" fill="#3D3D3D"/>
</g>
<defs>
<clipPath id="clip0_28_4414">
<rect width="1728" height="1255" fill="white"/>
</clipPath>
</defs>
</svg>
