<svg width="1728" height="875" viewBox="0 0 1728 875" fill="none" xmlns="http://www.w3.org/2000/svg">
<g clip-path="url(#clip0_30_6627)">
<rect x="76.9995" width="1479" height="68" fill="#3D3D3D"/>
<rect x="752" y="102" width="870" height="150" fill="black"/>
<rect width="1088" height="150" transform="matrix(-1 0 0 1 1088 252)" fill="#848484"/>
<rect width="942" height="150" transform="matrix(-1 0 0 1 1385 390)" fill="black"/>
<mask id="path-5-outside-1_30_6627" maskUnits="userSpaceOnUse" x="60.0278" y="44.9584" width="1097.36" height="823.762" fill="black">
<rect fill="white" x="60.0278" y="44.9584" width="1097.36" height="823.762"/>
<path fill-rule="evenodd" clip-rule="evenodd" d="M768.905 119.409C759.208 192.034 696.725 245.336 625.863 239.737C555.001 234.138 501.664 171.685 503.493 98.4384C290.592 107.547 128.947 180.988 120.91 282.71C120.489 288.031 120.496 293.342 120.917 298.635L82.6166 767.366L1079.51 846.131L1116.3 372.571C1117 368.911 1117.51 365.212 1117.8 361.475C1125.84 259.753 977.733 161.839 768.905 119.409Z"/>
</mask>
<path fill-rule="evenodd" clip-rule="evenodd" d="M768.905 119.409C759.208 192.034 696.725 245.336 625.863 239.737C555.001 234.138 501.664 171.685 503.493 98.4384C290.592 107.547 128.947 180.988 120.91 282.71C120.489 288.031 120.496 293.342 120.917 298.635L82.6166 767.366L1079.51 846.131L1116.3 372.571C1117 368.911 1117.51 365.212 1117.8 361.475C1125.84 259.753 977.733 161.839 768.905 119.409Z" fill="#848484"/>
<path d="M768.905 119.409L772.887 99.8092L751.913 95.5477L749.081 116.762L768.905 119.409ZM503.493 98.4384L523.486 98.9376L524.021 77.5418L502.638 78.4567L503.493 98.4384ZM120.917 298.635L140.85 300.264L140.981 298.658L140.854 297.051L120.917 298.635ZM82.6166 767.366L62.6831 765.738L61.0499 785.725L81.0413 787.304L82.6166 767.366ZM1079.51 846.131L1077.93 866.069L1097.9 867.647L1099.45 847.68L1079.51 846.131ZM1116.3 372.571L1096.66 368.787L1096.45 369.896L1096.36 371.021L1116.3 372.571ZM749.081 116.762C740.683 179.658 686.914 224.499 627.438 219.799L624.288 259.675C706.535 266.174 777.733 204.409 788.729 122.055L749.081 116.762ZM627.438 219.799C567.962 215.1 521.902 162.372 523.486 98.9376L483.499 97.9391C481.425 180.997 542.04 253.177 624.288 259.675L627.438 219.799ZM502.638 78.4567C394.394 83.0879 297.945 104.087 226.818 137.768C156.662 170.99 105.852 219.372 100.972 281.134L140.847 284.285C144.005 244.325 178.036 205.126 243.937 173.92C308.867 143.173 399.69 122.898 504.348 118.42L502.638 78.4567ZM100.972 281.134C100.467 287.519 100.476 293.886 100.979 300.219L140.854 297.051C140.516 292.798 140.511 288.543 140.847 284.285L100.972 281.134ZM100.983 297.006L62.6831 765.738L102.55 768.995L140.85 300.264L100.983 297.006ZM81.0413 787.304L1077.93 866.069L1081.09 826.194L84.1919 747.428L81.0413 787.304ZM1099.45 847.68L1136.24 374.12L1096.36 371.021L1059.57 844.582L1099.45 847.68ZM1135.94 376.354C1136.78 371.969 1137.39 367.532 1137.74 363.05L1097.86 359.899C1097.63 362.892 1097.23 365.854 1096.66 368.787L1135.94 376.354ZM1137.74 363.05C1142.62 301.288 1100.04 245.527 1035.97 201.7C971.015 157.267 879.06 121.382 772.887 99.8092L764.922 139.008C867.578 159.866 954.09 194.153 1013.39 234.715C1073.57 275.883 1101.02 319.94 1097.86 359.899L1137.74 363.05Z" fill="#3D3D3D" mask="url(#path-5-outside-1_30_6627)"/>
<mask id="path-7-inside-2_30_6627" fill="white">
<path fill-rule="evenodd" clip-rule="evenodd" d="M768.905 119.4C759.213 192.03 696.727 245.336 625.863 239.737C554.971 234.136 501.619 171.633 503.494 98.3473C290.483 107.17 128.537 179.773 120.5 281.5C120.235 284.852 120.14 288.201 120.211 291.544L82.6162 767.366L1079.51 846.131L1116.88 373.203C1117.64 369.346 1118.19 365.445 1118.5 361.5C1126.54 259.77 977.922 161.831 768.905 119.4Z"/>
</mask>
<path d="M768.905 119.4L772.884 99.8002L751.912 95.5428L749.081 116.755L768.905 119.4ZM503.494 98.3473L523.488 98.859L524.035 77.4794L502.667 78.3644L503.494 98.3473ZM120.211 291.544L140.149 293.12L140.228 292.12L140.207 291.117L120.211 291.544ZM82.6162 767.366L62.6783 765.791L61.103 785.729L81.0409 787.304L82.6162 767.366ZM1079.51 846.131L1077.93 866.069L1097.87 867.645L1099.45 847.707L1079.51 846.131ZM1116.88 373.203L1097.26 369.293L1097.03 370.451L1096.94 371.628L1116.88 373.203ZM749.081 116.755C740.687 179.655 686.916 224.499 627.438 219.8L624.287 259.675C706.538 266.174 777.739 204.404 788.73 122.046L749.081 116.755ZM627.438 219.8C567.937 215.098 521.864 162.329 523.488 98.859L483.501 97.8356C481.374 180.938 542.005 253.174 624.287 259.675L627.438 219.8ZM502.667 78.3644C394.391 82.849 297.849 103.556 226.635 136.979C156.399 169.943 105.446 218.107 100.562 279.925L140.437 283.075C143.591 243.166 177.629 204.165 243.629 173.19C308.65 142.674 399.586 122.668 504.322 118.33L502.667 78.3644ZM100.562 279.925C100.244 283.946 100.13 287.963 100.216 291.971L140.207 291.117C140.149 288.438 140.225 285.758 140.437 283.075L100.562 279.925ZM100.273 289.969L62.6783 765.791L102.554 768.942L140.149 293.12L100.273 289.969ZM81.0409 787.304L1077.93 866.069L1081.08 826.194L84.1915 747.429L81.0409 787.304ZM1099.45 847.707L1136.81 374.779L1096.94 371.628L1059.57 844.556L1099.45 847.707ZM1136.49 377.114C1137.41 372.49 1138.06 367.809 1138.44 363.076L1098.56 359.925C1098.31 363.08 1097.88 366.202 1097.26 369.293L1136.49 377.114ZM1138.44 363.076C1143.32 301.28 1100.57 245.511 1036.37 201.694C971.271 157.261 879.148 121.372 772.884 99.8002L764.926 139.001C867.679 159.859 954.372 194.155 1013.82 234.732C1074.18 275.924 1101.72 319.99 1098.56 359.925L1138.44 363.076Z" fill="#3D3D3D" mask="url(#path-7-inside-2_30_6627)"/>
<rect x="292.945" y="-58.8818" width="64.6116" height="302.571" transform="rotate(5 292.945 -58.8818)" fill="black"/>
<path d="M304.049 266.029C301.241 272.581 291.584 271.737 289.957 264.796L288.108 256.916C287.381 253.812 284.715 251.52 281.505 251.24L273.356 250.527C266.179 249.899 263.989 240.56 270.16 236.899L277.167 232.742C279.927 231.104 281.302 227.894 280.575 224.79L278.726 216.91C277.099 209.969 285.402 205.043 290.844 209.72L297.022 215.031C299.456 217.123 302.972 217.431 305.732 215.793L312.739 211.636C318.91 207.975 326.232 214.268 323.424 220.82L320.235 228.26C318.98 231.19 319.777 234.591 322.21 236.682L328.389 241.993C333.831 246.671 330.053 255.487 322.875 254.859L314.726 254.146C311.517 253.865 308.493 255.659 307.237 258.589L304.049 266.029Z" fill="black"/>
<rect x="952.232" y="-1.20166" width="64.6116" height="302.571" transform="rotate(5 952.232 -1.20166)" fill="black"/>
<path d="M963.336 323.709C960.528 330.262 950.871 329.417 949.244 322.476L947.396 314.596C946.668 311.492 944.002 309.201 940.792 308.92L932.643 308.207C925.466 307.579 923.276 298.241 929.447 294.579L936.454 290.422C939.214 288.784 940.59 285.574 939.862 282.47L938.014 274.59C936.386 267.65 944.689 262.723 950.131 267.401L956.31 272.712C958.743 274.803 962.259 275.111 965.019 273.474L972.026 269.316C978.197 265.655 985.519 271.948 982.711 278.5L979.522 285.94C978.267 288.871 979.064 292.271 981.498 294.363L987.676 299.674C993.118 304.351 989.34 313.167 982.163 312.539L974.013 311.826C970.804 311.545 967.78 313.339 966.524 316.27L963.336 323.709Z" fill="black"/>
<path d="M993.217 -17.8279C991.589 -24.7683 981.932 -25.6131 979.124 -19.0608L975.936 -11.621C974.68 -8.69075 971.657 -6.89692 968.447 -7.17773L960.298 -7.8907C953.121 -8.51861 949.343 0.297453 954.784 4.97491L960.963 10.2859C963.396 12.3778 964.194 15.778 962.938 18.7082L959.75 26.1481C956.942 32.7004 964.263 38.9938 970.434 35.3324L977.441 31.1749C980.201 29.5375 983.717 29.8451 986.151 31.9369L992.33 37.2479C997.771 41.9254 1006.07 36.9989 1004.45 30.0586L1002.6 22.1781C1001.87 19.0743 1003.25 15.8642 1006.01 14.2267L1013.01 10.0693C1019.18 6.40785 1016.99 -2.93037 1009.82 -3.55828L1001.67 -4.27125C998.459 -4.55206 995.793 -6.84363 995.065 -9.94746L993.217 -17.8279Z" fill="black"/>
</g>
<defs>
<clipPath id="clip0_30_6627">
<rect width="1728" height="875" fill="white"/>
</clipPath>
</defs>
</svg>
