<svg width="1424" height="334" viewBox="0 0 1424 334" fill="none" xmlns="http://www.w3.org/2000/svg">
<path d="M16.2061 249.846L74.671 263.331L58.465 333.594L-2.76876e-05 320.109L16.2061 249.846Z" fill="black"/>
<path d="M28.2617 197.578L86.7267 211.063L77.2402 252.192L18.7752 238.707L28.2617 197.578Z" fill="black"/>
<path d="M40.9102 142.739L99.3751 156.224L89.8887 197.353L31.4237 183.868L40.9102 142.739Z" fill="black"/>
<path d="M54.1523 85.3291L112.617 98.8141L102.933 140.8L44.4682 127.315L54.1523 85.3291Z" fill="black"/>
<path d="M73.7178 0.5L132.183 13.985L119.534 68.824L61.0691 55.339L73.7178 0.5Z" fill="black"/>
<mask id="path-6-inside-1_46_9851" fill="white">
<path d="M18.7754 238.707L77.2404 252.192L74.6711 263.331L16.2061 249.846L18.7754 238.707Z"/>
</mask>
<path d="M18.7754 238.707L77.2404 252.192L74.6711 263.331L16.2061 249.846L18.7754 238.707Z" fill="black"/>
<path d="M18.4262 240.221L76.8912 253.706L77.5896 250.678L19.1246 237.193L18.4262 240.221Z" fill="#3D3D3D" mask="url(#path-6-inside-1_46_9851)"/>
<mask id="path-8-inside-2_46_9851" fill="white">
<path d="M31.4238 183.868L89.8888 197.353L86.7267 211.063L28.2617 197.578L31.4238 183.868Z"/>
</mask>
<path d="M31.4238 183.868L89.8888 197.353L86.7267 211.063L28.2617 197.578L31.4238 183.868Z" fill="black"/>
<path d="M30.7254 186.896L89.1904 200.381L90.5873 194.325L32.1223 180.84L30.7254 186.896Z" fill="#3D3D3D" mask="url(#path-8-inside-2_46_9851)"/>
<mask id="path-10-outside-3_46_9851" maskUnits="userSpaceOnUse" x="40.279" y="125.014" width="63.1847" height="33.9477" fill="black">
<rect fill="white" x="40.279" y="125.014" width="63.1847" height="33.9477"/>
<path d="M43.875 129.886L102.34 143.371L98.7826 158.794L40.3176 145.309L43.875 129.886Z"/>
</mask>
<path d="M43.875 129.886L102.34 143.371L98.7826 158.794L40.3176 145.309L43.875 129.886Z" fill="black"/>
<path d="M42.8273 134.428L101.292 147.913L103.388 138.828L44.9227 125.343L42.8273 134.428Z" fill="#3D3D3D" mask="url(#path-10-outside-3_46_9851)"/>
<mask id="path-12-outside-4_46_9851" maskUnits="userSpaceOnUse" x="54.1021" y="53.3903" width="65.8817" height="45.6407" fill="black">
<rect fill="white" x="54.1021" y="53.3903" width="65.8817" height="45.6407"/>
<path d="M61.0693 55.3391L119.534 68.8241L112.617 98.8142L54.1521 85.3292L61.0693 55.3391Z"/>
</mask>
<path d="M61.0693 55.3391L119.534 68.8241L112.617 98.8142L54.1521 85.3292L61.0693 55.3391Z" fill="black"/>
<path d="M60.7201 56.8532L119.185 70.3382L119.884 67.31L61.4186 53.825L60.7201 56.8532Z" fill="#3D3D3D" mask="url(#path-12-outside-4_46_9851)"/>
<rect x="74.6177" y="3.27311" width="57" height="324" transform="rotate(12.9882 74.6177 3.27311)" stroke="#3D3D3D" stroke-width="3"/>
<path d="M1111.64 251.248L1170.55 262.628L1156.88 333.426L1097.97 322.046L1111.64 251.248Z" fill="black"/>
<path d="M1121.82 198.581L1180.73 209.961L1172.72 251.404L1113.81 240.024L1121.82 198.581Z" fill="black"/>
<path d="M1132.49 143.324L1191.4 154.704L1183.4 196.147L1124.49 184.767L1132.49 143.324Z" fill="black"/>
<path d="M1143.67 85.4761L1202.58 96.8559L1194.4 139.162L1135.49 127.782L1143.67 85.4761Z" fill="black"/>
<path d="M1160.18 0L1219.09 11.3798L1208.41 66.6371L1149.5 55.2573L1160.18 0Z" fill="black"/>
<mask id="path-20-inside-5_46_9851" fill="white">
<path d="M1113.81 240.024L1172.72 251.404L1170.55 262.628L1111.64 251.248L1113.81 240.024Z"/>
</mask>
<path d="M1113.81 240.024L1172.72 251.404L1170.55 262.628L1111.64 251.248L1113.81 240.024Z" fill="black"/>
<path d="M1113.52 241.55L1172.43 252.929L1173.02 249.878L1114.11 238.498L1113.52 241.55Z" fill="#3D3D3D" mask="url(#path-20-inside-5_46_9851)"/>
<mask id="path-22-inside-6_46_9851" fill="white">
<path d="M1124.49 184.767L1183.4 196.146L1180.73 209.961L1121.82 198.581L1124.49 184.767Z"/>
</mask>
<path d="M1124.49 184.767L1183.4 196.146L1180.73 209.961L1121.82 198.581L1124.49 184.767Z" fill="black"/>
<path d="M1123.9 187.818L1182.81 199.198L1183.99 193.095L1125.07 181.715L1123.9 187.818Z" fill="#3D3D3D" mask="url(#path-22-inside-6_46_9851)"/>
<mask id="path-24-outside-7_46_9851" maskUnits="userSpaceOnUse" x="1131.96" y="125.464" width="62.8939" height="31.9986" fill="black">
<rect fill="white" x="1131.96" y="125.464" width="62.8939" height="31.9986"/>
<path d="M1134.99 130.373L1193.9 141.753L1190.9 157.294L1131.99 145.914L1134.99 130.373Z"/>
</mask>
<path d="M1134.99 130.373L1193.9 141.753L1190.9 157.294L1131.99 145.914L1134.99 130.373Z" fill="black"/>
<path d="M1134.11 134.95L1193.02 146.33L1194.79 137.176L1135.88 125.796L1134.11 134.95Z" fill="#3D3D3D" mask="url(#path-24-outside-7_46_9851)"/>
<mask id="path-26-outside-8_46_9851" maskUnits="userSpaceOnUse" x="1143.62" y="53.2936" width="65.1698" height="43.7808" fill="black">
<rect fill="white" x="1143.62" y="53.2936" width="65.1698" height="43.7808"/>
<path d="M1149.5 55.2573L1208.41 66.6371L1202.58 96.856L1143.67 85.4762L1149.5 55.2573Z"/>
</mask>
<path d="M1149.5 55.2573L1208.41 66.6371L1202.58 96.856L1143.67 85.4762L1149.5 55.2573Z" fill="black"/>
<path d="M1149.21 56.783L1208.12 68.1628L1208.71 65.1115L1149.8 53.7317L1149.21 56.783Z" fill="#3D3D3D" mask="url(#path-26-outside-8_46_9851)"/>
<rect x="1161.18" y="2.7392" width="57" height="324" transform="rotate(10.9331 1161.18 2.7392)" stroke="#3D3D3D" stroke-width="3"/>
<path d="M562.947 263.673L620.903 248.144L639.566 317.794L581.61 333.324L562.947 263.673Z" fill="black"/>
<path d="M549.064 211.86L607.02 196.331L617.945 237.102L559.989 252.631L549.064 211.86Z" fill="black"/>
<path d="M534.498 157.499L592.454 141.97L603.378 182.741L545.423 198.27L534.498 157.499Z" fill="black"/>
<path d="M519.25 100.59L577.206 85.0607L588.358 126.681L530.402 142.21L519.25 100.59Z" fill="black"/>
<path d="M496.718 16.5L554.673 0.970857L569.239 55.332L511.284 70.8612L496.718 16.5Z" fill="black"/>
<mask id="path-34-inside-9_46_9851" fill="white">
<path d="M559.989 252.631L617.945 237.102L620.904 248.144L562.948 263.673L559.989 252.631Z"/>
</mask>
<path d="M559.989 252.631L617.945 237.102L620.904 248.144L562.948 263.673L559.989 252.631Z" fill="black"/>
<path d="M560.391 254.132L618.347 238.603L617.543 235.601L559.587 251.13L560.391 254.132Z" fill="#3D3D3D" mask="url(#path-34-inside-9_46_9851)"/>
<mask id="path-36-inside-10_46_9851" fill="white">
<path d="M545.423 198.27L603.378 182.741L607.02 196.331L549.064 211.861L545.423 198.27Z"/>
</mask>
<path d="M545.423 198.27L603.378 182.741L607.02 196.331L549.064 211.861L545.423 198.27Z" fill="black"/>
<path d="M546.227 201.272L604.183 185.743L602.574 179.739L544.619 195.268L546.227 201.272Z" fill="#3D3D3D" mask="url(#path-36-inside-10_46_9851)"/>
<mask id="path-38-outside-11_46_9851" maskUnits="userSpaceOnUse" x="529.791" y="124.4" width="63.3907" height="35.8136" fill="black">
<rect fill="white" x="529.791" y="124.4" width="63.3907" height="35.8136"/>
<path d="M531.085 144.758L589.041 129.229L593.137 144.518L535.182 160.047L531.085 144.758Z"/>
</mask>
<path d="M531.085 144.758L589.041 129.229L593.137 144.518L535.182 160.047L531.085 144.758Z" fill="black"/>
<path d="M532.291 149.261L590.247 133.732L587.834 124.726L529.878 140.256L532.291 149.261Z" fill="#3D3D3D" mask="url(#path-38-outside-11_46_9851)"/>
<mask id="path-40-outside-12_46_9851" maskUnits="userSpaceOnUse" x="510.767" y="53.4001" width="66.4966" height="47.4047" fill="black">
<rect fill="white" x="510.767" y="53.4001" width="66.4966" height="47.4047"/>
<path d="M511.284 70.8611L569.24 55.3319L577.206 85.0607L519.25 100.59L511.284 70.8611Z"/>
</mask>
<path d="M511.284 70.8611L569.24 55.3319L577.206 85.0607L519.25 100.59L511.284 70.8611Z" fill="black"/>
<path d="M511.686 72.362L569.642 56.8328L568.838 53.831L510.882 69.3602L511.686 72.362Z" fill="#3D3D3D" mask="url(#path-40-outside-12_46_9851)"/>
<rect x="498.814" y="18.5265" width="57" height="324" transform="rotate(-15 498.814 18.5265)" stroke="#3D3D3D" stroke-width="3"/>
<path d="M1285.2 263.173L1343.15 247.644L1361.82 317.294L1303.86 332.824L1285.2 263.173Z" fill="black"/>
<path d="M1271.31 211.36L1329.27 195.831L1340.19 236.602L1282.24 252.131L1271.31 211.36Z" fill="black"/>
<path d="M1256.75 156.999L1314.7 141.47L1325.63 182.241L1267.67 197.77L1256.75 156.999Z" fill="black"/>
<path d="M1241.5 100.09L1299.46 84.5607L1310.61 126.181L1252.65 141.71L1241.5 100.09Z" fill="black"/>
<path d="M1218.97 16L1276.92 0.470857L1291.49 54.832L1233.53 70.3612L1218.97 16Z" fill="black"/>
<mask id="path-48-inside-13_46_9851" fill="white">
<path d="M1282.24 252.131L1340.19 236.602L1343.15 247.644L1285.2 263.173L1282.24 252.131Z"/>
</mask>
<path d="M1282.24 252.131L1340.19 236.602L1343.15 247.644L1285.2 263.173L1282.24 252.131Z" fill="black"/>
<path d="M1282.64 253.632L1340.6 238.103L1339.79 235.101L1281.84 250.63L1282.64 253.632Z" fill="#3D3D3D" mask="url(#path-48-inside-13_46_9851)"/>
<mask id="path-50-inside-14_46_9851" fill="white">
<path d="M1267.67 197.77L1325.63 182.241L1329.27 195.831L1271.31 211.361L1267.67 197.77Z"/>
</mask>
<path d="M1267.67 197.77L1325.63 182.241L1329.27 195.831L1271.31 211.361L1267.67 197.77Z" fill="black"/>
<path d="M1268.48 200.772L1326.43 185.243L1324.82 179.239L1266.87 194.768L1268.48 200.772Z" fill="#3D3D3D" mask="url(#path-50-inside-14_46_9851)"/>
<mask id="path-52-outside-15_46_9851" maskUnits="userSpaceOnUse" x="1252.04" y="123.9" width="63.3907" height="35.8136" fill="black">
<rect fill="white" x="1252.04" y="123.9" width="63.3907" height="35.8136"/>
<path d="M1253.33 144.258L1311.29 128.729L1315.39 144.018L1257.43 159.547L1253.33 144.258Z"/>
</mask>
<path d="M1253.33 144.258L1311.29 128.729L1315.39 144.018L1257.43 159.547L1253.33 144.258Z" fill="black"/>
<path d="M1254.54 148.761L1312.5 133.232L1310.08 124.226L1252.13 139.756L1254.54 148.761Z" fill="#3D3D3D" mask="url(#path-52-outside-15_46_9851)"/>
<mask id="path-54-outside-16_46_9851" maskUnits="userSpaceOnUse" x="1233.02" y="52.9001" width="66.4966" height="47.4047" fill="black">
<rect fill="white" x="1233.02" y="52.9001" width="66.4966" height="47.4047"/>
<path d="M1233.53 70.3611L1291.49 54.8319L1299.46 84.5607L1241.5 100.09L1233.53 70.3611Z"/>
</mask>
<path d="M1233.53 70.3611L1291.49 54.8319L1299.46 84.5607L1241.5 100.09L1233.53 70.3611Z" fill="black"/>
<path d="M1233.94 71.862L1291.89 56.3328L1291.09 53.331L1233.13 68.8602L1233.94 71.862Z" fill="#3D3D3D" mask="url(#path-54-outside-16_46_9851)"/>
<rect x="1221.06" y="18.0265" width="57" height="324" transform="rotate(-15 1221.06 18.0265)" stroke="#3D3D3D" stroke-width="3"/>
<path d="M1346.95 263.673L1404.9 248.144L1423.57 317.794L1365.61 333.324L1346.95 263.673Z" fill="black"/>
<path d="M1333.06 211.86L1391.02 196.331L1401.94 237.102L1343.99 252.631L1333.06 211.86Z" fill="black"/>
<path d="M1318.5 157.499L1376.45 141.97L1387.38 182.741L1329.42 198.27L1318.5 157.499Z" fill="black"/>
<path d="M1303.25 100.59L1361.21 85.0607L1372.36 126.681L1314.4 142.21L1303.25 100.59Z" fill="black"/>
<path d="M1280.72 16.5L1338.67 0.970857L1353.24 55.332L1295.28 70.8612L1280.72 16.5Z" fill="black"/>
<mask id="path-62-inside-17_46_9851" fill="white">
<path d="M1343.99 252.631L1401.94 237.102L1404.9 248.144L1346.95 263.673L1343.99 252.631Z"/>
</mask>
<path d="M1343.99 252.631L1401.94 237.102L1404.9 248.144L1346.95 263.673L1343.99 252.631Z" fill="black"/>
<path d="M1344.39 254.132L1402.35 238.603L1401.54 235.601L1343.59 251.13L1344.39 254.132Z" fill="#3D3D3D" mask="url(#path-62-inside-17_46_9851)"/>
<mask id="path-64-inside-18_46_9851" fill="white">
<path d="M1329.42 198.27L1387.38 182.741L1391.02 196.331L1333.06 211.861L1329.42 198.27Z"/>
</mask>
<path d="M1329.42 198.27L1387.38 182.741L1391.02 196.331L1333.06 211.861L1329.42 198.27Z" fill="black"/>
<path d="M1330.23 201.272L1388.18 185.743L1386.57 179.739L1328.62 195.268L1330.23 201.272Z" fill="#3D3D3D" mask="url(#path-64-inside-18_46_9851)"/>
<mask id="path-66-outside-19_46_9851" maskUnits="userSpaceOnUse" x="1313.79" y="124.4" width="63.3907" height="35.8136" fill="black">
<rect fill="white" x="1313.79" y="124.4" width="63.3907" height="35.8136"/>
<path d="M1315.08 144.758L1373.04 129.229L1377.14 144.518L1319.18 160.047L1315.08 144.758Z"/>
</mask>
<path d="M1315.08 144.758L1373.04 129.229L1377.14 144.518L1319.18 160.047L1315.08 144.758Z" fill="black"/>
<path d="M1316.29 149.261L1374.25 133.732L1371.83 124.726L1313.88 140.256L1316.29 149.261Z" fill="#3D3D3D" mask="url(#path-66-outside-19_46_9851)"/>
<mask id="path-68-outside-20_46_9851" maskUnits="userSpaceOnUse" x="1294.77" y="53.4001" width="66.4966" height="47.4047" fill="black">
<rect fill="white" x="1294.77" y="53.4001" width="66.4966" height="47.4047"/>
<path d="M1295.28 70.8611L1353.24 55.3319L1361.21 85.0607L1303.25 100.59L1295.28 70.8611Z"/>
</mask>
<path d="M1295.28 70.8611L1353.24 55.3319L1361.21 85.0607L1303.25 100.59L1295.28 70.8611Z" fill="black"/>
<path d="M1295.69 72.362L1353.64 56.8328L1352.84 53.831L1294.88 69.3602L1295.69 72.362Z" fill="#3D3D3D" mask="url(#path-68-outside-20_46_9851)"/>
<rect x="1282.81" y="18.5265" width="57" height="324" transform="rotate(-15 1282.81 18.5265)" stroke="#3D3D3D" stroke-width="3"/>
<path d="M693.914 270.61L745.876 240.61L781.929 303.056L729.968 333.056L693.914 270.61Z" fill="black"/>
<path d="M667.094 224.155L719.055 194.155L740.16 230.709L688.198 260.709L667.094 224.155Z" fill="black"/>
<path d="M638.954 175.417L690.916 145.417L712.02 181.971L660.059 211.971L638.954 175.417Z" fill="black"/>
<path d="M609.496 124.393L661.458 94.3931L683.002 131.709L631.04 161.709L609.496 124.393Z" fill="black"/>
<path d="M565.968 49L617.929 19L646.069 67.7389L594.107 97.7389L565.968 49Z" fill="black"/>
<mask id="path-76-inside-21_46_9851" fill="white">
<path d="M688.198 260.709L740.16 230.709L745.876 240.61L693.914 270.61L688.198 260.709Z"/>
</mask>
<path d="M688.198 260.709L740.16 230.709L745.876 240.61L693.914 270.61L688.198 260.709Z" fill="black"/>
<path d="M688.975 262.055L740.937 232.055L739.383 229.364L687.421 259.364L688.975 262.055Z" fill="#3D3D3D" mask="url(#path-76-inside-21_46_9851)"/>
<mask id="path-78-inside-22_46_9851" fill="white">
<path d="M660.059 211.971L712.02 181.971L719.055 194.155L667.093 224.155L660.059 211.971Z"/>
</mask>
<path d="M660.059 211.971L712.02 181.971L719.055 194.155L667.093 224.155L660.059 211.971Z" fill="black"/>
<path d="M661.612 214.662L713.574 184.662L710.466 179.279L658.505 209.279L661.612 214.662Z" fill="#3D3D3D" mask="url(#path-78-inside-22_46_9851)"/>
<mask id="path-80-outside-23_46_9851" maskUnits="userSpaceOnUse" x="629.859" y="129.663" width="62.4615" height="48.1865" fill="black">
<rect fill="white" x="629.859" y="129.663" width="62.4615" height="48.1865"/>
<path d="M632.359 163.993L684.321 133.993L692.235 147.701L640.274 177.701L632.359 163.993Z"/>
</mask>
<path d="M632.359 163.993L684.321 133.993L692.235 147.701L640.274 177.701L632.359 163.993Z" fill="black"/>
<path d="M634.69 168.03L686.652 138.03L681.99 129.956L630.029 159.956L634.69 168.03Z" fill="#3D3D3D" mask="url(#path-80-outside-23_46_9851)"/>
<mask id="path-82-outside-24_46_9851" maskUnits="userSpaceOnUse" x="593.107" y="66.0067" width="68.4615" height="58.5788" fill="black">
<rect fill="white" x="593.107" y="66.0067" width="68.4615" height="58.5788"/>
<path d="M594.107 97.7388L646.069 67.7388L661.458 94.3928L609.496 124.393L594.107 97.7388Z"/>
</mask>
<path d="M594.107 97.7388L646.069 67.7388L661.458 94.3928L609.496 124.393L594.107 97.7388Z" fill="black"/>
<path d="M594.884 99.0844L646.846 69.0844L645.292 66.3931L593.33 96.3931L594.884 99.0844Z" fill="#3D3D3D" mask="url(#path-82-outside-24_46_9851)"/>
<rect x="568.517" y="50.415" width="57" height="324" transform="rotate(-30 568.517 50.415)" stroke="#3D3D3D" stroke-width="3"/>
<path d="M842.661 281.444L885.088 239.017L936.075 290.005L893.649 332.431L842.661 281.444Z" fill="black"/>
<path d="M804.731 243.514L847.158 201.087L877.004 230.934L834.578 273.36L804.731 243.514Z" fill="black"/>
<path d="M764.937 203.719L807.363 161.292L837.209 191.139L794.783 233.565L764.937 203.719Z" fill="black"/>
<path d="M723.275 162.058L765.702 119.632L796.17 150.1L753.744 192.526L723.275 162.058Z" fill="black"/>
<path d="M661.718 100.5L704.144 58.0736L743.939 97.8687L701.513 140.295L661.718 100.5Z" fill="black"/>
<mask id="path-90-inside-25_46_9851" fill="white">
<path d="M834.578 273.36L877.005 230.934L885.088 239.017L842.662 281.443L834.578 273.36Z"/>
</mask>
<path d="M834.578 273.36L877.005 230.934L885.088 239.017L842.662 281.443L834.578 273.36Z" fill="black"/>
<path d="M835.677 274.459L878.103 232.032L875.906 229.835L833.479 272.261L835.677 274.459Z" fill="#3D3D3D" mask="url(#path-90-inside-25_46_9851)"/>
<mask id="path-92-inside-26_46_9851" fill="white">
<path d="M794.783 233.565L837.21 191.139L847.158 201.087L804.732 243.514L794.783 233.565Z"/>
</mask>
<path d="M794.783 233.565L837.21 191.139L847.158 201.087L804.732 243.514L794.783 233.565Z" fill="black"/>
<path d="M796.981 235.762L839.407 193.336L835.012 188.941L792.586 231.367L796.981 235.762Z" fill="#3D3D3D" mask="url(#path-92-inside-26_46_9851)"/>
<mask id="path-94-outside-27_46_9851" maskUnits="userSpaceOnUse" x="752.074" y="148.43" width="57.2756" height="57.2756" fill="black">
<rect fill="white" x="752.074" y="148.43" width="57.2756" height="57.2756"/>
<path d="M755.609 194.392L798.036 151.965L809.228 163.158L766.802 205.584L755.609 194.392Z"/>
</mask>
<path d="M755.609 194.392L798.036 151.965L809.228 163.158L766.802 205.584L755.609 194.392Z" fill="black"/>
<path d="M758.906 197.688L801.332 155.261L794.74 148.669L752.313 191.095L758.906 197.688Z" fill="#3D3D3D" mask="url(#path-94-outside-27_46_9851)"/>
<mask id="path-96-outside-28_46_9851" maskUnits="userSpaceOnUse" x="700.098" y="96.4545" width="65.7609" height="65.7609" fill="black">
<rect fill="white" x="700.098" y="96.4545" width="65.7609" height="65.7609"/>
<path d="M701.513 140.295L743.939 97.8688L765.702 119.632L723.276 162.058L701.513 140.295Z"/>
</mask>
<path d="M701.513 140.295L743.939 97.8688L765.702 119.632L723.276 162.058L701.513 140.295Z" fill="black"/>
<path d="M702.611 141.394L745.038 98.9675L742.84 96.77L700.414 139.196L702.611 141.394Z" fill="#3D3D3D" mask="url(#path-96-outside-28_46_9851)"/>
<rect x="664.546" y="101.207" width="57" height="324" transform="rotate(-45 664.546 101.207)" stroke="#3D3D3D" stroke-width="3"/>
<path d="M1015.84 294.407L1048.06 243.791L1108.89 282.511L1076.67 333.127L1015.84 294.407Z" fill="black"/>
<path d="M970.588 265.604L1002.81 214.988L1038.41 237.653L1006.2 288.269L970.588 265.604Z" fill="black"/>
<path d="M923.11 235.384L955.329 184.768L990.936 207.433L958.718 258.049L923.11 235.384Z" fill="black"/>
<path d="M873.408 203.747L905.627 153.131L941.976 176.268L909.758 226.884L873.408 203.747Z" fill="black"/>
<path d="M799.968 157L832.186 106.384L879.663 136.604L847.445 187.22L799.968 157Z" fill="black"/>
<mask id="path-104-inside-29_46_9851" fill="white">
<path d="M1006.2 288.269L1038.41 237.653L1048.06 243.791L1015.84 294.407L1006.2 288.269Z"/>
</mask>
<path d="M1006.2 288.269L1038.41 237.653L1048.06 243.791L1015.84 294.407L1006.2 288.269Z" fill="black"/>
<path d="M1007.51 289.103L1039.72 238.487L1037.1 236.818L1004.88 287.434L1007.51 289.103Z" fill="#3D3D3D" mask="url(#path-104-inside-29_46_9851)"/>
<mask id="path-106-inside-30_46_9851" fill="white">
<path d="M958.719 258.049L990.937 207.433L1002.81 214.988L970.588 265.604L958.719 258.049Z"/>
</mask>
<path d="M958.719 258.049L990.937 207.433L1002.81 214.988L970.588 265.604L958.719 258.049Z" fill="black"/>
<path d="M961.34 259.717L993.559 209.101L988.315 205.764L956.097 256.38L961.34 259.717Z" fill="#3D3D3D" mask="url(#path-106-inside-30_46_9851)"/>
<mask id="path-108-outside-31_46_9851" maskUnits="userSpaceOnUse" x="907.765" y="175" width="49.9339" height="61.8924" fill="black">
<rect fill="white" x="907.765" y="175" width="49.9339" height="61.8924"/>
<path d="M911.983 228.301L944.202 177.685L957.555 186.184L925.336 236.8L911.983 228.301Z"/>
</mask>
<path d="M911.983 228.301L944.202 177.685L957.555 186.184L925.336 236.8L911.983 228.301Z" fill="black"/>
<path d="M915.916 230.804L948.134 180.188L940.269 175.182L908.051 225.798L915.916 230.804Z" fill="#3D3D3D" mask="url(#path-108-outside-31_46_9851)"/>
<mask id="path-110-outside-32_46_9851" maskUnits="userSpaceOnUse" x="845.757" y="135.53" width="60.0571" height="68.3361" fill="black">
<rect fill="white" x="845.757" y="135.53" width="60.0571" height="68.3361"/>
<path d="M847.444 187.22L879.663 136.604L905.627 153.131L873.408 203.747L847.444 187.22Z"/>
</mask>
<path d="M847.444 187.22L879.663 136.604L905.627 153.131L873.408 203.747L847.444 187.22Z" fill="black"/>
<path d="M848.755 188.055L880.973 137.439L878.352 135.77L846.134 186.386L848.755 188.055Z" fill="#3D3D3D" mask="url(#path-110-outside-32_46_9851)"/>
<rect x="802.882" y="157.077" width="57" height="324" transform="rotate(-57.5222 802.882 157.077)" stroke="#3D3D3D" stroke-width="3"/>
<path d="M96.0078 253.4L155.423 261.754L145.383 333.159L85.9677 324.805L96.0078 253.4Z" fill="black"/>
<path d="M103.477 200.282L162.892 208.636L157.015 250.434L97.5994 242.08L103.477 200.282Z" fill="black"/>
<path d="M111.312 144.551L170.728 152.906L164.851 194.704L105.435 186.349L111.312 144.551Z" fill="black"/>
<path d="M119.517 86.2083L178.932 94.5625L172.933 137.231L113.517 128.877L119.517 86.2083Z" fill="black"/>
<path d="M131.638 0L191.053 8.3543L183.217 64.0849L123.802 55.7306L131.638 0Z" fill="black"/>
<mask id="path-118-inside-33_46_9851" fill="white">
<path d="M97.5996 242.08L157.015 250.434L155.423 261.754L96.0079 253.4L97.5996 242.08Z"/>
</mask>
<path d="M97.5996 242.08L157.015 250.434L155.423 261.754L96.0079 253.4L97.5996 242.08Z" fill="black"/>
<path d="M97.3833 243.619L156.799 251.973L157.232 248.895L97.816 240.541L97.3833 243.619Z" fill="#3D3D3D" mask="url(#path-118-inside-33_46_9851)"/>
<mask id="path-120-inside-34_46_9851" fill="white">
<path d="M105.436 186.349L164.851 194.703L162.892 208.636L103.477 200.282L105.436 186.349Z"/>
</mask>
<path d="M105.436 186.349L164.851 194.703L162.892 208.636L103.477 200.282L105.436 186.349Z" fill="black"/>
<path d="M105.003 189.427L164.418 197.781L165.284 191.626L105.868 183.272L105.003 189.427Z" fill="#3D3D3D" mask="url(#path-120-inside-34_46_9851)"/>
<mask id="path-122-outside-35_46_9851" maskUnits="userSpaceOnUse" x="110.922" y="126.538" width="62.3395" height="29.1497" fill="black">
<rect fill="white" x="110.922" y="126.538" width="62.3395" height="29.1497"/>
<path d="M113.149 131.49L172.565 139.844L170.361 155.518L110.945 147.164L113.149 131.49Z"/>
</mask>
<path d="M113.149 131.49L172.565 139.844L170.361 155.518L110.945 147.164L113.149 131.49Z" fill="black"/>
<path d="M112.5 136.106L171.916 144.46L173.214 135.228L113.798 126.873L112.5 136.106Z" fill="#3D3D3D" mask="url(#path-122-outside-35_46_9851)"/>
<mask id="path-124-outside-36_46_9851" maskUnits="userSpaceOnUse" x="119.485" y="53.7502" width="64.0104" height="41.0328" fill="black">
<rect fill="white" x="119.485" y="53.7502" width="64.0104" height="41.0328"/>
<path d="M123.802 55.7307L183.217 64.085L178.932 94.5627L119.516 86.2084L123.802 55.7307Z"/>
</mask>
<path d="M123.802 55.7307L183.217 64.085L178.932 94.5627L119.516 86.2084L123.802 55.7307Z" fill="black"/>
<path d="M123.585 57.2694L183.001 65.6237L183.434 62.5463L124.018 54.192L123.585 57.2694Z" fill="#3D3D3D" mask="url(#path-124-outside-36_46_9851)"/>
<rect x="132.775" y="2.68448" width="57" height="324" transform="rotate(8.00377 132.775 2.68448)" stroke="#3D3D3D" stroke-width="3"/>
<path d="M181.05 241.759L234.57 268.88L201.976 333.2L148.456 306.079L181.05 241.759Z" fill="black"/>
<path d="M205.296 193.91L258.816 221.032L239.737 258.682L186.217 231.561L205.296 193.91Z" fill="black"/>
<path d="M230.735 143.709L284.256 170.83L265.177 208.481L211.656 181.36L230.735 143.709Z" fill="black"/>
<path d="M257.366 91.155L310.887 118.276L291.41 156.711L237.889 129.59L257.366 91.155Z" fill="black"/>
<path d="M296.718 13.5L350.238 40.6211L324.799 90.8223L271.279 63.7012L296.718 13.5Z" fill="black"/>
<mask id="path-132-inside-37_46_9851" fill="white">
<path d="M186.217 231.561L239.737 258.682L234.57 268.88L181.049 241.758L186.217 231.561Z"/>
</mask>
<path d="M186.217 231.561L239.737 258.682L234.57 268.88L181.049 241.758L186.217 231.561Z" fill="black"/>
<path d="M185.514 232.947L239.035 260.068L240.44 257.296L186.919 230.175L185.514 232.947Z" fill="#3D3D3D" mask="url(#path-132-inside-37_46_9851)"/>
<mask id="path-134-inside-38_46_9851" fill="white">
<path d="M211.656 181.36L265.177 208.481L258.817 221.032L205.296 193.91L211.656 181.36Z"/>
</mask>
<path d="M211.656 181.36L265.177 208.481L258.817 221.032L205.296 193.91L211.656 181.36Z" fill="black"/>
<path d="M210.252 184.132L263.772 211.253L266.581 205.709L213.061 178.588L210.252 184.132Z" fill="#3D3D3D" mask="url(#path-134-inside-38_46_9851)"/>
<mask id="path-136-outside-39_46_9851" maskUnits="userSpaceOnUse" x="229.465" y="127.483" width="63.0129" height="45.8533" fill="black">
<rect fill="white" x="229.465" y="127.483" width="63.0129" height="45.8533"/>
<path d="M236.697 131.943L290.218 159.064L283.063 173.184L229.543 146.062L236.697 131.943Z"/>
</mask>
<path d="M236.697 131.943L290.218 159.064L283.063 173.184L229.543 146.062L236.697 131.943Z" fill="black"/>
<path d="M234.59 136.101L288.111 163.223L292.325 154.906L238.804 127.785L234.59 136.101Z" fill="#3D3D3D" mask="url(#path-136-outside-39_46_9851)"/>
<mask id="path-138-outside-40_46_9851" maskUnits="userSpaceOnUse" x="257.266" y="61.9172" width="68.4371" height="56.5574" fill="black">
<rect fill="white" x="257.266" y="61.9172" width="68.4371" height="56.5574"/>
<path d="M271.278 63.7012L324.799 90.8223L310.887 118.276L257.366 91.1549L271.278 63.7012Z"/>
</mask>
<path d="M271.278 63.7012L324.799 90.8223L310.887 118.276L257.366 91.1549L271.278 63.7012Z" fill="black"/>
<path d="M270.576 65.0872L324.096 92.2083L325.501 89.4363L271.981 62.3151L270.576 65.0872Z" fill="#3D3D3D" mask="url(#path-138-outside-40_46_9851)"/>
<rect x="296.926" y="16.4081" width="57" height="324" transform="rotate(26.8733 296.926 16.4081)" stroke="#3D3D3D" stroke-width="3"/>
<path d="M288.021 244.156L319.946 294.958L258.893 333.325L226.968 282.524L288.021 244.156Z" fill="black"/>
<path d="M333.438 215.615L365.363 266.416L329.624 288.875L297.699 238.074L333.438 215.615Z" fill="black"/>
<path d="M381.088 185.67L413.013 236.471L377.275 258.93L345.35 208.129L381.088 185.67Z" fill="black"/>
<path d="M430.973 154.321L462.898 205.123L426.415 228.049L394.49 177.248L430.973 154.321Z" fill="black"/>
<path d="M504.683 108L536.608 158.801L488.957 188.747L457.032 137.945L504.683 108Z" fill="black"/>
<mask id="path-146-inside-41_46_9851" fill="white">
<path d="M297.699 238.074L329.624 288.875L319.945 294.958L288.02 244.156L297.699 238.074Z"/>
</mask>
<path d="M297.699 238.074L329.624 288.875L319.945 294.958L288.02 244.156L297.699 238.074Z" fill="black"/>
<path d="M296.384 238.901L328.309 289.702L330.94 288.048L299.015 237.247L296.384 238.901Z" fill="#3D3D3D" mask="url(#path-146-inside-41_46_9851)"/>
<mask id="path-148-inside-42_46_9851" fill="white">
<path d="M345.351 208.129L377.276 258.93L365.363 266.417L333.438 215.615L345.351 208.129Z"/>
</mask>
<path d="M345.351 208.129L377.276 258.93L365.363 266.417L333.438 215.615L345.351 208.129Z" fill="black"/>
<path d="M342.719 209.782L374.644 260.584L379.907 257.277L347.982 206.475L342.719 209.782Z" fill="#3D3D3D" mask="url(#path-148-inside-42_46_9851)"/>
<mask id="path-150-outside-43_46_9851" maskUnits="userSpaceOnUse" x="378.71" y="175.991" width="49.7056" height="61.9753" fill="black">
<rect fill="white" x="378.71" y="175.991" width="49.7056" height="61.9753"/>
<path d="M392.257 178.652L424.182 229.453L410.78 237.875L378.855 187.074L392.257 178.652Z"/>
</mask>
<path d="M392.257 178.652L424.182 229.453L410.78 237.875L378.855 187.074L392.257 178.652Z" fill="black"/>
<path d="M388.31 181.132L420.235 231.933L428.129 226.973L396.204 176.171L388.31 181.132Z" fill="#3D3D3D" mask="url(#path-150-outside-43_46_9851)"/>
<mask id="path-152-outside-44_46_9851" maskUnits="userSpaceOnUse" x="430.785" y="136.881" width="59.8659" height="68.3603" fill="black">
<rect fill="white" x="430.785" y="136.881" width="59.8659" height="68.3603"/>
<path d="M457.032 137.945L488.957 188.747L462.898 205.123L430.973 154.321L457.032 137.945Z"/>
</mask>
<path d="M457.032 137.945L488.957 188.747L462.898 205.123L430.973 154.321L457.032 137.945Z" fill="black"/>
<path d="M455.717 138.772L487.642 189.573L490.273 187.92L458.348 137.118L455.717 138.772Z" fill="#3D3D3D" mask="url(#path-152-outside-44_46_9851)"/>
<rect x="503.364" y="110.6" width="57" height="324" transform="rotate(57.8536 503.364 110.6)" stroke="#3D3D3D" stroke-width="3"/>
</svg>
