<svg width="1728" height="1104" viewBox="0 0 1728 1104" fill="none" xmlns="http://www.w3.org/2000/svg">
<g clip-path="url(#clip0_36_7574)">
<path d="M476.894 210.699L55.8231 264.767V522.917L476.894 468.849V210.699Z" fill="#848484"/>
<path d="M476.96 295.315L55.8892 349.383M476.96 381.365L55.8892 435.433M476.894 210.699L55.8231 264.767V522.917L476.894 468.849V210.699Z" stroke="#3D3D3D" stroke-width="2.86833"/>
<path d="M472.376 294.313V223.984L459.755 225.661V295.933L472.376 294.313Z" fill="#3D3D3D" stroke="#3D3D3D" stroke-width="0.286833"/>
<rect x="-0.143416" y="0.143416" width="45.0777" height="70.275" transform="matrix(-1 0 0 1 459.325 225.534)" fill="black" stroke="#3D3D3D" stroke-width="0.286833"/>
<path d="M425.39 300.349V230.019L412.769 231.696V301.968L425.39 300.349Z" fill="#3D3D3D" stroke="#3D3D3D" stroke-width="0.286833"/>
<rect x="-0.143416" y="0.143416" width="45.0777" height="70.275" transform="matrix(-1 0 0 1 412.339 231.569)" fill="black" stroke="#3D3D3D" stroke-width="0.286833"/>
<path d="M378.402 306.38V236.05L365.782 237.727V308L378.402 306.38Z" fill="#3D3D3D" stroke="#3D3D3D" stroke-width="0.286833"/>
<rect x="-0.143416" y="0.143416" width="45.0777" height="70.275" transform="matrix(-1 0 0 1 365.352 237.601)" fill="black" stroke="#3D3D3D" stroke-width="0.286833"/>
<path d="M331.415 312.415V242.086L318.795 243.763V314.035L331.415 312.415Z" fill="#3D3D3D" stroke="#3D3D3D" stroke-width="0.286833"/>
<rect x="-0.143416" y="0.143416" width="45.0777" height="70.275" transform="matrix(-1 0 0 1 318.365 243.636)" fill="black" stroke="#3D3D3D" stroke-width="0.286833"/>
<path d="M284.428 318.454V248.125L271.807 249.802V320.074L284.428 318.454Z" fill="#3D3D3D" stroke="#3D3D3D" stroke-width="0.286833"/>
<rect x="-0.143416" y="0.143416" width="45.0777" height="70.275" transform="matrix(-1 0 0 1 271.378 249.675)" fill="black" stroke="#3D3D3D" stroke-width="0.286833"/>
<path d="M237.441 324.488V254.158L224.82 255.835V326.108L237.441 324.488Z" fill="#3D3D3D" stroke="#3D3D3D" stroke-width="0.286833"/>
<rect x="-0.143416" y="0.143416" width="45.0777" height="70.275" transform="matrix(-1 0 0 1 224.39 255.708)" fill="black" stroke="#3D3D3D" stroke-width="0.286833"/>
<path d="M190.453 330.516V260.187L177.833 261.864V332.136L190.453 330.516Z" fill="#3D3D3D" stroke="#3D3D3D" stroke-width="0.286833"/>
<rect x="-0.143416" y="0.143416" width="45.0777" height="70.275" transform="matrix(-1 0 0 1 177.404 261.737)" fill="black" stroke="#3D3D3D" stroke-width="0.286833"/>
<path d="M143.466 336.555V266.226L130.845 267.903V338.175L143.466 336.555Z" fill="#3D3D3D" stroke="#3D3D3D" stroke-width="0.286833"/>
<rect x="-0.143416" y="0.143416" width="45.0777" height="70.275" transform="matrix(-1 0 0 1 130.415 267.776)" fill="black" stroke="#3D3D3D" stroke-width="0.286833"/>
<path d="M96.4806 342.578V272.248L83.7643 273.926V344.198L96.4806 342.578Z" fill="#3D3D3D" stroke="#3D3D3D" stroke-width="0.286833"/>
<path d="M83.4767 273.942H57.0679V344.217H83.4767V273.942Z" fill="black" stroke="#3D3D3D" stroke-width="0.286833"/>
<rect width="1.26414" height="76.0075" transform="matrix(-1 0 0 1 57.2324 273)" fill="#3D3D3D"/>
<path d="M472.376 380.364V310.034L459.755 311.711V381.984L472.376 380.364Z" fill="#3D3D3D" stroke="#3D3D3D" stroke-width="0.286833"/>
<rect x="-0.143416" y="0.143416" width="45.0777" height="70.275" transform="matrix(-1 0 0 1 459.325 311.584)" fill="black" stroke="#3D3D3D" stroke-width="0.286833"/>
<path d="M425.39 386.396V316.067L412.769 317.744V388.016L425.39 386.396Z" fill="#3D3D3D" stroke="#3D3D3D" stroke-width="0.286833"/>
<rect x="-0.143416" y="0.143416" width="45.0777" height="70.275" transform="matrix(-1 0 0 1 412.339 317.618)" fill="black" stroke="#3D3D3D" stroke-width="0.286833"/>
<path d="M378.402 392.43V322.1L365.782 323.777V394.049L378.402 392.43Z" fill="#3D3D3D" stroke="#3D3D3D" stroke-width="0.286833"/>
<rect x="-0.143416" y="0.143416" width="45.0777" height="70.275" transform="matrix(-1 0 0 1 365.352 323.65)" fill="black" stroke="#3D3D3D" stroke-width="0.286833"/>
<path d="M331.415 398.464V328.135L318.795 329.812V400.084L331.415 398.464Z" fill="#3D3D3D" stroke="#3D3D3D" stroke-width="0.286833"/>
<rect x="-0.143416" y="0.143416" width="45.0777" height="70.275" transform="matrix(-1 0 0 1 318.365 329.686)" fill="black" stroke="#3D3D3D" stroke-width="0.286833"/>
<path d="M284.428 404.503V334.173L271.807 335.85V406.123L284.428 404.503Z" fill="#3D3D3D" stroke="#3D3D3D" stroke-width="0.286833"/>
<rect x="-0.143416" y="0.143416" width="45.0777" height="70.275" transform="matrix(-1 0 0 1 271.377 335.724)" fill="black" stroke="#3D3D3D" stroke-width="0.286833"/>
<path d="M237.441 410.537V340.208L224.82 341.885V412.157L237.441 410.537Z" fill="#3D3D3D" stroke="#3D3D3D" stroke-width="0.286833"/>
<rect x="-0.143416" y="0.143416" width="45.0777" height="70.275" transform="matrix(-1 0 0 1 224.39 341.758)" fill="black" stroke="#3D3D3D" stroke-width="0.286833"/>
<path d="M190.453 416.566V346.236L177.833 347.913V418.186L190.453 416.566Z" fill="#3D3D3D" stroke="#3D3D3D" stroke-width="0.286833"/>
<rect x="-0.143416" y="0.143416" width="45.0777" height="70.275" transform="matrix(-1 0 0 1 177.404 347.787)" fill="black" stroke="#3D3D3D" stroke-width="0.286833"/>
<path d="M143.466 422.605V352.275L130.845 353.952V424.225L143.466 422.605Z" fill="#3D3D3D" stroke="#3D3D3D" stroke-width="0.286833"/>
<rect x="-0.143416" y="0.143416" width="45.0777" height="70.275" transform="matrix(-1 0 0 1 130.415 353.826)" fill="black" stroke="#3D3D3D" stroke-width="0.286833"/>
<path d="M96.4787 428.628V358.298L83.7624 359.976V430.248L96.4787 428.628Z" fill="#3D3D3D" stroke="#3D3D3D" stroke-width="0.286833"/>
<path d="M83.4757 359.992H57.0669V430.267H83.4757V359.992Z" fill="black" stroke="#3D3D3D" stroke-width="0.286833"/>
<rect width="1.26414" height="76.0075" transform="matrix(-1 0 0 1 57.2314 359.05)" fill="#3D3D3D"/>
<path d="M472.376 467.895V397.565L459.755 399.242V469.514L472.376 467.895Z" fill="#3D3D3D" stroke="#3D3D3D" stroke-width="0.286833"/>
<rect x="-0.143416" y="0.143416" width="45.0777" height="70.275" transform="matrix(-1 0 0 1 459.325 399.115)" fill="black" stroke="#3D3D3D" stroke-width="0.286833"/>
<path d="M425.39 473.865V403.535L412.769 405.212V475.484L425.39 473.865Z" fill="#3D3D3D" stroke="#3D3D3D" stroke-width="0.286833"/>
<rect x="-0.143416" y="0.143416" width="45.0777" height="70.275" transform="matrix(-1 0 0 1 412.339 405.085)" fill="black" stroke="#3D3D3D" stroke-width="0.286833"/>
<path d="M378.402 479.896V409.566L365.782 411.243V481.516L378.402 479.896Z" fill="#3D3D3D" stroke="#3D3D3D" stroke-width="0.286833"/>
<rect x="-0.143416" y="0.143416" width="45.0777" height="70.275" transform="matrix(-1 0 0 1 365.352 411.117)" fill="black" stroke="#3D3D3D" stroke-width="0.286833"/>
<path d="M331.415 485.931V415.602L318.795 417.279V487.551L331.415 485.931Z" fill="#3D3D3D" stroke="#3D3D3D" stroke-width="0.286833"/>
<rect x="-0.143416" y="0.143416" width="45.0777" height="70.275" transform="matrix(-1 0 0 1 318.365 417.152)" fill="black" stroke="#3D3D3D" stroke-width="0.286833"/>
<path d="M284.428 491.97V421.641L271.807 423.318V493.59L284.428 491.97Z" fill="#3D3D3D" stroke="#3D3D3D" stroke-width="0.286833"/>
<rect x="-0.143416" y="0.143416" width="45.0777" height="70.275" transform="matrix(-1 0 0 1 271.377 423.191)" fill="black" stroke="#3D3D3D" stroke-width="0.286833"/>
<path d="M237.441 498.004V427.675L224.82 429.352V499.624L237.441 498.004Z" fill="#3D3D3D" stroke="#3D3D3D" stroke-width="0.286833"/>
<rect x="-0.143416" y="0.143416" width="45.0777" height="70.275" transform="matrix(-1 0 0 1 224.39 429.225)" fill="black" stroke="#3D3D3D" stroke-width="0.286833"/>
<path d="M190.453 504.032V433.703L177.833 435.38V505.652L190.453 504.032Z" fill="#3D3D3D" stroke="#3D3D3D" stroke-width="0.286833"/>
<rect x="-0.143416" y="0.143416" width="45.0777" height="70.275" transform="matrix(-1 0 0 1 177.403 435.253)" fill="black" stroke="#3D3D3D" stroke-width="0.286833"/>
<path d="M143.466 510.072V439.742L130.845 441.419V511.692L143.466 510.072Z" fill="#3D3D3D" stroke="#3D3D3D" stroke-width="0.286833"/>
<rect x="-0.143416" y="0.143416" width="45.0777" height="70.275" transform="matrix(-1 0 0 1 130.415 441.292)" fill="black" stroke="#3D3D3D" stroke-width="0.286833"/>
<path d="M96.4787 516.095V445.766L83.7624 447.443V517.715L96.4787 516.095Z" fill="#3D3D3D" stroke="#3D3D3D" stroke-width="0.286833"/>
<path d="M83.4757 447.459H57.0669V517.734H83.4757V447.459Z" fill="black" stroke="#3D3D3D" stroke-width="0.286833"/>
<rect width="1.26414" height="76.0075" transform="matrix(-1 0 0 1 57.2314 446.517)" fill="#3D3D3D"/>
<path d="M478.328 209.07L424.777 162.045L0.0391814 216.388L54.198 263.635L478.328 209.07Z" fill="black"/>
<path d="M478.328 209.07L424.777 162.045L0.0391814 216.388L54.198 263.635L478.328 209.07Z" fill="black"/>
<path d="M0.000976563 216.398L54.3499 263.515V524.558L0.000976562 477.442L0.000976563 216.398Z" fill="#3D3D3D"/>
<path d="M738.637 193.145L187.216 263.951V602.015L738.637 531.209V193.145Z" fill="#848484"/>
<path d="M738.724 303.955L187.303 374.761M738.724 416.643L187.303 487.449M738.637 193.145L187.216 263.951V602.015L738.637 531.209V193.145Z" stroke="#3D3D3D" stroke-width="3.75627"/>
<path d="M732.723 302.644V210.542L716.196 212.739V304.765L732.723 302.644Z" fill="#3D3D3D" stroke="#3D3D3D" stroke-width="0.375627"/>
<rect x="-0.187814" y="0.187814" width="59.0323" height="92.0299" transform="matrix(-1 0 0 1 715.632 212.572)" fill="black" stroke="#3D3D3D" stroke-width="0.375627"/>
<path d="M671.189 310.546V218.445L654.662 220.641V312.667L671.189 310.546Z" fill="#3D3D3D" stroke="#3D3D3D" stroke-width="0.375627"/>
<rect x="-0.187814" y="0.187814" width="59.0323" height="92.0299" transform="matrix(-1 0 0 1 654.098 220.475)" fill="black" stroke="#3D3D3D" stroke-width="0.375627"/>
<path d="M609.657 318.445V226.344L593.129 228.54V320.566L609.657 318.445Z" fill="#3D3D3D" stroke="#3D3D3D" stroke-width="0.375627"/>
<rect x="-0.187814" y="0.187814" width="59.0323" height="92.0299" transform="matrix(-1 0 0 1 592.566 228.374)" fill="black" stroke="#3D3D3D" stroke-width="0.375627"/>
<path d="M548.124 326.349V234.248L531.596 236.444V328.47L548.124 326.349Z" fill="#3D3D3D" stroke="#3D3D3D" stroke-width="0.375627"/>
<rect x="-0.187814" y="0.187814" width="59.0323" height="92.0299" transform="matrix(-1 0 0 1 531.032 236.277)" fill="black" stroke="#3D3D3D" stroke-width="0.375627"/>
<path d="M486.591 334.257V242.156L470.064 244.352V336.378L486.591 334.257Z" fill="#3D3D3D" stroke="#3D3D3D" stroke-width="0.375627"/>
<rect x="-0.187814" y="0.187814" width="59.0323" height="92.0299" transform="matrix(-1 0 0 1 469.5 244.186)" fill="black" stroke="#3D3D3D" stroke-width="0.375627"/>
<path d="M425.059 342.158V250.057L408.532 252.253V344.279L425.059 342.158Z" fill="#3D3D3D" stroke="#3D3D3D" stroke-width="0.375627"/>
<rect x="-0.187814" y="0.187814" width="59.0323" height="92.0299" transform="matrix(-1 0 0 1 407.969 252.087)" fill="black" stroke="#3D3D3D" stroke-width="0.375627"/>
<path d="M363.528 350.053V257.952L347 260.148V352.175L363.528 350.053Z" fill="#3D3D3D" stroke="#3D3D3D" stroke-width="0.375627"/>
<rect x="-0.187814" y="0.187814" width="59.0323" height="92.0299" transform="matrix(-1 0 0 1 346.437 259.982)" fill="black" stroke="#3D3D3D" stroke-width="0.375627"/>
<path d="M301.993 357.962V265.861L285.465 268.057V360.083L301.993 357.962Z" fill="#3D3D3D" stroke="#3D3D3D" stroke-width="0.375627"/>
<rect x="-0.187814" y="0.187814" width="59.0323" height="92.0299" transform="matrix(-1 0 0 1 284.902 267.891)" fill="black" stroke="#3D3D3D" stroke-width="0.375627"/>
<path d="M240.464 365.85V273.748L223.811 275.945V367.971L240.464 365.85Z" fill="#3D3D3D" stroke="#3D3D3D" stroke-width="0.375627"/>
<path d="M223.434 275.967H188.85V367.997H223.434V275.967Z" fill="black" stroke="#3D3D3D" stroke-width="0.375627"/>
<rect width="1.65547" height="99.5369" transform="matrix(-1 0 0 1 189.065 274.732)" fill="#3D3D3D"/>
<path d="M732.723 415.333V323.231L716.196 325.428V417.454L732.723 415.333Z" fill="#3D3D3D" stroke="#3D3D3D" stroke-width="0.375627"/>
<rect x="-0.187814" y="0.187814" width="59.0323" height="92.0299" transform="matrix(-1 0 0 1 715.632 325.261)" fill="black" stroke="#3D3D3D" stroke-width="0.375627"/>
<path d="M671.189 423.234V331.133L654.662 333.329V425.355L671.189 423.234Z" fill="#3D3D3D" stroke="#3D3D3D" stroke-width="0.375627"/>
<rect x="-0.187814" y="0.187814" width="59.0323" height="92.0299" transform="matrix(-1 0 0 1 654.098 333.163)" fill="black" stroke="#3D3D3D" stroke-width="0.375627"/>
<path d="M609.657 431.133V339.032L593.129 341.228V433.255L609.657 431.133Z" fill="#3D3D3D" stroke="#3D3D3D" stroke-width="0.375627"/>
<rect x="-0.187814" y="0.187814" width="59.0323" height="92.0299" transform="matrix(-1 0 0 1 592.566 341.062)" fill="black" stroke="#3D3D3D" stroke-width="0.375627"/>
<path d="M548.124 439.036V346.935L531.596 349.131V441.157L548.124 439.036Z" fill="#3D3D3D" stroke="#3D3D3D" stroke-width="0.375627"/>
<rect x="-0.187814" y="0.187814" width="59.0323" height="92.0299" transform="matrix(-1 0 0 1 531.032 348.965)" fill="black" stroke="#3D3D3D" stroke-width="0.375627"/>
<path d="M486.591 446.945V354.844L470.064 357.04V449.066L486.591 446.945Z" fill="#3D3D3D" stroke="#3D3D3D" stroke-width="0.375627"/>
<rect x="-0.187814" y="0.187814" width="59.0323" height="92.0299" transform="matrix(-1 0 0 1 469.5 356.874)" fill="black" stroke="#3D3D3D" stroke-width="0.375627"/>
<path d="M425.059 454.847V362.746L408.532 364.942V456.968L425.059 454.847Z" fill="#3D3D3D" stroke="#3D3D3D" stroke-width="0.375627"/>
<rect x="-0.187814" y="0.187814" width="59.0323" height="92.0299" transform="matrix(-1 0 0 1 407.968 364.776)" fill="black" stroke="#3D3D3D" stroke-width="0.375627"/>
<path d="M363.528 462.742V370.641L347 372.837V464.863L363.528 462.742Z" fill="#3D3D3D" stroke="#3D3D3D" stroke-width="0.375627"/>
<rect x="-0.187814" y="0.187814" width="59.0323" height="92.0299" transform="matrix(-1 0 0 1 346.437 372.671)" fill="black" stroke="#3D3D3D" stroke-width="0.375627"/>
<path d="M301.993 470.65V378.549L285.465 380.745V472.772L301.993 470.65Z" fill="#3D3D3D" stroke="#3D3D3D" stroke-width="0.375627"/>
<rect x="-0.187814" y="0.187814" width="59.0323" height="92.0299" transform="matrix(-1 0 0 1 284.902 380.58)" fill="black" stroke="#3D3D3D" stroke-width="0.375627"/>
<path d="M240.463 478.538V386.436L223.81 388.633V480.659L240.463 478.538Z" fill="#3D3D3D" stroke="#3D3D3D" stroke-width="0.375627"/>
<path d="M223.433 388.655H188.849V480.685H223.433V388.655Z" fill="black" stroke="#3D3D3D" stroke-width="0.375627"/>
<rect width="1.65547" height="99.5369" transform="matrix(-1 0 0 1 189.064 387.421)" fill="#3D3D3D"/>
<path d="M732.722 529.96V437.858L716.195 440.055V532.081L732.722 529.96Z" fill="#3D3D3D" stroke="#3D3D3D" stroke-width="0.375627"/>
<rect x="-0.187814" y="0.187814" width="59.0323" height="92.0299" transform="matrix(-1 0 0 1 715.631 439.888)" fill="black" stroke="#3D3D3D" stroke-width="0.375627"/>
<path d="M671.189 537.777V445.676L654.662 447.872V539.899L671.189 537.777Z" fill="#3D3D3D" stroke="#3D3D3D" stroke-width="0.375627"/>
<rect x="-0.187814" y="0.187814" width="59.0323" height="92.0299" transform="matrix(-1 0 0 1 654.098 447.706)" fill="black" stroke="#3D3D3D" stroke-width="0.375627"/>
<path d="M609.656 545.676V453.575L593.128 455.771V547.798L609.656 545.676Z" fill="#3D3D3D" stroke="#3D3D3D" stroke-width="0.375627"/>
<rect x="-0.187814" y="0.187814" width="59.0323" height="92.0299" transform="matrix(-1 0 0 1 592.566 455.605)" fill="black" stroke="#3D3D3D" stroke-width="0.375627"/>
<path d="M548.123 553.58V461.479L531.595 463.675V555.701L548.123 553.58Z" fill="#3D3D3D" stroke="#3D3D3D" stroke-width="0.375627"/>
<rect x="-0.187814" y="0.187814" width="59.0323" height="92.0299" transform="matrix(-1 0 0 1 531.032 463.509)" fill="black" stroke="#3D3D3D" stroke-width="0.375627"/>
<path d="M486.591 561.488V469.387L470.064 471.583V563.61L486.591 561.488Z" fill="#3D3D3D" stroke="#3D3D3D" stroke-width="0.375627"/>
<rect x="-0.187814" y="0.187814" width="59.0323" height="92.0299" transform="matrix(-1 0 0 1 469.5 471.417)" fill="black" stroke="#3D3D3D" stroke-width="0.375627"/>
<path d="M425.058 569.39V477.289L408.531 479.485V571.511L425.058 569.39Z" fill="#3D3D3D" stroke="#3D3D3D" stroke-width="0.375627"/>
<rect x="-0.187814" y="0.187814" width="59.0323" height="92.0299" transform="matrix(-1 0 0 1 407.967 479.319)" fill="black" stroke="#3D3D3D" stroke-width="0.375627"/>
<path d="M363.527 577.284V485.183L346.999 487.379V579.405L363.527 577.284Z" fill="#3D3D3D" stroke="#3D3D3D" stroke-width="0.375627"/>
<rect x="-0.187814" y="0.187814" width="59.0323" height="92.0299" transform="matrix(-1 0 0 1 346.436 487.213)" fill="black" stroke="#3D3D3D" stroke-width="0.375627"/>
<path d="M301.992 585.193V493.092L285.464 495.288V587.315L301.992 585.193Z" fill="#3D3D3D" stroke="#3D3D3D" stroke-width="0.375627"/>
<rect x="-0.187814" y="0.187814" width="59.0323" height="92.0299" transform="matrix(-1 0 0 1 284.901 495.123)" fill="black" stroke="#3D3D3D" stroke-width="0.375627"/>
<path d="M240.459 593.081V500.98L223.806 503.177V595.203L240.459 593.081Z" fill="#3D3D3D" stroke="#3D3D3D" stroke-width="0.375627"/>
<path d="M223.43 503.199H188.846V595.228H223.43V503.199Z" fill="black" stroke="#3D3D3D" stroke-width="0.375627"/>
<rect width="1.65547" height="99.5369" transform="matrix(-1 0 0 1 189.062 501.963)" fill="#3D3D3D"/>
<path d="M740.517 191.012L670.388 129.429L114.165 200.595L185.09 262.468L740.517 191.012Z" fill="black"/>
<path d="M740.517 191.012L670.388 129.429L114.165 200.595L185.09 262.468L740.517 191.012Z" fill="black"/>
<path d="M114.165 200.595L185.339 262.297V604.151L114.165 542.449L114.165 200.595Z" fill="#3D3D3D"/>
<path d="M1085.39 171.065L377.801 261.925V695.735L1085.39 604.875V171.065Z" fill="#848484"/>
<path d="M1085.5 313.259L377.912 404.118M1085.5 457.862L377.912 548.721M1085.39 171.065L377.801 261.925V695.735L1085.39 604.875V171.065Z" stroke="#3D3D3D" stroke-width="4.81237"/>
<path d="M1077.81 311.577V193.39L1056.6 196.209V314.299L1077.81 311.577Z" fill="#3D3D3D" stroke="#3D3D3D" stroke-width="0.481237"/>
<rect x="-0.240618" y="0.240618" width="75.7521" height="118.095" transform="matrix(-1 0 0 1 1055.88 195.997)" fill="black" stroke="#3D3D3D" stroke-width="0.481237"/>
<path d="M998.845 321.717V203.53L977.636 206.349V324.439L998.845 321.717Z" fill="#3D3D3D" stroke="#3D3D3D" stroke-width="0.481237"/>
<rect x="-0.240618" y="0.240618" width="75.7521" height="118.095" transform="matrix(-1 0 0 1 976.914 206.136)" fill="black" stroke="#3D3D3D" stroke-width="0.481237"/>
<path d="M919.884 331.854V213.667L898.675 216.485V334.576L919.884 331.854Z" fill="#3D3D3D" stroke="#3D3D3D" stroke-width="0.481237"/>
<rect x="-0.240618" y="0.240618" width="75.7521" height="118.095" transform="matrix(-1 0 0 1 897.953 216.273)" fill="black" stroke="#3D3D3D" stroke-width="0.481237"/>
<path d="M840.925 341.995V223.809L819.716 226.627V344.717L840.925 341.995Z" fill="#3D3D3D" stroke="#3D3D3D" stroke-width="0.481237"/>
<rect x="-0.240618" y="0.240618" width="75.7521" height="118.095" transform="matrix(-1 0 0 1 818.993 226.414)" fill="black" stroke="#3D3D3D" stroke-width="0.481237"/>
<path d="M761.966 352.143V233.957L740.757 236.775V354.865L761.966 352.143Z" fill="#3D3D3D" stroke="#3D3D3D" stroke-width="0.481237"/>
<rect x="-0.240618" y="0.240618" width="75.7521" height="118.095" transform="matrix(-1 0 0 1 740.034 236.562)" fill="black" stroke="#3D3D3D" stroke-width="0.481237"/>
<path d="M683.004 362.283V244.097L661.795 246.915V365.006L683.004 362.283Z" fill="#3D3D3D" stroke="#3D3D3D" stroke-width="0.481237"/>
<rect x="-0.240618" y="0.240618" width="75.7521" height="118.095" transform="matrix(-1 0 0 1 661.074 246.702)" fill="black" stroke="#3D3D3D" stroke-width="0.481237"/>
<path d="M604.046 372.414V254.227L582.837 257.045V375.136L604.046 372.414Z" fill="#3D3D3D" stroke="#3D3D3D" stroke-width="0.481237"/>
<rect x="-0.240618" y="0.240618" width="75.7521" height="118.095" transform="matrix(-1 0 0 1 582.115 256.833)" fill="black" stroke="#3D3D3D" stroke-width="0.481237"/>
<path d="M525.088 382.563V264.376L503.878 267.194V385.285L525.088 382.563Z" fill="#3D3D3D" stroke="#3D3D3D" stroke-width="0.481237"/>
<rect x="-0.240618" y="0.240618" width="75.7521" height="118.095" transform="matrix(-1 0 0 1 503.156 266.982)" fill="black" stroke="#3D3D3D" stroke-width="0.481237"/>
<path d="M446.127 392.683V274.496L424.757 277.315V395.406L446.127 392.683Z" fill="#3D3D3D" stroke="#3D3D3D" stroke-width="0.481237"/>
<path d="M424.275 277.343H379.895V395.438H424.275V277.343Z" fill="black" stroke="#3D3D3D" stroke-width="0.481237"/>
<rect width="2.12433" height="127.728" transform="matrix(-1 0 0 1 380.173 275.76)" fill="#3D3D3D"/>
<path d="M1077.81 456.18V337.994L1056.6 340.812V458.903L1077.81 456.18Z" fill="#3D3D3D" stroke="#3D3D3D" stroke-width="0.481237"/>
<rect x="-0.240618" y="0.240618" width="75.7521" height="118.095" transform="matrix(-1 0 0 1 1055.88 340.6)" fill="black" stroke="#3D3D3D" stroke-width="0.481237"/>
<path d="M998.845 466.32V348.133L977.636 350.952V469.042L998.845 466.32Z" fill="#3D3D3D" stroke="#3D3D3D" stroke-width="0.481237"/>
<rect x="-0.240618" y="0.240618" width="75.7521" height="118.095" transform="matrix(-1 0 0 1 976.914 350.739)" fill="black" stroke="#3D3D3D" stroke-width="0.481237"/>
<path d="M919.884 476.457V358.27L898.675 361.088V479.179L919.884 476.457Z" fill="#3D3D3D" stroke="#3D3D3D" stroke-width="0.481237"/>
<rect x="-0.240618" y="0.240618" width="75.7521" height="118.095" transform="matrix(-1 0 0 1 897.953 360.876)" fill="black" stroke="#3D3D3D" stroke-width="0.481237"/>
<path d="M840.925 486.598V368.411L819.716 371.23V489.32L840.925 486.598Z" fill="#3D3D3D" stroke="#3D3D3D" stroke-width="0.481237"/>
<rect x="-0.240618" y="0.240618" width="75.7521" height="118.095" transform="matrix(-1 0 0 1 818.993 371.018)" fill="black" stroke="#3D3D3D" stroke-width="0.481237"/>
<path d="M761.966 496.745V378.559L740.757 381.377V499.467L761.966 496.745Z" fill="#3D3D3D" stroke="#3D3D3D" stroke-width="0.481237"/>
<rect x="-0.240618" y="0.240618" width="75.7521" height="118.095" transform="matrix(-1 0 0 1 740.034 381.166)" fill="black" stroke="#3D3D3D" stroke-width="0.481237"/>
<path d="M683.004 506.887V388.7L661.795 391.518V509.609L683.004 506.887Z" fill="#3D3D3D" stroke="#3D3D3D" stroke-width="0.481237"/>
<rect x="-0.240618" y="0.240618" width="75.7521" height="118.095" transform="matrix(-1 0 0 1 661.073 391.305)" fill="black" stroke="#3D3D3D" stroke-width="0.481237"/>
<path d="M604.046 517.017V398.83L582.837 401.648V519.739L604.046 517.017Z" fill="#3D3D3D" stroke="#3D3D3D" stroke-width="0.481237"/>
<rect x="-0.240618" y="0.240618" width="75.7521" height="118.095" transform="matrix(-1 0 0 1 582.115 401.436)" fill="black" stroke="#3D3D3D" stroke-width="0.481237"/>
<path d="M525.088 527.165V408.979L503.878 411.797V529.887L525.088 527.165Z" fill="#3D3D3D" stroke="#3D3D3D" stroke-width="0.481237"/>
<rect x="-0.240618" y="0.240618" width="75.7521" height="118.095" transform="matrix(-1 0 0 1 503.156 411.585)" fill="black" stroke="#3D3D3D" stroke-width="0.481237"/>
<path d="M446.126 537.287V419.1L424.756 421.919V540.009L446.126 537.287Z" fill="#3D3D3D" stroke="#3D3D3D" stroke-width="0.481237"/>
<path d="M424.273 421.946H379.893V540.041H424.273V421.946Z" fill="black" stroke="#3D3D3D" stroke-width="0.481237"/>
<rect width="2.12433" height="127.728" transform="matrix(-1 0 0 1 380.172 420.363)" fill="#3D3D3D"/>
<path d="M1077.8 603.272V485.086L1056.6 487.904V605.994L1077.8 603.272Z" fill="#3D3D3D" stroke="#3D3D3D" stroke-width="0.481237"/>
<rect x="-0.240618" y="0.240618" width="75.7521" height="118.095" transform="matrix(-1 0 0 1 1055.87 487.691)" fill="black" stroke="#3D3D3D" stroke-width="0.481237"/>
<path d="M998.845 613.304V495.118L977.636 497.936V616.027L998.845 613.304Z" fill="#3D3D3D" stroke="#3D3D3D" stroke-width="0.481237"/>
<rect x="-0.240618" y="0.240618" width="75.7521" height="118.095" transform="matrix(-1 0 0 1 976.914 497.723)" fill="black" stroke="#3D3D3D" stroke-width="0.481237"/>
<path d="M919.884 623.439V505.253L898.675 508.071V626.161L919.884 623.439Z" fill="#3D3D3D" stroke="#3D3D3D" stroke-width="0.481237"/>
<rect x="-0.240618" y="0.240618" width="75.7521" height="118.095" transform="matrix(-1 0 0 1 897.953 507.859)" fill="black" stroke="#3D3D3D" stroke-width="0.481237"/>
<path d="M840.923 633.582V515.395L819.714 518.213V636.304L840.923 633.582Z" fill="#3D3D3D" stroke="#3D3D3D" stroke-width="0.481237"/>
<rect x="-0.240618" y="0.240618" width="75.7521" height="118.095" transform="matrix(-1 0 0 1 818.991 518)" fill="black" stroke="#3D3D3D" stroke-width="0.481237"/>
<path d="M761.965 643.73V525.544L740.756 528.362V646.452L761.965 643.73Z" fill="#3D3D3D" stroke="#3D3D3D" stroke-width="0.481237"/>
<rect x="-0.240618" y="0.240618" width="75.7521" height="118.095" transform="matrix(-1 0 0 1 740.033 528.15)" fill="black" stroke="#3D3D3D" stroke-width="0.481237"/>
<path d="M683.004 653.87V535.684L661.795 538.502V656.592L683.004 653.87Z" fill="#3D3D3D" stroke="#3D3D3D" stroke-width="0.481237"/>
<rect x="-0.240618" y="0.240618" width="75.7521" height="118.095" transform="matrix(-1 0 0 1 661.073 538.29)" fill="black" stroke="#3D3D3D" stroke-width="0.481237"/>
<path d="M604.046 664V545.814L582.836 548.632V666.722L604.046 664Z" fill="#3D3D3D" stroke="#3D3D3D" stroke-width="0.481237"/>
<rect x="-0.240618" y="0.240618" width="75.7521" height="118.095" transform="matrix(-1 0 0 1 582.115 548.419)" fill="black" stroke="#3D3D3D" stroke-width="0.481237"/>
<path d="M525.086 674.149V555.963L503.876 558.781V676.871L525.086 674.149Z" fill="#3D3D3D" stroke="#3D3D3D" stroke-width="0.481237"/>
<rect x="-0.240618" y="0.240618" width="75.7521" height="118.095" transform="matrix(-1 0 0 1 503.155 558.568)" fill="black" stroke="#3D3D3D" stroke-width="0.481237"/>
<path d="M446.124 684.271V566.084L424.754 568.903V686.993L446.124 684.271Z" fill="#3D3D3D" stroke="#3D3D3D" stroke-width="0.481237"/>
<path d="M424.273 568.931H379.893V687.026H424.273V568.931Z" fill="black" stroke="#3D3D3D" stroke-width="0.481237"/>
<rect width="2.12433" height="127.728" transform="matrix(-1 0 0 1 380.17 567.347)" fill="#3D3D3D"/>
<path d="M1087.81 168.328L997.816 89.3035L284.061 180.626L375.073 260.022L1087.81 168.328Z" fill="black"/>
<path d="M1087.81 168.328L997.816 89.3035L284.061 180.626L375.073 260.022L1087.81 168.328Z" fill="black"/>
<path d="M284.062 180.625L375.393 259.802V698.475L284.062 619.298L284.062 180.625Z" fill="#3D3D3D"/>
<path d="M1537.37 137.552L631.189 253.911V809.473L1537.37 693.114V137.552Z" fill="#848484"/>
<path d="M1537.51 319.653L631.331 436.012M1537.51 504.84L631.331 621.2M1537.37 137.552L631.189 253.911V809.473L1537.37 693.114V137.552Z" stroke="#3D3D3D" stroke-width="6.17291"/>
<path d="M1527.65 317.497V166.142L1500.49 169.751V320.983L1527.65 317.497Z" fill="#3D3D3D" stroke="#3D3D3D" stroke-width="0.617291"/>
<rect x="-0.308646" y="0.308646" width="97.0115" height="151.239" transform="matrix(-1 0 0 1 1499.57 169.479)" fill="black" stroke="#3D3D3D" stroke-width="0.617291"/>
<path d="M1426.53 330.484V179.128L1399.37 182.737V333.97L1426.53 330.484Z" fill="#3D3D3D" stroke="#3D3D3D" stroke-width="0.617291"/>
<rect x="-0.308646" y="0.308646" width="97.0115" height="151.239" transform="matrix(-1 0 0 1 1398.44 182.465)" fill="black" stroke="#3D3D3D" stroke-width="0.617291"/>
<path d="M1325.41 343.465V192.11L1298.25 195.719V346.951L1325.41 343.465Z" fill="#3D3D3D" stroke="#3D3D3D" stroke-width="0.617291"/>
<rect x="-0.308646" y="0.308646" width="97.0115" height="151.239" transform="matrix(-1 0 0 1 1297.32 195.446)" fill="black" stroke="#3D3D3D" stroke-width="0.617291"/>
<path d="M1224.29 356.453V205.097L1197.13 208.706V359.939L1224.29 356.453Z" fill="#3D3D3D" stroke="#3D3D3D" stroke-width="0.617291"/>
<rect x="-0.308646" y="0.308646" width="97.0115" height="151.239" transform="matrix(-1 0 0 1 1196.2 208.434)" fill="black" stroke="#3D3D3D" stroke-width="0.617291"/>
<path d="M1123.17 369.45V218.094L1096.01 221.703V372.936L1123.17 369.45Z" fill="#3D3D3D" stroke="#3D3D3D" stroke-width="0.617291"/>
<rect x="-0.308646" y="0.308646" width="97.0115" height="151.239" transform="matrix(-1 0 0 1 1095.08 221.43)" fill="black" stroke="#3D3D3D" stroke-width="0.617291"/>
<path d="M1022.05 382.435V231.079L994.887 234.688V385.921L1022.05 382.435Z" fill="#3D3D3D" stroke="#3D3D3D" stroke-width="0.617291"/>
<rect x="-0.308646" y="0.308646" width="97.0115" height="151.239" transform="matrix(-1 0 0 1 993.962 234.416)" fill="black" stroke="#3D3D3D" stroke-width="0.617291"/>
<path d="M920.928 395.409V244.053L893.767 247.662V398.895L920.928 395.409Z" fill="#3D3D3D" stroke="#3D3D3D" stroke-width="0.617291"/>
<rect x="-0.308646" y="0.308646" width="97.0115" height="151.239" transform="matrix(-1 0 0 1 892.841 247.389)" fill="black" stroke="#3D3D3D" stroke-width="0.617291"/>
<path d="M819.808 408.406V257.05L792.647 260.659V411.892L819.808 408.406Z" fill="#3D3D3D" stroke="#3D3D3D" stroke-width="0.617291"/>
<rect x="-0.308646" y="0.308646" width="97.0115" height="151.239" transform="matrix(-1 0 0 1 791.722 260.387)" fill="black" stroke="#3D3D3D" stroke-width="0.617291"/>
<path d="M718.687 421.368V270.012L691.321 273.622V424.854L718.687 421.368Z" fill="#3D3D3D" stroke="#3D3D3D" stroke-width="0.617291"/>
<path d="M690.702 273.658H633.868V424.896H690.702V273.658Z" fill="black" stroke="#3D3D3D" stroke-width="0.617291"/>
<rect width="2.72054" height="163.575" transform="matrix(-1 0 0 1 634.223 271.629)" fill="#3D3D3D"/>
<path d="M1527.65 502.685V351.33L1500.49 354.939V506.171L1527.65 502.685Z" fill="#3D3D3D" stroke="#3D3D3D" stroke-width="0.617291"/>
<rect x="-0.308646" y="0.308646" width="97.0115" height="151.239" transform="matrix(-1 0 0 1 1499.57 354.666)" fill="black" stroke="#3D3D3D" stroke-width="0.617291"/>
<path d="M1426.53 515.671V364.316L1399.37 367.925V519.157L1426.53 515.671Z" fill="#3D3D3D" stroke="#3D3D3D" stroke-width="0.617291"/>
<rect x="-0.308646" y="0.308646" width="97.0115" height="151.239" transform="matrix(-1 0 0 1 1398.44 367.652)" fill="black" stroke="#3D3D3D" stroke-width="0.617291"/>
<path d="M1325.41 528.653V377.297L1298.25 380.906V532.139L1325.41 528.653Z" fill="#3D3D3D" stroke="#3D3D3D" stroke-width="0.617291"/>
<rect x="-0.308646" y="0.308646" width="97.0115" height="151.239" transform="matrix(-1 0 0 1 1297.32 380.633)" fill="black" stroke="#3D3D3D" stroke-width="0.617291"/>
<path d="M1224.29 541.64V390.285L1197.13 393.894V545.126L1224.29 541.64Z" fill="#3D3D3D" stroke="#3D3D3D" stroke-width="0.617291"/>
<rect x="-0.308646" y="0.308646" width="97.0115" height="151.239" transform="matrix(-1 0 0 1 1196.2 393.622)" fill="black" stroke="#3D3D3D" stroke-width="0.617291"/>
<path d="M1123.17 554.636V403.28L1096.01 406.889V558.122L1123.17 554.636Z" fill="#3D3D3D" stroke="#3D3D3D" stroke-width="0.617291"/>
<rect x="-0.308646" y="0.308646" width="97.0115" height="151.239" transform="matrix(-1 0 0 1 1095.08 406.618)" fill="black" stroke="#3D3D3D" stroke-width="0.617291"/>
<path d="M1022.05 567.622V416.267L994.887 419.876V571.108L1022.05 567.622Z" fill="#3D3D3D" stroke="#3D3D3D" stroke-width="0.617291"/>
<rect x="-0.308646" y="0.308646" width="97.0115" height="151.239" transform="matrix(-1 0 0 1 993.961 419.603)" fill="black" stroke="#3D3D3D" stroke-width="0.617291"/>
<path d="M920.928 580.597V429.241L893.767 432.85V584.082L920.928 580.597Z" fill="#3D3D3D" stroke="#3D3D3D" stroke-width="0.617291"/>
<rect x="-0.308646" y="0.308646" width="97.0115" height="151.239" transform="matrix(-1 0 0 1 892.841 432.577)" fill="black" stroke="#3D3D3D" stroke-width="0.617291"/>
<path d="M819.808 593.593V442.237L792.647 445.847V597.079L819.808 593.593Z" fill="#3D3D3D" stroke="#3D3D3D" stroke-width="0.617291"/>
<rect x="-0.308646" y="0.308646" width="97.0115" height="151.239" transform="matrix(-1 0 0 1 791.722 445.574)" fill="black" stroke="#3D3D3D" stroke-width="0.617291"/>
<path d="M718.687 606.555V455.2L691.321 458.809V610.042L718.687 606.555Z" fill="#3D3D3D" stroke="#3D3D3D" stroke-width="0.617291"/>
<path d="M690.702 458.845H633.868V610.083H690.702V458.845Z" fill="black" stroke="#3D3D3D" stroke-width="0.617291"/>
<rect width="2.72054" height="163.575" transform="matrix(-1 0 0 1 634.223 456.817)" fill="#3D3D3D"/>
<path d="M1527.65 691.06V539.704L1500.49 543.313V694.546L1527.65 691.06Z" fill="#3D3D3D" stroke="#3D3D3D" stroke-width="0.617291"/>
<rect x="-0.308646" y="0.308646" width="97.0115" height="151.239" transform="matrix(-1 0 0 1 1499.57 543.04)" fill="black" stroke="#3D3D3D" stroke-width="0.617291"/>
<path d="M1426.53 703.907V552.551L1399.37 556.16V707.393L1426.53 703.907Z" fill="#3D3D3D" stroke="#3D3D3D" stroke-width="0.617291"/>
<rect x="-0.308646" y="0.308646" width="97.0115" height="151.239" transform="matrix(-1 0 0 1 1398.44 555.888)" fill="black" stroke="#3D3D3D" stroke-width="0.617291"/>
<path d="M1325.41 716.888V565.532L1298.25 569.141V720.374L1325.41 716.888Z" fill="#3D3D3D" stroke="#3D3D3D" stroke-width="0.617291"/>
<rect x="-0.308646" y="0.308646" width="97.0115" height="151.239" transform="matrix(-1 0 0 1 1297.32 568.869)" fill="black" stroke="#3D3D3D" stroke-width="0.617291"/>
<path d="M1224.29 729.877V578.521L1197.13 582.13V733.363L1224.29 729.877Z" fill="#3D3D3D" stroke="#3D3D3D" stroke-width="0.617291"/>
<rect x="-0.308646" y="0.308646" width="97.0115" height="151.239" transform="matrix(-1 0 0 1 1196.2 581.857)" fill="black" stroke="#3D3D3D" stroke-width="0.617291"/>
<path d="M1123.17 742.873V591.517L1096.01 595.126V746.359L1123.17 742.873Z" fill="#3D3D3D" stroke="#3D3D3D" stroke-width="0.617291"/>
<rect x="-0.308646" y="0.308646" width="97.0115" height="151.239" transform="matrix(-1 0 0 1 1095.08 594.854)" fill="black" stroke="#3D3D3D" stroke-width="0.617291"/>
<path d="M1022.05 755.858V604.503L994.887 608.112V759.344L1022.05 755.858Z" fill="#3D3D3D" stroke="#3D3D3D" stroke-width="0.617291"/>
<rect x="-0.308646" y="0.308646" width="97.0115" height="151.239" transform="matrix(-1 0 0 1 993.961 607.839)" fill="black" stroke="#3D3D3D" stroke-width="0.617291"/>
<path d="M920.929 768.832V617.477L893.768 621.086V772.318L920.929 768.832Z" fill="#3D3D3D" stroke="#3D3D3D" stroke-width="0.617291"/>
<rect x="-0.308646" y="0.308646" width="97.0115" height="151.239" transform="matrix(-1 0 0 1 892.842 620.813)" fill="black" stroke="#3D3D3D" stroke-width="0.617291"/>
<path d="M819.807 781.829V630.474L792.646 634.083V785.315L819.807 781.829Z" fill="#3D3D3D" stroke="#3D3D3D" stroke-width="0.617291"/>
<rect x="-0.308646" y="0.308646" width="97.0115" height="151.239" transform="matrix(-1 0 0 1 791.721 633.811)" fill="black" stroke="#3D3D3D" stroke-width="0.617291"/>
<path d="M718.685 794.791V643.435L691.319 647.045V798.278L718.685 794.791Z" fill="#3D3D3D" stroke="#3D3D3D" stroke-width="0.617291"/>
<path d="M690.702 647.081H633.868V798.32H690.702V647.081Z" fill="black" stroke="#3D3D3D" stroke-width="0.617291"/>
<rect width="2.72054" height="163.575" transform="matrix(-1 0 0 1 634.221 645.053)" fill="#3D3D3D"/>
<path d="M1540.46 134.046L1425.21 32.843L511.138 149.795L627.693 251.475L1540.46 134.046Z" fill="black"/>
<path d="M1540.46 134.046L1425.21 32.843L511.138 149.795L627.693 251.475L1540.46 134.046Z" fill="black"/>
<path d="M511.138 149.794L628.102 251.193V812.983L511.138 711.584L511.138 149.794Z" fill="#3D3D3D"/>
<path d="M2032.58 102.448L920.158 245.289V927.29L2032.58 784.448V102.448Z" fill="#848484"/>
<path d="M2032.75 325.993L920.333 468.834M2032.75 553.326L920.333 696.167M2032.58 102.448L920.158 245.289V927.29L2032.58 784.448V102.448Z" stroke="#3D3D3D" stroke-width="7.57778"/>
<rect x="-0.378889" y="0.378889" width="119.09" height="185.658" transform="matrix(-1 0 0 1 1737.9 173.52)" fill="black" stroke="#3D3D3D" stroke-width="0.757778"/>
<path d="M1648.24 371.169V185.367L1614.9 189.798V375.449L1648.24 371.169Z" fill="#3D3D3D" stroke="#3D3D3D" stroke-width="0.757778"/>
<rect x="-0.378889" y="0.378889" width="119.09" height="185.658" transform="matrix(-1 0 0 1 1613.76 189.462)" fill="black" stroke="#3D3D3D" stroke-width="0.757778"/>
<path d="M1524.11 387.124V201.322L1490.76 205.752V391.403L1524.11 387.124Z" fill="#3D3D3D" stroke="#3D3D3D" stroke-width="0.757778"/>
<rect x="-0.378889" y="0.378889" width="119.09" height="185.658" transform="matrix(-1 0 0 1 1489.63 205.417)" fill="black" stroke="#3D3D3D" stroke-width="0.757778"/>
<path d="M1399.97 403.064V217.262L1366.63 221.692V407.343L1399.97 403.064Z" fill="#3D3D3D" stroke="#3D3D3D" stroke-width="0.757778"/>
<rect x="-0.378889" y="0.378889" width="119.09" height="185.658" transform="matrix(-1 0 0 1 1365.49 221.357)" fill="black" stroke="#3D3D3D" stroke-width="0.757778"/>
<path d="M1275.84 418.991V233.189L1242.5 237.619V423.27L1275.84 418.991Z" fill="#3D3D3D" stroke="#3D3D3D" stroke-width="0.757778"/>
<rect x="-0.378889" y="0.378889" width="119.09" height="185.658" transform="matrix(-1 0 0 1 1241.36 237.284)" fill="black" stroke="#3D3D3D" stroke-width="0.757778"/>
<path d="M1151.71 434.945V249.143L1118.36 253.574V439.225L1151.71 434.945Z" fill="#3D3D3D" stroke="#3D3D3D" stroke-width="0.757778"/>
<rect x="-0.378889" y="0.378889" width="119.09" height="185.658" transform="matrix(-1 0 0 1 1117.23 253.24)" fill="black" stroke="#3D3D3D" stroke-width="0.757778"/>
<path d="M1027.57 450.858V265.056L993.977 269.487V455.138L1027.57 450.858Z" fill="#3D3D3D" stroke="#3D3D3D" stroke-width="0.757778"/>
<path d="M993.218 269.531H923.449V455.189H993.218V269.531Z" fill="black" stroke="#3D3D3D" stroke-width="0.757778"/>
<rect width="3.3397" height="200.803" transform="matrix(-1 0 0 1 923.884 267.041)" fill="#3D3D3D"/>
<rect x="-0.378889" y="0.378889" width="119.09" height="185.658" transform="matrix(-1 0 0 1 1737.9 400.852)" fill="black" stroke="#3D3D3D" stroke-width="0.757778"/>
<path d="M1648.24 598.502V412.7L1614.9 417.13V602.781L1648.24 598.502Z" fill="#3D3D3D" stroke="#3D3D3D" stroke-width="0.757778"/>
<rect x="-0.378889" y="0.378889" width="119.09" height="185.658" transform="matrix(-1 0 0 1 1613.76 416.796)" fill="black" stroke="#3D3D3D" stroke-width="0.757778"/>
<path d="M1524.11 614.455V428.653L1490.76 433.083V618.734L1524.11 614.455Z" fill="#3D3D3D" stroke="#3D3D3D" stroke-width="0.757778"/>
<rect x="-0.378889" y="0.378889" width="119.09" height="185.658" transform="matrix(-1 0 0 1 1489.63 432.75)" fill="black" stroke="#3D3D3D" stroke-width="0.757778"/>
<path d="M1399.97 630.397V444.595L1366.63 449.025V634.676L1399.97 630.397Z" fill="#3D3D3D" stroke="#3D3D3D" stroke-width="0.757778"/>
<rect x="-0.378889" y="0.378889" width="119.09" height="185.658" transform="matrix(-1 0 0 1 1365.49 448.69)" fill="black" stroke="#3D3D3D" stroke-width="0.757778"/>
<path d="M1275.84 646.324V460.522L1242.5 464.952V650.603L1275.84 646.324Z" fill="#3D3D3D" stroke="#3D3D3D" stroke-width="0.757778"/>
<rect x="-0.378889" y="0.378889" width="119.09" height="185.658" transform="matrix(-1 0 0 1 1241.36 464.618)" fill="black" stroke="#3D3D3D" stroke-width="0.757778"/>
<path d="M1151.7 662.278V476.476L1118.36 480.906V666.557L1151.7 662.278Z" fill="#3D3D3D" stroke="#3D3D3D" stroke-width="0.757778"/>
<rect x="-0.378889" y="0.378889" width="119.09" height="185.658" transform="matrix(-1 0 0 1 1117.23 480.572)" fill="black" stroke="#3D3D3D" stroke-width="0.757778"/>
<path d="M1027.57 678.19V492.388L993.977 496.819V682.47L1027.57 678.19Z" fill="#3D3D3D" stroke="#3D3D3D" stroke-width="0.757778"/>
<path d="M993.218 496.863H923.449V682.521H993.218V496.863Z" fill="black" stroke="#3D3D3D" stroke-width="0.757778"/>
<rect width="3.3397" height="200.803" transform="matrix(-1 0 0 1 923.884 494.374)" fill="#3D3D3D"/>
<rect x="-0.378889" y="0.378889" width="119.09" height="185.658" transform="matrix(-1 0 0 1 1737.9 631.928)" fill="black" stroke="#3D3D3D" stroke-width="0.757778"/>
<path d="M1648.24 829.579V643.777L1614.9 648.207V833.858L1648.24 829.579Z" fill="#3D3D3D" stroke="#3D3D3D" stroke-width="0.757778"/>
<rect x="-0.378889" y="0.378889" width="119.09" height="185.658" transform="matrix(-1 0 0 1 1613.76 647.872)" fill="black" stroke="#3D3D3D" stroke-width="0.757778"/>
<path d="M1524.11 845.532V659.73L1490.76 664.161V849.811L1524.11 845.532Z" fill="#3D3D3D" stroke="#3D3D3D" stroke-width="0.757778"/>
<rect x="-0.378889" y="0.378889" width="119.09" height="185.658" transform="matrix(-1 0 0 1 1489.63 663.826)" fill="black" stroke="#3D3D3D" stroke-width="0.757778"/>
<path d="M1399.97 861.473V675.671L1366.63 680.102V865.752L1399.97 861.473Z" fill="#3D3D3D" stroke="#3D3D3D" stroke-width="0.757778"/>
<rect x="-0.378889" y="0.378889" width="119.09" height="185.658" transform="matrix(-1 0 0 1 1365.49 679.767)" fill="black" stroke="#3D3D3D" stroke-width="0.757778"/>
<path d="M1275.84 877.399V691.597L1242.5 696.028V881.679L1275.84 877.399Z" fill="#3D3D3D" stroke="#3D3D3D" stroke-width="0.757778"/>
<rect x="-0.378889" y="0.378889" width="119.09" height="185.658" transform="matrix(-1 0 0 1 1241.36 695.693)" fill="black" stroke="#3D3D3D" stroke-width="0.757778"/>
<path d="M1151.7 893.355V707.553L1118.36 711.983V897.634L1151.7 893.355Z" fill="#3D3D3D" stroke="#3D3D3D" stroke-width="0.757778"/>
<rect x="-0.378889" y="0.378889" width="119.09" height="185.658" transform="matrix(-1 0 0 1 1117.23 711.648)" fill="black" stroke="#3D3D3D" stroke-width="0.757778"/>
<path d="M1027.57 909.267V723.465L993.975 727.896V913.547L1027.57 909.267Z" fill="#3D3D3D" stroke="#3D3D3D" stroke-width="0.757778"/>
<path d="M993.218 727.94H923.449V913.599H993.218V727.94Z" fill="black" stroke="#3D3D3D" stroke-width="0.757778"/>
<rect width="3.3397" height="200.803" transform="matrix(-1 0 0 1 923.883 725.45)" fill="#3D3D3D"/>
<path d="M2036.37 98.1445L1894.89 -26.0906L772.786 117.478L915.867 242.298L2036.37 98.1445Z" fill="black"/>
<path d="M2036.37 98.1445L1894.89 -26.0906L772.786 117.478L915.867 242.298L2036.37 98.1445Z" fill="black"/>
<path d="M772.786 117.478L916.369 241.954V931.599L772.786 807.123L772.786 117.478Z" fill="#3D3D3D"/>
<path d="M2811.18 49.2183L1387.23 232.063V1105.06L2811.18 922.217V49.2183Z" fill="#848484"/>
<path d="M2811.41 335.368L1387.45 518.213M2811.41 626.367L1387.45 809.212M2811.18 49.2183L1387.23 232.063V1105.06L2811.18 922.217V49.2183Z" stroke="#3D3D3D" stroke-width="9.69999"/>
<rect x="-0.484999" y="0.484999" width="152.442" height="237.653" transform="matrix(-1 0 0 1 1798.38 221.815)" fill="black" stroke="#3D3D3D" stroke-width="0.969999"/>
<path d="M1683.62 474.833V236.996L1640.94 242.668V480.311L1683.62 474.833Z" fill="#3D3D3D" stroke="#3D3D3D" stroke-width="0.969999"/>
<rect x="-0.484999" y="0.484999" width="152.442" height="237.653" transform="matrix(-1 0 0 1 1639.48 242.239)" fill="black" stroke="#3D3D3D" stroke-width="0.969999"/>
<path d="M1524.72 495.202V257.364L1481.72 263.037V500.68L1524.72 495.202Z" fill="#3D3D3D" stroke="#3D3D3D" stroke-width="0.969999"/>
<path d="M1480.75 263.093H1391.44V500.746H1480.75V263.093Z" fill="black" stroke="#3D3D3D" stroke-width="0.969999"/>
<rect width="4.275" height="257.039" transform="matrix(-1 0 0 1 1391.99 259.906)" fill="#3D3D3D"/>
<rect x="-0.484999" y="0.484999" width="152.442" height="237.653" transform="matrix(-1 0 0 1 1798.38 512.814)" fill="black" stroke="#3D3D3D" stroke-width="0.969999"/>
<path d="M1683.62 765.831V527.994L1640.94 533.666V771.309L1683.62 765.831Z" fill="#3D3D3D" stroke="#3D3D3D" stroke-width="0.969999"/>
<rect x="-0.484999" y="0.484999" width="152.442" height="237.653" transform="matrix(-1 0 0 1 1639.48 533.238)" fill="black" stroke="#3D3D3D" stroke-width="0.969999"/>
<path d="M1524.72 786.202V548.364L1481.72 554.037V791.68L1524.72 786.202Z" fill="#3D3D3D" stroke="#3D3D3D" stroke-width="0.969999"/>
<path d="M1480.75 554.092H1391.44V791.745H1480.75V554.092Z" fill="black" stroke="#3D3D3D" stroke-width="0.969999"/>
<rect width="4.275" height="257.039" transform="matrix(-1 0 0 1 1391.99 550.905)" fill="#3D3D3D"/>
<rect x="-0.484999" y="0.484999" width="152.442" height="237.653" transform="matrix(-1 0 0 1 1798.38 808.605)" fill="black" stroke="#3D3D3D" stroke-width="0.969999"/>
<path d="M1683.62 1061.62V823.785L1640.94 829.457V1067.1L1683.62 1061.62Z" fill="#3D3D3D" stroke="#3D3D3D" stroke-width="0.969999"/>
<rect x="-0.484999" y="0.484999" width="152.442" height="237.653" transform="matrix(-1 0 0 1 1639.49 829.028)" fill="black" stroke="#3D3D3D" stroke-width="0.969999"/>
<path d="M1524.72 1081.99V844.154L1481.71 849.826V1087.47L1524.72 1081.99Z" fill="#3D3D3D" stroke="#3D3D3D" stroke-width="0.969999"/>
<path d="M1480.74 849.882H1391.44V1087.54H1480.74V849.882Z" fill="black" stroke="#3D3D3D" stroke-width="0.969999"/>
<rect width="4.275" height="257.039" transform="matrix(-1 0 0 1 1391.99 846.695)" fill="#3D3D3D"/>
<path d="M2816.04 43.7095L2634.94 -115.319L1198.58 68.4579L1381.73 228.235L2816.04 43.7095Z" fill="black"/>
<path d="M2816.04 43.7095L2634.94 -115.319L1198.58 68.4579L1381.73 228.235L2816.04 43.7095Z" fill="black"/>
<path d="M1198.58 68.4556L1382.38 227.792V1110.58L1198.58 951.241L1198.58 68.4556Z" fill="#3D3D3D"/>
<rect x="409.001" y="493.139" width="56" height="610.595" fill="black"/>
<rect x="77" y="506" width="720.452" height="272" fill="#848484" stroke="black" stroke-width="30"/>
<rect x="68.001" y="682.353" width="17.2843" height="74.5714" fill="#3D3D3D"/>
<path d="M78.5352 761.887C77.9396 763.556 75.3465 763.556 74.7509 761.887L74.0747 759.992C73.8083 759.245 73.0444 758.74 72.1825 758.74H69.9942C68.0669 758.74 67.2656 756.494 68.8248 755.463L70.5952 754.292C71.2925 753.83 71.5843 753.013 71.3179 752.266L70.6417 750.371C70.0461 748.702 72.144 747.314 73.7032 748.346L75.4736 749.517C76.1709 749.978 77.1151 749.978 77.8124 749.517L79.5828 748.346C81.142 747.314 83.2399 748.702 82.6443 750.371L81.9681 752.266C81.7018 753.013 81.9936 753.83 82.6908 754.292L84.4612 755.463C86.0204 756.494 85.2191 758.74 83.2918 758.74H81.1035C80.2416 758.74 79.4777 759.245 79.2114 759.992L78.5352 761.887Z" fill="#3D3D3D"/>
<path d="M78.5352 677.39C77.9396 675.721 75.3465 675.721 74.7509 677.39L74.0747 679.286C73.8083 680.032 73.0444 680.537 72.1825 680.537H69.9942C68.0669 680.537 67.2656 682.783 68.8248 683.815L70.5952 684.986C71.2925 685.447 71.5843 686.265 71.3179 687.011L70.6417 688.906C70.0461 690.575 72.144 691.963 73.7032 690.932L75.4736 689.761C76.1709 689.299 77.1151 689.299 77.8124 689.761L79.5828 690.932C81.142 691.963 83.2399 690.575 82.6443 688.906L81.9681 687.011C81.7018 686.265 81.9936 685.447 82.6908 684.986L84.4612 683.815C86.0204 682.783 85.2191 680.537 83.2918 680.537H81.1035C80.2416 680.537 79.4777 680.032 79.2114 679.286L78.5352 677.39Z" fill="#3D3D3D"/>
<rect x="788.717" y="682.353" width="17.2843" height="74.5714" fill="#3D3D3D"/>
<path d="M799.251 761.887C798.655 763.556 796.062 763.556 795.467 761.887L794.79 759.992C794.524 759.245 793.76 758.74 792.898 758.74H790.71C788.783 758.74 787.981 756.494 789.541 755.463L791.311 754.292C792.008 753.83 792.3 753.013 792.034 752.266L791.358 750.371C790.762 748.702 792.86 747.314 794.419 748.346L796.189 749.517C796.887 749.978 797.831 749.978 798.528 749.517L800.299 748.346C801.858 747.314 803.956 748.702 803.36 750.371L802.684 752.266C802.418 753.013 802.709 753.83 803.407 754.292L805.177 755.463C806.736 756.494 805.935 758.74 804.008 758.74H801.819C800.957 758.74 800.194 759.245 799.927 759.992L799.251 761.887Z" fill="#3D3D3D"/>
<path d="M799.251 677.39C798.655 675.721 796.062 675.721 795.467 677.39L794.79 679.286C794.524 680.032 793.76 680.537 792.898 680.537H790.71C788.783 680.537 787.981 682.783 789.541 683.815L791.311 684.986C792.008 685.447 792.3 686.265 792.034 687.011L791.358 688.906C790.762 690.575 792.86 691.963 794.419 690.932L796.189 689.761C796.887 689.299 797.831 689.299 798.528 689.761L800.299 690.932C801.858 691.963 803.956 690.575 803.36 688.906L802.684 687.011C802.418 686.265 802.709 685.447 803.407 684.986L805.177 683.815C806.736 682.783 805.935 680.537 804.008 680.537H801.819C800.957 680.537 800.194 680.032 799.927 679.286L799.251 677.39Z" fill="#3D3D3D"/>
<rect x="68.001" y="527.353" width="17.2843" height="74.5714" fill="#3D3D3D"/>
<path d="M78.5352 606.887C77.9396 608.556 75.3465 608.556 74.7509 606.887L74.0747 604.992C73.8083 604.245 73.0444 603.74 72.1825 603.74H69.9942C68.0669 603.74 67.2656 601.494 68.8248 600.463L70.5952 599.292C71.2925 598.83 71.5843 598.013 71.3179 597.266L70.6417 595.371C70.0461 593.702 72.144 592.314 73.7032 593.346L75.4736 594.517C76.1709 594.978 77.1151 594.978 77.8124 594.517L79.5828 593.346C81.142 592.314 83.2399 593.702 82.6443 595.371L81.9681 597.266C81.7018 598.013 81.9936 598.83 82.6908 599.292L84.4612 600.463C86.0204 601.494 85.2191 603.74 83.2918 603.74H81.1035C80.2416 603.74 79.4777 604.245 79.2114 604.992L78.5352 606.887Z" fill="#3D3D3D"/>
<path d="M78.5352 522.39C77.9396 520.721 75.3465 520.721 74.7509 522.39L74.0747 524.286C73.8083 525.032 73.0444 525.537 72.1825 525.537H69.9942C68.0669 525.537 67.2656 527.783 68.8248 528.815L70.5952 529.986C71.2925 530.447 71.5843 531.265 71.3179 532.011L70.6417 533.906C70.0461 535.575 72.144 536.963 73.7032 535.932L75.4736 534.761C76.1709 534.299 77.1151 534.299 77.8124 534.761L79.5828 535.932C81.142 536.963 83.2399 535.575 82.6443 533.906L81.9681 532.011C81.7018 531.265 81.9936 530.447 82.6908 529.986L84.4612 528.815C86.0204 527.783 85.2191 525.537 83.2918 525.537H81.1035C80.2416 525.537 79.4777 525.032 79.2114 524.286L78.5352 522.39Z" fill="#3D3D3D"/>
<rect x="180.65" y="499.139" width="15.9241" height="80.941" transform="rotate(90 180.65 499.139)" fill="#3D3D3D"/>
<path d="M94.3245 508.844C92.5129 508.295 92.5129 505.906 94.3245 505.358L96.3815 504.735C97.1917 504.489 97.7402 503.786 97.7402 502.991V500.975C97.7402 499.2 100.178 498.461 101.297 499.898L102.569 501.529C103.069 502.171 103.957 502.44 104.767 502.195L106.824 501.572C108.636 501.023 110.142 502.956 109.023 504.392L107.751 506.024C107.25 506.666 107.25 507.536 107.751 508.178L109.022 509.809C110.142 511.246 108.636 513.179 106.824 512.63L104.767 512.007C103.957 511.762 103.069 512.03 102.569 512.673L101.297 514.304C100.178 515.74 97.7402 515.002 97.7402 513.227V511.21C97.7402 510.416 97.1917 509.713 96.3815 509.467L94.3245 508.844Z" fill="#3D3D3D"/>
<path d="M186.038 508.844C187.849 508.295 187.849 505.906 186.038 505.358L183.981 504.735C183.171 504.489 182.622 503.786 182.622 502.991V500.975C182.622 499.2 180.185 498.461 179.065 499.898L177.794 501.529C177.293 502.171 176.405 502.44 175.595 502.195L173.538 501.572C171.727 501.023 170.22 502.956 171.34 504.392L172.611 506.024C173.112 506.666 173.112 507.536 172.611 508.178L171.34 509.809C170.22 511.246 171.727 513.179 173.538 512.63L175.595 512.007C176.405 511.762 177.293 512.03 177.794 512.673L179.065 514.304C180.185 515.74 182.622 515.002 182.622 513.227V511.21C182.622 510.416 183.171 509.713 183.981 509.467L186.038 508.844Z" fill="#3D3D3D"/>
<rect x="329.353" y="499.139" width="15.9241" height="80.941" transform="rotate(90 329.353 499.139)" fill="#3D3D3D"/>
<path d="M243.026 508.844C241.214 508.295 241.214 505.906 243.026 505.358L245.083 504.735C245.893 504.489 246.441 503.786 246.441 502.991V500.975C246.441 499.2 248.879 498.461 249.999 499.898L251.27 501.529C251.771 502.171 252.658 502.44 253.468 502.195L255.525 501.572C257.337 501.023 258.843 502.956 257.724 504.392L256.452 506.024C255.952 506.666 255.952 507.536 256.452 508.178L257.724 509.809C258.843 511.246 257.337 513.179 255.525 512.63L253.468 512.007C252.658 511.762 251.771 512.03 251.27 512.673L249.999 514.304C248.879 515.74 246.441 515.002 246.441 513.227V511.21C246.441 510.416 245.893 509.713 245.083 509.467L243.026 508.844Z" fill="#3D3D3D"/>
<path d="M334.74 508.844C336.552 508.295 336.552 505.906 334.74 505.358L332.683 504.735C331.873 504.489 331.324 503.786 331.324 502.991V500.975C331.324 499.2 328.887 498.461 327.767 499.898L326.496 501.529C325.995 502.171 325.108 502.44 324.297 502.195L322.24 501.572C320.429 501.023 318.922 502.956 320.042 504.392L321.313 506.024C321.814 506.666 321.814 507.536 321.313 508.178L320.042 509.809C318.922 511.246 320.429 513.179 322.24 512.63L324.297 512.007C325.108 511.762 325.995 512.03 326.496 512.673L327.767 514.304C328.887 515.74 331.324 515.002 331.324 513.227V511.21C331.324 510.416 331.873 509.713 332.683 509.467L334.74 508.844Z" fill="#3D3D3D"/>
<rect x="478.055" y="499.139" width="15.9241" height="80.941" transform="rotate(90 478.055 499.139)" fill="#3D3D3D"/>
<path d="M391.728 508.844C389.916 508.295 389.916 505.906 391.728 505.358L393.785 504.735C394.595 504.489 395.144 503.786 395.144 502.991V500.975C395.144 499.2 397.581 498.461 398.701 499.898L399.972 501.529C400.473 502.171 401.36 502.44 402.17 502.195L404.227 501.572C406.039 501.023 407.545 502.956 406.426 504.392L405.155 506.024C404.654 506.666 404.654 507.536 405.155 508.178L406.426 509.809C407.545 511.246 406.039 513.179 404.227 512.63L402.17 512.007C401.36 511.762 400.473 512.03 399.972 512.673L398.701 514.304C397.581 515.74 395.144 515.002 395.144 513.227V511.21C395.144 510.416 394.595 509.713 393.785 509.467L391.728 508.844Z" fill="#3D3D3D"/>
<path d="M483.442 508.844C485.254 508.295 485.254 505.906 483.442 505.358L481.385 504.735C480.575 504.489 480.026 503.786 480.026 502.991V500.975C480.026 499.2 477.589 498.461 476.469 499.898L475.198 501.529C474.697 502.171 473.81 502.44 473 502.195L470.943 501.572C469.131 501.023 467.624 502.956 468.744 504.392L470.015 506.024C470.516 506.666 470.516 507.536 470.015 508.178L468.744 509.809C467.624 511.246 469.131 513.179 470.943 512.63L473 512.007C473.81 511.762 474.697 512.03 475.198 512.673L476.469 514.304C477.589 515.74 480.026 515.002 480.026 513.227V511.21C480.026 510.416 480.575 509.713 481.385 509.467L483.442 508.844Z" fill="#3D3D3D"/>
<rect x="626.757" y="499.139" width="15.9241" height="80.941" transform="rotate(90 626.757 499.139)" fill="#3D3D3D"/>
<path d="M540.431 508.844C538.619 508.295 538.619 505.906 540.431 505.358L542.488 504.735C543.298 504.489 543.847 503.786 543.847 502.991V500.975C543.847 499.2 546.284 498.461 547.404 499.898L548.675 501.529C549.176 502.171 550.063 502.44 550.874 502.195L552.931 501.572C554.742 501.023 556.249 502.956 555.129 504.392L553.858 506.024C553.357 506.666 553.357 507.536 553.858 508.178L555.129 509.809C556.249 511.246 554.742 513.179 552.931 512.63L550.874 512.007C550.063 511.762 549.176 512.03 548.675 512.673L547.404 514.304C546.284 515.74 543.847 515.002 543.847 513.227V511.21C543.847 510.416 543.298 509.713 542.488 509.467L540.431 508.844Z" fill="#3D3D3D"/>
<path d="M632.144 508.844C633.956 508.295 633.956 505.906 632.144 505.358L630.087 504.735C629.277 504.489 628.729 503.786 628.729 502.991V500.975C628.729 499.2 626.291 498.461 625.171 499.898L623.9 501.529C623.399 502.171 622.512 502.44 621.702 502.195L619.645 501.572C617.833 501.023 616.327 502.956 617.446 504.392L618.718 506.024C619.218 506.666 619.218 507.536 618.718 508.178L617.446 509.809C616.327 511.246 617.833 513.179 619.645 512.63L621.702 512.007C622.512 511.762 623.399 512.03 623.9 512.673L625.171 514.304C626.291 515.74 628.729 515.002 628.729 513.227V511.21C628.729 510.416 629.277 509.713 630.087 509.467L632.144 508.844Z" fill="#3D3D3D"/>
<rect x="775.458" y="499.139" width="15.9241" height="80.941" transform="rotate(90 775.458 499.139)" fill="#3D3D3D"/>
<path d="M689.132 508.844C687.321 508.295 687.321 505.906 689.132 505.358L691.189 504.735C691.999 504.489 692.548 503.786 692.548 502.991V500.975C692.548 499.2 694.985 498.461 696.105 499.898L697.376 501.529C697.877 502.171 698.765 502.44 699.575 502.195L701.632 501.572C703.443 501.023 704.95 502.956 703.83 504.392L702.559 506.024C702.058 506.666 702.058 507.536 702.559 508.178L703.83 509.809C704.95 511.246 703.443 513.179 701.632 512.63L699.575 512.007C698.765 511.762 697.877 512.03 697.376 512.673L696.105 514.304C694.985 515.74 692.548 515.002 692.548 513.227V511.21C692.548 510.416 691.999 509.713 691.189 509.467L689.132 508.844Z" fill="#3D3D3D"/>
<path d="M780.845 508.844C782.657 508.295 782.657 505.906 780.845 505.358L778.788 504.735C777.978 504.489 777.43 503.786 777.43 502.991V500.975C777.43 499.2 774.992 498.461 773.873 499.898L772.601 501.529C772.101 502.171 771.213 502.44 770.403 502.195L768.346 501.572C766.534 501.023 765.028 502.956 766.147 504.392L767.419 506.024C767.919 506.666 767.919 507.536 767.419 508.178L766.147 509.809C765.028 511.246 766.534 513.179 768.346 512.63L770.403 512.007C771.213 511.762 772.101 512.03 772.601 512.673L773.873 514.304C774.992 515.74 777.43 515.002 777.43 513.227V511.21C777.43 510.416 777.978 509.713 778.788 509.467L780.845 508.844Z" fill="#3D3D3D"/>
<rect x="180.65" y="770.139" width="15.9241" height="80.941" transform="rotate(90 180.65 770.139)" fill="#3D3D3D"/>
<path d="M94.3245 779.844C92.5129 779.295 92.5129 776.906 94.3245 776.358L96.3815 775.735C97.1917 775.489 97.7402 774.786 97.7402 773.991V771.975C97.7402 770.2 100.178 769.461 101.297 770.898L102.569 772.529C103.069 773.171 103.957 773.44 104.767 773.195L106.824 772.572C108.636 772.023 110.142 773.956 109.023 775.392L107.751 777.024C107.25 777.666 107.25 778.536 107.751 779.178L109.022 780.809C110.142 782.246 108.636 784.179 106.824 783.63L104.767 783.007C103.957 782.762 103.069 783.03 102.569 783.673L101.297 785.304C100.178 786.74 97.7402 786.002 97.7402 784.227V782.21C97.7402 781.416 97.1917 780.713 96.3815 780.467L94.3245 779.844Z" fill="#3D3D3D"/>
<path d="M186.038 779.844C187.849 779.295 187.849 776.906 186.038 776.358L183.981 775.735C183.171 775.489 182.622 774.786 182.622 773.991V771.975C182.622 770.2 180.185 769.461 179.065 770.898L177.794 772.529C177.293 773.171 176.405 773.44 175.595 773.195L173.538 772.572C171.727 772.023 170.22 773.956 171.34 775.392L172.611 777.024C173.112 777.666 173.112 778.536 172.611 779.178L171.34 780.809C170.22 782.246 171.727 784.179 173.538 783.63L175.595 783.007C176.405 782.762 177.293 783.03 177.794 783.673L179.065 785.304C180.185 786.74 182.622 786.002 182.622 784.227V782.21C182.622 781.416 183.171 780.713 183.981 780.467L186.038 779.844Z" fill="#3D3D3D"/>
<rect x="329.353" y="770.139" width="15.9241" height="80.941" transform="rotate(90 329.353 770.139)" fill="#3D3D3D"/>
<path d="M243.026 779.844C241.214 779.295 241.214 776.906 243.026 776.358L245.083 775.735C245.893 775.489 246.441 774.786 246.441 773.991V771.975C246.441 770.2 248.879 769.461 249.999 770.898L251.27 772.529C251.771 773.171 252.658 773.44 253.468 773.195L255.525 772.572C257.337 772.023 258.843 773.956 257.724 775.392L256.452 777.024C255.952 777.666 255.952 778.536 256.452 779.178L257.724 780.809C258.843 782.246 257.337 784.179 255.525 783.63L253.468 783.007C252.658 782.762 251.771 783.03 251.27 783.673L249.999 785.304C248.879 786.74 246.441 786.002 246.441 784.227V782.21C246.441 781.416 245.893 780.713 245.083 780.467L243.026 779.844Z" fill="#3D3D3D"/>
<path d="M334.74 779.844C336.552 779.295 336.552 776.906 334.74 776.358L332.683 775.735C331.873 775.489 331.324 774.786 331.324 773.991V771.975C331.324 770.2 328.887 769.461 327.767 770.898L326.496 772.529C325.995 773.171 325.108 773.44 324.297 773.195L322.24 772.572C320.429 772.023 318.922 773.956 320.042 775.392L321.313 777.024C321.814 777.666 321.814 778.536 321.313 779.178L320.042 780.809C318.922 782.246 320.429 784.179 322.24 783.63L324.297 783.007C325.108 782.762 325.995 783.03 326.496 783.673L327.767 785.304C328.887 786.74 331.324 786.002 331.324 784.227V782.21C331.324 781.416 331.873 780.713 332.683 780.467L334.74 779.844Z" fill="#3D3D3D"/>
<rect x="478.055" y="770.139" width="15.9241" height="80.941" transform="rotate(90 478.055 770.139)" fill="#3D3D3D"/>
<path d="M391.728 779.844C389.916 779.295 389.916 776.906 391.728 776.358L393.785 775.735C394.595 775.489 395.144 774.786 395.144 773.991V771.975C395.144 770.2 397.581 769.461 398.701 770.898L399.972 772.529C400.473 773.171 401.36 773.44 402.17 773.195L404.227 772.572C406.039 772.023 407.545 773.956 406.426 775.392L405.155 777.024C404.654 777.666 404.654 778.536 405.155 779.178L406.426 780.809C407.545 782.246 406.039 784.179 404.227 783.63L402.17 783.007C401.36 782.762 400.473 783.03 399.972 783.673L398.701 785.304C397.581 786.74 395.144 786.002 395.144 784.227V782.21C395.144 781.416 394.595 780.713 393.785 780.467L391.728 779.844Z" fill="#3D3D3D"/>
<path d="M483.442 779.844C485.254 779.295 485.254 776.906 483.442 776.358L481.385 775.735C480.575 775.489 480.026 774.786 480.026 773.991V771.975C480.026 770.2 477.589 769.461 476.469 770.898L475.198 772.529C474.697 773.171 473.81 773.44 473 773.195L470.943 772.572C469.131 772.023 467.624 773.956 468.744 775.392L470.015 777.024C470.516 777.666 470.516 778.536 470.015 779.178L468.744 780.809C467.624 782.246 469.131 784.179 470.943 783.63L473 783.007C473.81 782.762 474.697 783.03 475.198 783.673L476.469 785.304C477.589 786.74 480.026 786.002 480.026 784.227V782.21C480.026 781.416 480.575 780.713 481.385 780.467L483.442 779.844Z" fill="#3D3D3D"/>
<rect x="626.757" y="770.139" width="15.9241" height="80.941" transform="rotate(90 626.757 770.139)" fill="#3D3D3D"/>
<path d="M540.431 779.844C538.619 779.295 538.619 776.906 540.431 776.358L542.488 775.735C543.298 775.489 543.847 774.786 543.847 773.991V771.975C543.847 770.2 546.284 769.461 547.404 770.898L548.675 772.529C549.176 773.171 550.063 773.44 550.874 773.195L552.931 772.572C554.742 772.023 556.249 773.956 555.129 775.392L553.858 777.024C553.357 777.666 553.357 778.536 553.858 779.178L555.129 780.809C556.249 782.246 554.742 784.179 552.931 783.63L550.874 783.007C550.063 782.762 549.176 783.03 548.675 783.673L547.404 785.304C546.284 786.74 543.847 786.002 543.847 784.227V782.21C543.847 781.416 543.298 780.713 542.488 780.467L540.431 779.844Z" fill="#3D3D3D"/>
<path d="M632.144 779.844C633.956 779.295 633.956 776.906 632.144 776.358L630.087 775.735C629.277 775.489 628.729 774.786 628.729 773.991V771.975C628.729 770.2 626.291 769.461 625.171 770.898L623.9 772.529C623.399 773.171 622.512 773.44 621.702 773.195L619.645 772.572C617.833 772.023 616.327 773.956 617.446 775.392L618.718 777.024C619.218 777.666 619.218 778.536 618.718 779.178L617.446 780.809C616.327 782.246 617.833 784.179 619.645 783.63L621.702 783.007C622.512 782.762 623.399 783.03 623.9 783.673L625.171 785.304C626.291 786.74 628.729 786.002 628.729 784.227V782.21C628.729 781.416 629.277 780.713 630.087 780.467L632.144 779.844Z" fill="#3D3D3D"/>
<rect x="775.458" y="770.139" width="15.9241" height="80.941" transform="rotate(90 775.458 770.139)" fill="#3D3D3D"/>
<path d="M689.132 779.844C687.321 779.295 687.321 776.906 689.132 776.358L691.189 775.735C691.999 775.489 692.548 774.786 692.548 773.991V771.975C692.548 770.2 694.985 769.461 696.105 770.898L697.376 772.529C697.877 773.171 698.765 773.44 699.575 773.195L701.632 772.572C703.443 772.023 704.95 773.956 703.83 775.392L702.559 777.024C702.058 777.666 702.058 778.536 702.559 779.178L703.83 780.809C704.95 782.246 703.443 784.179 701.632 783.63L699.575 783.007C698.765 782.762 697.877 783.03 697.376 783.673L696.105 785.304C694.985 786.74 692.548 786.002 692.548 784.227V782.21C692.548 781.416 691.999 780.713 691.189 780.467L689.132 779.844Z" fill="#3D3D3D"/>
<path d="M780.845 779.844C782.657 779.295 782.657 776.906 780.845 776.358L778.788 775.735C777.978 775.489 777.43 774.786 777.43 773.991V771.975C777.43 770.2 774.992 769.461 773.873 770.898L772.601 772.529C772.101 773.171 771.213 773.44 770.403 773.195L768.346 772.572C766.534 772.023 765.028 773.956 766.147 775.392L767.419 777.024C767.919 777.666 767.919 778.536 767.419 779.178L766.147 780.809C765.028 782.246 766.534 784.179 768.346 783.63L770.403 783.007C771.213 782.762 772.101 783.03 772.601 783.673L773.873 785.304C774.992 786.74 777.43 786.002 777.43 784.227V782.21C777.43 781.416 777.978 780.713 778.788 780.467L780.845 779.844Z" fill="#3D3D3D"/>
<rect x="788.717" y="527.353" width="17.2843" height="74.5714" fill="#3D3D3D"/>
<path d="M799.251 606.887C798.655 608.556 796.062 608.556 795.467 606.887L794.79 604.992C794.524 604.245 793.76 603.74 792.898 603.74H790.71C788.783 603.74 787.981 601.494 789.541 600.463L791.311 599.292C792.008 598.83 792.3 598.013 792.034 597.266L791.358 595.371C790.762 593.702 792.86 592.314 794.419 593.346L796.189 594.517C796.887 594.978 797.831 594.978 798.528 594.517L800.299 593.346C801.858 592.314 803.956 593.702 803.36 595.371L802.684 597.266C802.418 598.013 802.709 598.83 803.407 599.292L805.177 600.463C806.736 601.494 805.935 603.74 804.008 603.74H801.819C800.957 603.74 800.194 604.245 799.927 604.992L799.251 606.887Z" fill="#3D3D3D"/>
<path d="M799.251 522.39C798.655 520.721 796.062 520.721 795.467 522.39L794.79 524.286C794.524 525.032 793.76 525.537 792.898 525.537H790.71C788.783 525.537 787.981 527.783 789.541 528.815L791.311 529.986C792.008 530.447 792.3 531.265 792.034 532.011L791.358 533.906C790.762 535.575 792.86 536.963 794.419 535.932L796.189 534.761C796.887 534.299 797.831 534.299 798.528 534.761L800.299 535.932C801.858 536.963 803.956 535.575 803.36 533.906L802.684 532.011C802.418 531.265 802.709 530.447 803.407 529.986L805.177 528.815C806.736 527.783 805.935 525.537 804.008 525.537H801.819C800.957 525.537 800.194 525.032 799.927 524.286L799.251 522.39Z" fill="#3D3D3D"/>
<rect width="49.1709" height="24.5855" transform="matrix(0.743145 0.669131 0 1 9 355.139)" fill="black"/>
<rect width="4.09758" height="24.5855" transform="matrix(0.743145 0.669131 0 1 19.8398 364.9)" fill="white"/>
<rect width="4.09758" height="49.1709" transform="matrix(0 -1 0.743145 0.669131 9 369.398)" fill="white"/>
<path d="M169.906 430.139L124.716 390.117V374.759L169.906 414.928V430.139Z" fill="white"/>
<path d="M169.906 414.78L124.716 374.759V360.139L169.906 400.16V414.78Z" fill="black"/>
<path d="M299 371.139L361.62 426.597V447.879L299 392.217V371.139Z" fill="white"/>
<path d="M299 392.421L361.62 447.879V468.138L299 412.68V392.421Z" fill="black"/>
<path d="M609.494 493.277L530 422.875V405.21L609.494 475.611V493.277Z" fill="white"/>
<path d="M609.494 475.871L530 405.469V387.804L609.494 458.206V475.871Z" fill="#848484"/>
<path d="M609.494 458.206L530 387.804V370.139L609.494 440.541V458.206Z" fill="black"/>
<rect width="53.9683" height="80.9525" transform="matrix(0.75471 0.656059 0 1 784 394.14)" fill="black"/>
<rect width="53.9683" height="80.9525" transform="matrix(0.75471 0.656059 0 1 824.729 429.547)" fill="white"/>
<rect width="53.9683" height="80.9525" transform="matrix(0.75471 0.656059 0 1 865.463 464.953)" fill="#848484"/>
<path d="M1218 468.139L1371 603.639V637.639L1218 502.139V468.139Z" fill="white"/>
<path d="M1218 501.639L1371 637.139V671.139L1218 535.639V501.639Z" fill="#848484"/>
<path d="M1218 535.639L1371 671.139V705.139L1218 569.639V535.639Z" fill="black"/>
</g>
<defs>
<clipPath id="clip0_36_7574">
<rect width="1728" height="1103.14" fill="white" transform="translate(0 0.590332)"/>
</clipPath>
</defs>
</svg>
