<svg width="1728" height="1834" viewBox="0 0 1728 1834" fill="none" xmlns="http://www.w3.org/2000/svg">
<g clip-path="url(#clip0_107_15264)">
<rect x="758.999" y="151" width="651" height="138" fill="#3D3D3D"/>
<rect x="813.999" y="311.75" width="702" height="138" fill="#3D3D3D"/>
<rect x="919.999" y="472.25" width="702" height="138" fill="#3D3D3D"/>
<rect width="702" height="138.501" transform="matrix(-1 0 0 1 1728 634)" fill="#3D3D3D"/>
<rect width="702" height="138" transform="matrix(-1 0 0 1 1622 795.75)" fill="#3D3D3D"/>
<rect width="702" height="138" transform="matrix(-1 0 0 1 1516 957)" fill="#3D3D3D"/>
<rect width="702" height="138" transform="matrix(-1 0 0 1 1410 1119)" fill="#3D3D3D"/>
<rect width="702" height="138" transform="matrix(-1 0 0 1 1305 1280)" fill="#3D3D3D"/>
<rect width="702" height="138" transform="matrix(-1 0 0 1 1199 1442)" fill="#3D3D3D"/>
<path d="M759 288L1410 288.25L1516 311.75H813.999L759 288Z" fill="black"/>
<path d="M707.999 134H1364L1410 151H758.999L707.999 134Z" fill="black"/>
<path d="M813.999 449.25H1516L1622 472.75H919.999L813.999 449.25Z" fill="black"/>
<path d="M919.999 610.25H1622L1728 633.75H1026L919.999 610.25Z" fill="black"/>
<path d="M1728 772.25H1026L919.998 795.75H1622L1728 772.25Z" fill="black"/>
<path d="M1622.14 933.75H920.138L814.138 957.25H1516.14L1622.14 933.75Z" fill="black"/>
<path d="M1516.27 1095.25H814.266L708.266 1118.75H1410.27L1516.27 1095.25Z" fill="black"/>
<path d="M1410.41 1256.75H708.406L602.406 1280.25H1304.41L1410.41 1256.75Z" fill="black"/>
<path d="M1304.64 1418.25H602.64L496.64 1441.75H1198.64L1304.64 1418.25Z" fill="black"/>
<path d="M684 0L1385 0L1364 134H708L684 0Z" fill="#3D3D3D"/>
<path d="M104.812 770L156.011 748.234L185.651 821.511L158.718 827.478L145.252 830.462C145.252 830.462 139.397 830.767 134.408 828.79C128.125 826.301 125.042 817.585 125.042 817.585L118.299 801.723L104.812 770Z" fill="black"/>
<path d="M-59.6618 261.449L316.759 216.979L598.707 728.944L161.202 826.928L-59.6618 261.449Z" fill="black"/>
<path d="M157.467 753.47L563.107 660.896L550.13 725.665L167.165 810.989C167.165 810.989 157.547 813.643 150.016 809.929C142.485 806.214 137.591 796.219 136.27 790.309C134.948 784.398 136.942 772.962 139.877 767.455C142.812 761.948 157.467 753.47 157.467 753.47Z" fill="white"/>
<path d="M-20.6017 249.381L324.142 210.335L471.356 430.117L544.963 540.008L581.766 594.954L600.168 622.427L609.369 636.163L613.969 643.032C613.969 643.032 616.563 646.326 616.329 649.546C616.039 653.544 614.159 654.969 610.269 655.937C606.23 656.943 603.896 654.042 599.74 654.275C596.989 654.43 592.821 655.652 592.821 655.652L567.072 661.404L515.574 672.908L412.579 695.916L206.587 741.932L-20.6017 249.381Z" fill="#3D3D3D"/>
<path d="M-80.509 257.736C-76.3101 251.697 -64.3025 247.185 -64.3025 247.185L-46.04 239.951L-36.4607 236.76C-36.4607 236.76 -29.8867 234.822 -27.1357 237.495C-24.8105 239.754 -23.9068 241.976 -23.9068 241.976L-20.2473 249.912L-12.9284 265.785L1.70945 297.531L30.9852 361.023L89.5365 488.006L206.639 741.973L182.78 747.869C182.78 747.869 168.334 750.855 158.634 754.425C155.863 755.445 151.219 757.412 151.219 757.412L144.914 762.049C144.914 762.049 141.655 764.554 140.28 766.728C139.005 768.745 137.918 772.408 137.918 772.408L110.618 783.558L2.05311 523.532L-52.2295 393.519L-78.2619 328.082C-78.2619 328.082 -85.0155 308.909 -87.6865 295.784C-89.2475 288.114 -89.6656 284.057 -88.969 276.552C-88.2892 269.229 -84.7075 263.774 -80.509 257.736Z" fill="black"/>
<path d="M218.795 364.949C230.594 393.621 216.916 426.429 188.244 438.228C159.572 450.027 126.764 436.349 114.965 407.677C103.166 379.006 116.844 346.198 145.516 334.399C174.188 322.599 206.996 336.278 218.795 364.949Z" stroke="black" stroke-width="3"/>
<path d="M473.784 612.486L478.515 597.719L495.722 598.533L465.056 576.558L473.784 612.486Z" fill="black" stroke="black"/>
<path d="M756.373 1140.19L705.174 1118.43L675.534 1191.7L702.467 1197.67L715.934 1200.65C715.934 1200.65 721.788 1200.96 726.778 1198.98C733.06 1196.49 736.144 1187.78 736.144 1187.78L742.887 1171.91L756.373 1140.19Z" fill="black"/>
<path d="M920.847 631.64L544.426 587.171L262.479 1099.14L699.984 1197.12L920.847 631.64Z" fill="black"/>
<path d="M703.718 1123.66L298.079 1031.09L311.056 1095.86L694.021 1181.18C694.021 1181.18 703.639 1183.83 711.17 1180.12C718.701 1176.41 723.594 1166.41 724.916 1160.5C726.237 1154.59 724.244 1143.15 721.309 1137.65C718.374 1132.14 703.718 1123.66 703.718 1123.66Z" fill="white"/>
<path d="M881.787 619.572L537.044 580.526L389.83 800.309L316.223 910.2L279.419 965.145L261.017 992.618L251.817 1006.35L247.216 1013.22C247.216 1013.22 244.622 1016.52 244.856 1019.74C245.147 1023.74 247.027 1025.16 250.916 1026.13C254.956 1027.13 257.289 1024.23 261.446 1024.47C264.196 1024.62 268.365 1025.84 268.365 1025.84L294.113 1031.6L345.611 1043.1L448.607 1066.11L654.598 1112.12L881.787 619.572Z" fill="#3D3D3D"/>
<path d="M941.695 627.927C937.496 621.888 925.488 617.376 925.488 617.376L907.226 610.142L897.646 606.951C897.646 606.951 891.072 605.014 888.321 607.687C885.996 609.946 885.092 612.167 885.092 612.167L881.433 620.103L874.114 635.976L859.476 667.722L830.201 731.214L771.649 858.197L654.546 1112.16L678.405 1118.06C678.405 1118.06 692.852 1121.05 702.551 1124.62C705.323 1125.64 709.967 1127.6 709.967 1127.6L716.272 1132.24C716.272 1132.24 719.531 1134.75 720.905 1136.92C722.181 1138.94 723.268 1142.6 723.268 1142.6L750.567 1153.75L859.133 893.724L913.415 763.71L939.448 698.274C939.448 698.274 946.201 679.101 948.872 665.976C950.433 658.305 950.851 654.248 950.155 646.744C949.475 639.421 945.893 633.965 941.695 627.927Z" fill="black"/>
<line x1="738.307" y1="700.452" x2="577.418" y2="988.575" stroke="black" stroke-width="3"/>
<line x1="596.151" y1="661.792" x2="421.819" y2="941.986" stroke="black" stroke-width="3"/>
<path d="M458.068 977L482.332 990.043L516.113 995.754" stroke="black" stroke-width="3"/>
<path d="M118.987 1763.45L446.907 1573.35L365.594 994.561L-43.2978 1178.46L118.987 1763.45Z" fill="black"/>
<path d="M-2.24315 1239.49L377.903 1070.37L328.683 1026.31L-28.969 1187.64C-28.969 1187.64 -38.258 1191.28 -42.0582 1198.77C-45.8583 1206.26 -43.7819 1217.19 -41.2957 1222.72C-38.8095 1228.24 -30.3572 1236.2 -24.7066 1238.84C-19.056 1241.49 -2.24315 1239.49 -2.24315 1239.49Z" fill="white"/>
<path d="M157.483 1749.69L456.799 1574.24L442.841 1310.07L435.863 1177.99L432.373 1111.95L430.629 1078.93L429.756 1062.42L429.32 1054.17C429.32 1054.17 429.421 1049.98 427.303 1047.54C424.673 1044.51 422.315 1044.5 418.621 1046.06C414.785 1047.67 414.657 1051.4 411.19 1053.7C408.896 1055.23 404.828 1056.75 404.828 1056.75L380.772 1067.58L332.659 1089.25L236.435 1132.59L43.986 1219.27L157.483 1749.69Z" fill="#3D3D3D"/>
<path d="M104.529 1778.92C111.51 1781.23 123.825 1777.65 123.825 1777.65L142.778 1772.49L152.358 1769.3C152.358 1769.3 158.781 1766.9 159.38 1763.12C159.887 1759.91 159.278 1757.59 159.278 1757.59L157.448 1749.05L153.789 1731.96L146.47 1697.77L131.832 1629.41L102.556 1492.67L44.0034 1219.21L21.3734 1228.79C21.3734 1228.79 8.02115 1235.07 -1.88211 1238.02C-4.71159 1238.87 -9.60743 1240.08 -9.60743 1240.08L-17.4339 1240.15C-17.4339 1240.15 -21.5443 1240.1 -23.9472 1239.18C-26.1773 1238.33 -29.2438 1236.05 -29.2438 1236.05L-57.7777 1243.5L11.2404 1516.69L45.7494 1653.29L64.1494 1721.27C64.1494 1721.27 70.2399 1740.67 75.9716 1752.77C79.3213 1759.85 81.4194 1763.34 86.4763 1768.93C91.4109 1774.38 97.5484 1776.6 104.529 1778.92Z" fill="black"/>
<circle cx="385.819" cy="1493.64" r="48" transform="rotate(-11.2538 385.819 1493.64)" stroke="black" stroke-width="3"/>
<path d="M1272.93 1448.38L1314.34 1411.23L1260.53 1353.33L1243.71 1375.19L1235.3 1386.13C1235.3 1386.13 1232.55 1391.3 1232.22 1396.66C1231.81 1403.4 1238.4 1409.89 1238.4 1409.89L1249.91 1422.72L1272.93 1448.38Z" fill="black"/>
<path d="M1663.86 1812.86L1863.66 1490.75L1519.41 1018.42L1245.26 1373.18L1663.86 1812.86Z" fill="black"/>
<path d="M1310.22 1407.69L1565.96 1079.5L1501.8 1063.81L1262.23 1374.53C1262.23 1374.53 1255.75 1382.12 1255.92 1390.51C1256.09 1398.91 1263.07 1407.58 1267.87 1411.28C1272.66 1414.98 1283.86 1418.02 1290.1 1417.69C1296.33 1417.37 1310.22 1407.69 1310.22 1407.69Z" fill="white"/>
<path d="M1691.35 1782.59L1872.8 1486.88L1736.12 1260.4L1667.77 1147.16L1633.6 1090.54L1616.51 1062.23L1607.97 1048.08L1603.7 1041C1603.7 1041 1601.81 1037.25 1598.8 1036.1C1595.05 1034.67 1592.97 1035.77 1590.44 1038.88C1587.82 1042.12 1589.46 1045.46 1587.48 1049.12C1586.18 1051.55 1583.3 1054.81 1583.3 1054.81L1567.18 1075.69L1534.94 1117.46L1470.45 1201L1341.48 1368.09L1691.35 1782.59Z" fill="#3D3D3D"/>
<path d="M1658.39 1833.31C1665.64 1832.07 1674.82 1823.11 1674.82 1823.11L1689.11 1809.63L1696.06 1802.31C1696.06 1802.31 1700.6 1797.17 1699.34 1793.55C1698.28 1790.48 1696.65 1788.72 1696.65 1788.72L1691.02 1782.05L1679.74 1768.69L1657.19 1741.98L1612.09 1688.56L1521.88 1581.71L1341.47 1368.02L1326.02 1387.13C1326.02 1387.13 1317.19 1398.95 1309.85 1406.23C1307.75 1408.3 1304 1411.68 1304 1411.68L1297.13 1415.42C1297.13 1415.42 1293.48 1417.31 1290.93 1417.64C1288.56 1417.94 1284.78 1417.37 1284.78 1417.37L1263.11 1437.37L1452.63 1645.9L1547.39 1750.16L1595.63 1801.47C1595.63 1801.47 1610.13 1815.71 1620.89 1823.69C1627.17 1828.36 1630.67 1830.45 1637.77 1833C1644.69 1835.49 1651.15 1834.56 1658.39 1833.31Z" fill="black"/>
<path d="M1759.06 1510.15C1769.84 1541.47 1758.47 1585 1733.63 1607.37C1708.79 1629.73 1679.92 1622.44 1669.14 1591.12C1658.35 1559.8 1669.72 1516.27 1694.56 1493.9C1719.4 1471.54 1748.27 1478.83 1759.06 1510.15Z" stroke="black" stroke-width="3"/>
</g>
<defs>
<clipPath id="clip0_107_15264">
<rect width="1728" height="1834" fill="white"/>
</clipPath>
</defs>
</svg>
