<svg width="1982" height="1982" viewBox="0 0 1982 1982" fill="none" xmlns="http://www.w3.org/2000/svg">
<g clip-path="url(#clip0_788_1186)">
<path d="M497.963 1657.17L636.507 1614.81L693.215 1812.69L621.834 1820.77L586.143 1824.81C586.143 1824.81 570.899 1824 558.518 1817.52C542.931 1809.35 537.33 1785.94 537.33 1785.94L524.208 1743.01L497.963 1657.17Z" fill="black"/>
<path d="M211.176 295.184L1198.15 283.019L1788.22 1685.99L628.415 1820.03L211.176 295.184Z" fill="black"/>
<path d="M638.842 1628.77L1714.65 1500.02L1663.32 1664.2L648.218 1780.38C648.218 1780.38 622.583 1784.62 604.097 1772.94C585.61 1761.26 575.672 1734.04 573.868 1718.37C572.063 1702.7 580.354 1673.63 589.462 1660.17C598.569 1646.71 638.842 1628.77 638.842 1628.77Z" fill="white"/>
<path d="M315.404 277.177L1218.86 270.39L1539.96 879.837L1700.51 1184.56L1780.79 1336.92L1820.93 1413.1L1840.99 1451.19L1851.03 1470.24C1851.03 1470.24 1856.84 1479.48 1855.36 1487.76C1853.51 1498.03 1848.25 1501.21 1837.92 1502.65C1827.18 1504.15 1821.93 1496 1811.1 1495.46C1803.94 1495.11 1792.81 1497.14 1792.81 1497.14L1724.55 1504.99L1588.04 1520.69L1315.02 1552.09L768.977 1614.89L315.404 277.177Z" fill="#3D3D3D"/>
<path d="M158.202 279.86C170.728 265.371 203.059 256.97 203.059 256.97L252.332 243.234L278.013 237.592C278.013 237.592 295.567 234.374 301.96 242.048C307.364 248.534 309.096 254.534 309.096 254.534L316.401 276.088L331.012 319.197L360.233 405.414L418.675 577.848L535.559 922.715L769.326 1612.45L705.926 1621.19C705.926 1621.19 667.696 1624.97 641.601 1631.56C634.145 1633.45 621.58 1637.27 621.58 1637.27L603.983 1647.55C603.983 1647.55 594.858 1653.15 590.704 1658.4C586.85 1663.28 583.031 1672.46 583.031 1672.46L509.283 1693.87L299.284 990.779L194.283 639.233L144.773 462.65C144.773 462.65 132.529 411.15 129.203 376.43C127.26 356.138 127.287 345.517 131.145 326.274C134.909 307.496 145.677 294.348 158.202 279.86Z" fill="black"/>
</g>
<defs>
<clipPath id="clip0_788_1186">
<rect width="1982" height="1982" fill="white"/>
</clipPath>
</defs>
</svg>
