<svg width="1728" height="1834" viewBox="0 0 1728 1834" fill="none" xmlns="http://www.w3.org/2000/svg">
<g clip-path="url(#clip0_105_15195)">
<path d="M218.795 364.949C230.594 393.621 216.916 426.429 188.244 438.228C159.572 450.027 126.764 436.349 114.965 407.678C103.166 379.006 116.844 346.198 145.516 334.399C174.188 322.6 206.996 336.278 218.795 364.949Z" stroke="black" stroke-width="3"/>
<path d="M473.784 612.486L478.515 597.719L495.722 598.533L465.056 576.558L473.784 612.486Z" fill="black" stroke="black"/>
<line x1="738.307" y1="700.451" x2="577.418" y2="988.574" stroke="black" stroke-width="3"/>
<line x1="596.151" y1="661.792" x2="421.819" y2="941.986" stroke="black" stroke-width="3"/>
<path d="M458.068 977L482.332 990.043L516.113 995.754" stroke="black" stroke-width="3"/>
<circle cx="385.819" cy="1493.64" r="48" transform="rotate(-11.2538 385.819 1493.64)" stroke="black" stroke-width="3"/>
<path d="M1759.06 1510.15C1769.84 1541.47 1758.47 1585 1733.63 1607.37C1708.79 1629.73 1679.92 1622.44 1669.14 1591.12C1658.35 1559.8 1669.72 1516.27 1694.56 1493.9C1719.4 1471.54 1748.27 1478.83 1759.06 1510.15Z" stroke="black" stroke-width="3"/>
</g>
<defs>
<clipPath id="clip0_105_15195">
<rect width="1728" height="1834" fill="white" transform="translate(0.000488281)"/>
</clipPath>
</defs>
</svg>
