<svg width="1728" height="1075" viewBox="0 0 1728 1075" fill="none" xmlns="http://www.w3.org/2000/svg">
<path d="M10.75 1045H1726.75L1719.25 1067.5H1704.25L1696.75 1075H27.25L23.125 1067.5L21.0625 1063.75H8.75L10.75 1045Z" fill="#3D3D3D"/>
<path d="M8.25 324H1724.25L1716.75 346.5H1701.75L1694.25 354H24.75L20.625 346.5L18.5625 342.75H6.25L8.25 324Z" fill="#3D3D3D"/>
<path d="M3.25 688H1719.25L1711.75 710.5H1696.75L1689.25 718H19.75L15.625 710.5L13.5625 706.75H1.25L3.25 688Z" fill="#3D3D3D"/>
<rect x="1586.25" y="354" width="107.752" height="89.6518" fill="#3D3D3D"/>
<rect x="1603.31" y="443.652" width="73.6305" height="89.6518" fill="#848484"/>
<rect width="107.752" height="89.6518" transform="matrix(1 0 0 -1 1586.25 1049)" fill="#3D3D3D"/>
<rect width="73.6305" height="89.6518" transform="matrix(1 0 0 -1 1603.31 959.348)" fill="#848484"/>
<path d="M1594.33 575.353H1685.92L1676.94 617.402H1603.31L1594.33 575.353Z" fill="#3D3D3D"/>
<path d="M1594.33 659.451H1685.92L1676.94 701.5H1603.31L1594.33 659.451Z" fill="#3D3D3D"/>
<path d="M1594.33 743.549H1685.92L1676.94 785.598H1603.31L1594.33 743.549Z" fill="#3D3D3D"/>
<path d="M1594.33 827.647H1685.92L1676.94 869.696H1603.31L1594.33 827.647Z" fill="#3D3D3D"/>
<path d="M1594.33 575.353H1685.92L1676.94 533.304H1603.31L1594.33 575.353Z" fill="#3D3D3D"/>
<path d="M1594.33 659.451H1685.92L1676.94 617.402H1603.31L1594.33 659.451Z" fill="#3D3D3D"/>
<path d="M1594.33 743.549H1685.92L1676.94 701.5H1603.31L1594.33 743.549Z" fill="#3D3D3D"/>
<path d="M1594.33 827.647H1685.92L1676.94 785.598H1603.31L1594.33 827.647Z" fill="#3D3D3D"/>
<rect x="24.752" y="354" width="107.752" height="89.6518" fill="#3D3D3D"/>
<rect x="41.8125" y="443.652" width="73.6305" height="89.6518" fill="#848484"/>
<rect width="107.752" height="89.6518" transform="matrix(1 0 0 -1 24.752 1049)" fill="#3D3D3D"/>
<rect width="73.6305" height="89.6518" transform="matrix(1 0 0 -1 41.8125 959.348)" fill="#848484"/>
<path d="M32.833 575.353H124.422L115.443 617.402H41.8123L32.833 575.353Z" fill="#3D3D3D"/>
<path d="M32.834 659.45H124.423L115.444 701.499H41.8133L32.834 659.45Z" fill="#3D3D3D"/>
<path d="M32.834 743.55H124.423L115.444 785.599H41.8133L32.834 743.55Z" fill="#3D3D3D"/>
<path d="M32.833 827.647H124.422L115.443 869.696H41.8123L32.833 827.647Z" fill="#3D3D3D"/>
<path d="M32.833 575.353H124.422L115.443 533.304H41.8123L32.833 575.353Z" fill="#3D3D3D"/>
<path d="M32.834 659.45H124.423L115.444 617.401H41.8133L32.834 659.45Z" fill="#3D3D3D"/>
<path d="M32.834 743.55H124.423L115.444 701.501H41.8133L32.834 743.55Z" fill="#3D3D3D"/>
<path d="M32.833 827.647H124.422L115.443 785.598H41.8123L32.833 827.647Z" fill="#3D3D3D"/>
</svg>
